G04 EAGLE Gerber RS-274X export*
G75*
%MOMM*%
%FSLAX34Y34*%
%LPD*%
%INSilkscreen Bottom*%
%IPPOS*%
%AMOC8*
5,1,8,0,0,1.08239X$1,22.5*%
G01*
%ADD10C,0.152400*%
%ADD11C,0.203200*%
%ADD12C,0.101600*%
%ADD13R,20.320000X0.050800*%
%ADD14R,0.762000X0.050800*%
%ADD15R,1.727200X0.050800*%
%ADD16R,0.660400X0.050800*%
%ADD17R,1.574800X0.050800*%
%ADD18R,0.609600X0.050800*%
%ADD19R,1.524000X0.050800*%
%ADD20R,0.558800X0.050800*%
%ADD21R,1.473200X0.050800*%
%ADD22R,0.508000X0.050800*%
%ADD23R,0.101600X0.050800*%
%ADD24R,0.050800X0.050800*%
%ADD25R,0.304800X0.050800*%
%ADD26R,1.422400X0.050800*%
%ADD27R,0.203200X0.050800*%
%ADD28R,0.152400X0.050800*%
%ADD29R,1.219200X0.050800*%
%ADD30R,0.254000X0.050800*%
%ADD31R,0.355600X0.050800*%
%ADD32R,0.711200X0.050800*%
%ADD33R,1.066800X0.050800*%
%ADD34R,0.406400X0.050800*%
%ADD35R,1.117600X0.050800*%
%ADD36R,0.457200X0.050800*%
%ADD37R,1.168400X0.050800*%
%ADD38R,0.812800X0.050800*%
%ADD39R,1.625600X0.050800*%
%ADD40R,1.930400X0.050800*%
%ADD41R,17.627600X0.050800*%
%ADD42R,17.424400X0.050800*%
%ADD43R,17.272000X0.050800*%
%ADD44R,17.170400X0.050800*%
%ADD45R,1.371600X0.050800*%
%ADD46R,17.068800X0.050800*%
%ADD47R,1.270000X0.050800*%
%ADD48R,16.967200X0.050800*%
%ADD49R,13.665200X0.050800*%
%ADD50R,2.946400X0.050800*%
%ADD51R,13.462000X0.050800*%
%ADD52R,2.844800X0.050800*%
%ADD53R,13.411200X0.050800*%
%ADD54R,2.794000X0.050800*%
%ADD55R,1.016000X0.050800*%
%ADD56R,13.360400X0.050800*%
%ADD57R,2.743200X0.050800*%
%ADD58R,0.965200X0.050800*%
%ADD59R,13.258800X0.050800*%
%ADD60R,2.692400X0.050800*%
%ADD61R,0.914400X0.050800*%
%ADD62R,13.157200X0.050800*%
%ADD63R,0.863600X0.050800*%
%ADD64R,2.641600X0.050800*%
%ADD65R,4.165600X0.050800*%
%ADD66R,1.676400X0.050800*%
%ADD67R,1.778000X0.050800*%
%ADD68R,2.590800X0.050800*%
%ADD69R,1.879600X0.050800*%
%ADD70R,1.981200X0.050800*%
%ADD71R,2.540000X0.050800*%
%ADD72R,2.082800X0.050800*%
%ADD73R,2.184400X0.050800*%
%ADD74R,2.489200X0.050800*%
%ADD75R,2.336800X0.050800*%
%ADD76R,2.438400X0.050800*%
%ADD77R,2.387600X0.050800*%
%ADD78R,2.286000X0.050800*%
%ADD79R,2.235200X0.050800*%
%ADD80R,4.521200X0.050800*%
%ADD81R,5.892800X0.050800*%
%ADD82R,2.032000X0.050800*%
%ADD83R,4.622800X0.050800*%
%ADD84R,10.668000X0.050800*%
%ADD85R,2.133600X0.050800*%
%ADD86R,15.595600X0.050800*%
%ADD87R,15.544800X0.050800*%
%ADD88R,15.494000X0.050800*%
%ADD89R,1.320800X0.050800*%
%ADD90R,1.828800X0.050800*%
%ADD91R,12.395200X0.050800*%
%ADD92R,12.446000X0.050800*%
%ADD93R,12.344400X0.050800*%
%ADD94R,12.293600X0.050800*%
%ADD95R,12.242800X0.050800*%
%ADD96R,14.630400X0.050800*%
%ADD97R,16.103600X0.050800*%
%ADD98R,15.443200X0.050800*%
%ADD99R,15.392400X0.050800*%
%ADD100R,15.341600X0.050800*%
%ADD101R,15.240000X0.050800*%
%ADD102R,5.080000X0.050800*%
%ADD103R,8.280400X0.050800*%
%ADD104R,8.991600X0.050800*%
%ADD105R,4.318000X0.050800*%
%ADD106R,9.042400X0.050800*%
%ADD107R,9.144000X0.050800*%
%ADD108R,16.662400X0.050800*%
%ADD109R,16.713200X0.050800*%
%ADD110R,16.764000X0.050800*%
%ADD111R,17.221200X0.050800*%
%ADD112R,16.916400X0.050800*%
%ADD113R,2.895600X0.050800*%
%ADD114R,16.865600X0.050800*%
%ADD115R,2.997200X0.050800*%
%ADD116R,3.048000X0.050800*%
%ADD117R,3.149600X0.050800*%

G36*
X1147615Y303001D02*
X1147615Y303001D01*
X1147715Y303008D01*
X1147755Y303023D01*
X1147798Y303029D01*
X1147888Y303072D01*
X1147981Y303106D01*
X1148016Y303132D01*
X1148055Y303150D01*
X1148130Y303216D01*
X1148210Y303275D01*
X1148233Y303306D01*
X1148269Y303337D01*
X1148366Y303489D01*
X1148408Y303546D01*
X1150408Y307546D01*
X1150411Y307554D01*
X1150416Y307561D01*
X1150456Y307689D01*
X1150498Y307816D01*
X1150499Y307824D01*
X1150501Y307832D01*
X1150505Y307967D01*
X1150510Y308100D01*
X1150508Y308108D01*
X1150509Y308116D01*
X1150475Y308246D01*
X1150443Y308376D01*
X1150439Y308383D01*
X1150437Y308391D01*
X1150369Y308506D01*
X1150302Y308623D01*
X1150296Y308629D01*
X1150292Y308636D01*
X1150194Y308728D01*
X1150098Y308821D01*
X1150090Y308824D01*
X1150084Y308830D01*
X1149965Y308891D01*
X1149847Y308954D01*
X1149839Y308956D01*
X1149831Y308960D01*
X1149779Y308968D01*
X1149569Y309013D01*
X1149531Y309010D01*
X1149500Y309015D01*
X1145500Y309015D01*
X1145492Y309014D01*
X1145483Y309015D01*
X1145351Y308994D01*
X1145219Y308975D01*
X1145211Y308972D01*
X1145202Y308971D01*
X1145081Y308914D01*
X1144959Y308859D01*
X1144953Y308854D01*
X1144945Y308850D01*
X1144844Y308762D01*
X1144742Y308676D01*
X1144737Y308668D01*
X1144731Y308663D01*
X1144659Y308550D01*
X1144585Y308439D01*
X1144582Y308431D01*
X1144577Y308424D01*
X1144539Y308295D01*
X1144499Y308168D01*
X1144499Y308159D01*
X1144496Y308151D01*
X1144495Y308017D01*
X1144491Y307884D01*
X1144494Y307875D01*
X1144494Y307867D01*
X1144509Y307816D01*
X1144563Y307609D01*
X1144583Y307576D01*
X1144592Y307546D01*
X1146592Y303546D01*
X1146649Y303464D01*
X1146698Y303377D01*
X1146729Y303347D01*
X1146753Y303312D01*
X1146831Y303249D01*
X1146902Y303180D01*
X1146940Y303159D01*
X1146973Y303132D01*
X1147065Y303093D01*
X1147153Y303046D01*
X1147195Y303037D01*
X1147235Y303020D01*
X1147334Y303008D01*
X1147431Y302987D01*
X1147474Y302990D01*
X1147517Y302985D01*
X1147615Y303001D01*
G37*
G36*
X897615Y303001D02*
X897615Y303001D01*
X897715Y303008D01*
X897755Y303023D01*
X897798Y303029D01*
X897888Y303072D01*
X897981Y303106D01*
X898016Y303132D01*
X898055Y303150D01*
X898130Y303216D01*
X898210Y303275D01*
X898233Y303306D01*
X898269Y303337D01*
X898366Y303489D01*
X898408Y303546D01*
X900408Y307546D01*
X900411Y307554D01*
X900416Y307561D01*
X900456Y307689D01*
X900498Y307816D01*
X900499Y307824D01*
X900501Y307832D01*
X900505Y307967D01*
X900510Y308100D01*
X900508Y308108D01*
X900509Y308116D01*
X900475Y308246D01*
X900443Y308376D01*
X900439Y308383D01*
X900437Y308391D01*
X900369Y308506D01*
X900302Y308623D01*
X900296Y308629D01*
X900292Y308636D01*
X900194Y308728D01*
X900098Y308821D01*
X900090Y308824D01*
X900084Y308830D01*
X899965Y308891D01*
X899847Y308954D01*
X899839Y308956D01*
X899831Y308960D01*
X899779Y308968D01*
X899569Y309013D01*
X899531Y309010D01*
X899500Y309015D01*
X895500Y309015D01*
X895492Y309014D01*
X895483Y309015D01*
X895351Y308994D01*
X895219Y308975D01*
X895211Y308972D01*
X895202Y308971D01*
X895081Y308914D01*
X894959Y308859D01*
X894953Y308854D01*
X894945Y308850D01*
X894844Y308762D01*
X894742Y308676D01*
X894737Y308668D01*
X894731Y308663D01*
X894659Y308550D01*
X894585Y308439D01*
X894582Y308431D01*
X894577Y308424D01*
X894539Y308295D01*
X894499Y308168D01*
X894499Y308159D01*
X894496Y308151D01*
X894495Y308017D01*
X894491Y307884D01*
X894494Y307875D01*
X894494Y307867D01*
X894509Y307816D01*
X894563Y307609D01*
X894583Y307576D01*
X894592Y307546D01*
X896592Y303546D01*
X896649Y303464D01*
X896698Y303377D01*
X896729Y303347D01*
X896753Y303312D01*
X896831Y303249D01*
X896902Y303180D01*
X896940Y303159D01*
X896973Y303132D01*
X897065Y303093D01*
X897153Y303046D01*
X897195Y303037D01*
X897235Y303020D01*
X897334Y303008D01*
X897431Y302987D01*
X897474Y302990D01*
X897517Y302985D01*
X897615Y303001D01*
G37*
G36*
X647615Y303001D02*
X647615Y303001D01*
X647715Y303008D01*
X647755Y303023D01*
X647798Y303029D01*
X647888Y303072D01*
X647981Y303106D01*
X648016Y303132D01*
X648055Y303150D01*
X648130Y303216D01*
X648210Y303275D01*
X648233Y303306D01*
X648269Y303337D01*
X648366Y303489D01*
X648408Y303546D01*
X650408Y307546D01*
X650411Y307554D01*
X650416Y307561D01*
X650456Y307689D01*
X650498Y307816D01*
X650499Y307824D01*
X650501Y307832D01*
X650505Y307967D01*
X650510Y308100D01*
X650508Y308108D01*
X650509Y308116D01*
X650475Y308246D01*
X650443Y308376D01*
X650439Y308383D01*
X650437Y308391D01*
X650369Y308506D01*
X650302Y308623D01*
X650296Y308629D01*
X650292Y308636D01*
X650194Y308728D01*
X650098Y308821D01*
X650090Y308824D01*
X650084Y308830D01*
X649965Y308891D01*
X649847Y308954D01*
X649839Y308956D01*
X649831Y308960D01*
X649779Y308968D01*
X649569Y309013D01*
X649531Y309010D01*
X649500Y309015D01*
X645500Y309015D01*
X645492Y309014D01*
X645483Y309015D01*
X645351Y308994D01*
X645219Y308975D01*
X645211Y308972D01*
X645202Y308971D01*
X645081Y308914D01*
X644959Y308859D01*
X644953Y308854D01*
X644945Y308850D01*
X644844Y308762D01*
X644742Y308676D01*
X644737Y308668D01*
X644731Y308663D01*
X644659Y308550D01*
X644585Y308439D01*
X644582Y308431D01*
X644577Y308424D01*
X644539Y308295D01*
X644499Y308168D01*
X644499Y308159D01*
X644496Y308151D01*
X644495Y308017D01*
X644491Y307884D01*
X644494Y307875D01*
X644494Y307867D01*
X644509Y307816D01*
X644563Y307609D01*
X644583Y307576D01*
X644592Y307546D01*
X646592Y303546D01*
X646649Y303464D01*
X646698Y303377D01*
X646729Y303347D01*
X646753Y303312D01*
X646831Y303249D01*
X646902Y303180D01*
X646940Y303159D01*
X646973Y303132D01*
X647065Y303093D01*
X647153Y303046D01*
X647195Y303037D01*
X647235Y303020D01*
X647334Y303008D01*
X647431Y302987D01*
X647474Y302990D01*
X647517Y302985D01*
X647615Y303001D01*
G37*
G36*
X397615Y303001D02*
X397615Y303001D01*
X397715Y303008D01*
X397755Y303023D01*
X397798Y303029D01*
X397888Y303072D01*
X397981Y303106D01*
X398016Y303132D01*
X398055Y303150D01*
X398130Y303216D01*
X398210Y303275D01*
X398233Y303306D01*
X398269Y303337D01*
X398366Y303489D01*
X398408Y303546D01*
X400408Y307546D01*
X400411Y307554D01*
X400416Y307561D01*
X400456Y307689D01*
X400498Y307816D01*
X400499Y307824D01*
X400501Y307832D01*
X400505Y307967D01*
X400510Y308100D01*
X400508Y308108D01*
X400509Y308116D01*
X400475Y308246D01*
X400443Y308376D01*
X400439Y308383D01*
X400437Y308391D01*
X400369Y308506D01*
X400302Y308623D01*
X400296Y308629D01*
X400292Y308636D01*
X400194Y308728D01*
X400098Y308821D01*
X400090Y308824D01*
X400084Y308830D01*
X399965Y308891D01*
X399847Y308954D01*
X399839Y308956D01*
X399831Y308960D01*
X399779Y308968D01*
X399569Y309013D01*
X399531Y309010D01*
X399500Y309015D01*
X395500Y309015D01*
X395492Y309014D01*
X395483Y309015D01*
X395351Y308994D01*
X395219Y308975D01*
X395211Y308972D01*
X395202Y308971D01*
X395081Y308914D01*
X394959Y308859D01*
X394953Y308854D01*
X394945Y308850D01*
X394844Y308762D01*
X394742Y308676D01*
X394737Y308668D01*
X394731Y308663D01*
X394659Y308550D01*
X394585Y308439D01*
X394582Y308431D01*
X394577Y308424D01*
X394539Y308295D01*
X394499Y308168D01*
X394499Y308159D01*
X394496Y308151D01*
X394495Y308017D01*
X394491Y307884D01*
X394494Y307875D01*
X394494Y307867D01*
X394509Y307816D01*
X394563Y307609D01*
X394583Y307576D01*
X394592Y307546D01*
X396592Y303546D01*
X396649Y303464D01*
X396698Y303377D01*
X396729Y303347D01*
X396753Y303312D01*
X396831Y303249D01*
X396902Y303180D01*
X396940Y303159D01*
X396973Y303132D01*
X397065Y303093D01*
X397153Y303046D01*
X397195Y303037D01*
X397235Y303020D01*
X397334Y303008D01*
X397431Y302987D01*
X397474Y302990D01*
X397517Y302985D01*
X397615Y303001D01*
G37*
G36*
X147615Y303001D02*
X147615Y303001D01*
X147715Y303008D01*
X147755Y303023D01*
X147798Y303029D01*
X147888Y303072D01*
X147981Y303106D01*
X148016Y303132D01*
X148055Y303150D01*
X148130Y303216D01*
X148210Y303275D01*
X148233Y303306D01*
X148269Y303337D01*
X148366Y303489D01*
X148408Y303546D01*
X150408Y307546D01*
X150411Y307554D01*
X150416Y307561D01*
X150456Y307689D01*
X150498Y307816D01*
X150499Y307824D01*
X150501Y307832D01*
X150505Y307967D01*
X150510Y308100D01*
X150508Y308108D01*
X150509Y308116D01*
X150475Y308246D01*
X150443Y308376D01*
X150439Y308383D01*
X150437Y308391D01*
X150369Y308506D01*
X150302Y308623D01*
X150296Y308629D01*
X150292Y308636D01*
X150194Y308728D01*
X150098Y308821D01*
X150090Y308824D01*
X150084Y308830D01*
X149965Y308891D01*
X149847Y308954D01*
X149839Y308956D01*
X149831Y308960D01*
X149779Y308968D01*
X149569Y309013D01*
X149531Y309010D01*
X149500Y309015D01*
X145500Y309015D01*
X145492Y309014D01*
X145483Y309015D01*
X145351Y308994D01*
X145219Y308975D01*
X145211Y308972D01*
X145202Y308971D01*
X145081Y308914D01*
X144959Y308859D01*
X144953Y308854D01*
X144945Y308850D01*
X144844Y308762D01*
X144742Y308676D01*
X144737Y308668D01*
X144731Y308663D01*
X144659Y308550D01*
X144585Y308439D01*
X144582Y308431D01*
X144577Y308424D01*
X144539Y308295D01*
X144499Y308168D01*
X144499Y308159D01*
X144496Y308151D01*
X144495Y308017D01*
X144491Y307884D01*
X144494Y307875D01*
X144494Y307867D01*
X144509Y307816D01*
X144563Y307609D01*
X144583Y307576D01*
X144592Y307546D01*
X146592Y303546D01*
X146649Y303464D01*
X146698Y303377D01*
X146729Y303347D01*
X146753Y303312D01*
X146831Y303249D01*
X146902Y303180D01*
X146940Y303159D01*
X146973Y303132D01*
X147065Y303093D01*
X147153Y303046D01*
X147195Y303037D01*
X147235Y303020D01*
X147334Y303008D01*
X147431Y302987D01*
X147474Y302990D01*
X147517Y302985D01*
X147615Y303001D01*
G37*
D10*
X979793Y71294D02*
X979791Y71419D01*
X979785Y71544D01*
X979776Y71669D01*
X979762Y71793D01*
X979745Y71917D01*
X979724Y72041D01*
X979699Y72163D01*
X979670Y72285D01*
X979638Y72406D01*
X979602Y72526D01*
X979562Y72645D01*
X979519Y72762D01*
X979472Y72878D01*
X979421Y72993D01*
X979367Y73105D01*
X979309Y73217D01*
X979249Y73326D01*
X979184Y73433D01*
X979117Y73539D01*
X979046Y73642D01*
X978972Y73743D01*
X978895Y73842D01*
X978815Y73938D01*
X978732Y74032D01*
X978647Y74123D01*
X978558Y74212D01*
X978467Y74297D01*
X978373Y74380D01*
X978277Y74460D01*
X978178Y74537D01*
X978077Y74611D01*
X977974Y74682D01*
X977868Y74749D01*
X977761Y74814D01*
X977652Y74874D01*
X977540Y74932D01*
X977428Y74986D01*
X977313Y75037D01*
X977197Y75084D01*
X977080Y75127D01*
X976961Y75167D01*
X976841Y75203D01*
X976720Y75235D01*
X976598Y75264D01*
X976476Y75289D01*
X976352Y75310D01*
X976228Y75327D01*
X976104Y75341D01*
X975979Y75350D01*
X975854Y75356D01*
X975729Y75358D01*
X975586Y75356D01*
X975444Y75350D01*
X975301Y75340D01*
X975159Y75327D01*
X975018Y75309D01*
X974876Y75288D01*
X974736Y75263D01*
X974596Y75234D01*
X974457Y75201D01*
X974319Y75164D01*
X974182Y75124D01*
X974047Y75080D01*
X973912Y75032D01*
X973779Y74980D01*
X973647Y74925D01*
X973517Y74866D01*
X973389Y74804D01*
X973262Y74738D01*
X973137Y74669D01*
X973014Y74597D01*
X972894Y74521D01*
X972775Y74442D01*
X972658Y74359D01*
X972544Y74274D01*
X972432Y74185D01*
X972323Y74094D01*
X972216Y73999D01*
X972111Y73902D01*
X972010Y73801D01*
X971911Y73698D01*
X971815Y73593D01*
X971722Y73484D01*
X971632Y73373D01*
X971545Y73260D01*
X971461Y73145D01*
X971381Y73027D01*
X971303Y72907D01*
X971229Y72785D01*
X971159Y72661D01*
X971091Y72535D01*
X971028Y72407D01*
X970967Y72278D01*
X970910Y72147D01*
X970857Y72015D01*
X970808Y71881D01*
X970762Y71746D01*
X978438Y68133D02*
X978532Y68225D01*
X978622Y68319D01*
X978710Y68416D01*
X978795Y68516D01*
X978877Y68618D01*
X978956Y68723D01*
X979031Y68830D01*
X979103Y68939D01*
X979172Y69050D01*
X979238Y69164D01*
X979300Y69279D01*
X979359Y69396D01*
X979414Y69515D01*
X979465Y69635D01*
X979513Y69757D01*
X979558Y69880D01*
X979598Y70004D01*
X979635Y70130D01*
X979668Y70257D01*
X979697Y70384D01*
X979723Y70513D01*
X979744Y70642D01*
X979762Y70772D01*
X979775Y70902D01*
X979785Y71032D01*
X979791Y71163D01*
X979793Y71294D01*
X978438Y68133D02*
X970762Y59102D01*
X979793Y59102D01*
X986393Y67230D02*
X986397Y67550D01*
X986408Y67869D01*
X986427Y68189D01*
X986454Y68507D01*
X986488Y68825D01*
X986530Y69142D01*
X986580Y69458D01*
X986637Y69773D01*
X986701Y70086D01*
X986773Y70398D01*
X986852Y70708D01*
X986939Y71015D01*
X987033Y71321D01*
X987134Y71624D01*
X987243Y71925D01*
X987358Y72223D01*
X987481Y72519D01*
X987611Y72811D01*
X987748Y73100D01*
X987748Y73101D02*
X987787Y73209D01*
X987830Y73316D01*
X987876Y73421D01*
X987927Y73525D01*
X987980Y73627D01*
X988037Y73727D01*
X988098Y73825D01*
X988162Y73920D01*
X988229Y74014D01*
X988300Y74105D01*
X988373Y74194D01*
X988450Y74280D01*
X988529Y74363D01*
X988611Y74444D01*
X988696Y74522D01*
X988784Y74596D01*
X988874Y74668D01*
X988966Y74736D01*
X989061Y74802D01*
X989158Y74864D01*
X989257Y74922D01*
X989359Y74978D01*
X989461Y75029D01*
X989566Y75077D01*
X989672Y75122D01*
X989780Y75163D01*
X989889Y75200D01*
X989999Y75233D01*
X990111Y75262D01*
X990223Y75288D01*
X990336Y75310D01*
X990450Y75327D01*
X990564Y75341D01*
X990679Y75351D01*
X990794Y75357D01*
X990909Y75359D01*
X990909Y75358D02*
X991024Y75356D01*
X991139Y75350D01*
X991254Y75340D01*
X991368Y75326D01*
X991482Y75309D01*
X991595Y75287D01*
X991707Y75261D01*
X991819Y75232D01*
X991929Y75199D01*
X992038Y75162D01*
X992146Y75121D01*
X992252Y75076D01*
X992357Y75028D01*
X992459Y74977D01*
X992560Y74921D01*
X992660Y74863D01*
X992757Y74801D01*
X992851Y74736D01*
X992944Y74667D01*
X993034Y74595D01*
X993122Y74521D01*
X993207Y74443D01*
X993289Y74362D01*
X993368Y74279D01*
X993445Y74193D01*
X993518Y74104D01*
X993589Y74013D01*
X993656Y73919D01*
X993720Y73824D01*
X993781Y73726D01*
X993838Y73626D01*
X993891Y73524D01*
X993942Y73420D01*
X993988Y73315D01*
X994031Y73208D01*
X994070Y73100D01*
X994069Y73100D02*
X994206Y72811D01*
X994336Y72519D01*
X994459Y72223D01*
X994574Y71925D01*
X994683Y71624D01*
X994784Y71321D01*
X994878Y71015D01*
X994965Y70708D01*
X995044Y70398D01*
X995116Y70086D01*
X995180Y69773D01*
X995237Y69458D01*
X995287Y69142D01*
X995329Y68825D01*
X995363Y68507D01*
X995390Y68189D01*
X995409Y67869D01*
X995420Y67550D01*
X995424Y67230D01*
X986394Y67230D02*
X986398Y66910D01*
X986409Y66591D01*
X986428Y66271D01*
X986455Y65953D01*
X986489Y65635D01*
X986531Y65318D01*
X986581Y65002D01*
X986638Y64687D01*
X986702Y64374D01*
X986774Y64062D01*
X986853Y63752D01*
X986940Y63445D01*
X987034Y63139D01*
X987135Y62836D01*
X987244Y62535D01*
X987359Y62237D01*
X987482Y61941D01*
X987612Y61649D01*
X987749Y61360D01*
X987748Y61360D02*
X987787Y61252D01*
X987830Y61145D01*
X987876Y61040D01*
X987927Y60936D01*
X987980Y60834D01*
X988037Y60734D01*
X988098Y60636D01*
X988162Y60541D01*
X988229Y60447D01*
X988300Y60356D01*
X988373Y60267D01*
X988450Y60181D01*
X988529Y60098D01*
X988611Y60017D01*
X988696Y59939D01*
X988784Y59865D01*
X988874Y59793D01*
X988967Y59724D01*
X989061Y59659D01*
X989158Y59597D01*
X989258Y59539D01*
X989359Y59483D01*
X989461Y59432D01*
X989566Y59384D01*
X989672Y59339D01*
X989780Y59298D01*
X989889Y59261D01*
X989999Y59228D01*
X990111Y59199D01*
X990223Y59173D01*
X990336Y59151D01*
X990450Y59134D01*
X990564Y59120D01*
X990679Y59110D01*
X990794Y59104D01*
X990909Y59102D01*
X994069Y61360D02*
X994206Y61649D01*
X994336Y61941D01*
X994459Y62237D01*
X994574Y62535D01*
X994683Y62836D01*
X994784Y63139D01*
X994878Y63445D01*
X994965Y63752D01*
X995044Y64062D01*
X995116Y64374D01*
X995180Y64687D01*
X995237Y65002D01*
X995287Y65318D01*
X995329Y65635D01*
X995363Y65953D01*
X995390Y66271D01*
X995409Y66591D01*
X995420Y66910D01*
X995424Y67230D01*
X994070Y61360D02*
X994031Y61252D01*
X993988Y61145D01*
X993942Y61040D01*
X993891Y60936D01*
X993838Y60834D01*
X993781Y60734D01*
X993720Y60636D01*
X993656Y60541D01*
X993589Y60447D01*
X993518Y60356D01*
X993445Y60267D01*
X993368Y60181D01*
X993289Y60098D01*
X993207Y60017D01*
X993122Y59939D01*
X993034Y59865D01*
X992944Y59793D01*
X992851Y59724D01*
X992757Y59659D01*
X992660Y59597D01*
X992560Y59539D01*
X992459Y59483D01*
X992356Y59432D01*
X992252Y59384D01*
X992146Y59339D01*
X992038Y59298D01*
X991929Y59261D01*
X991819Y59228D01*
X991707Y59199D01*
X991595Y59173D01*
X991482Y59151D01*
X991368Y59134D01*
X991254Y59120D01*
X991139Y59110D01*
X991024Y59104D01*
X990909Y59102D01*
X987296Y62714D02*
X994521Y71746D01*
X1006992Y75358D02*
X1007117Y75356D01*
X1007242Y75350D01*
X1007367Y75341D01*
X1007491Y75327D01*
X1007615Y75310D01*
X1007739Y75289D01*
X1007861Y75264D01*
X1007983Y75235D01*
X1008104Y75203D01*
X1008224Y75167D01*
X1008343Y75127D01*
X1008460Y75084D01*
X1008576Y75037D01*
X1008691Y74986D01*
X1008803Y74932D01*
X1008915Y74874D01*
X1009024Y74814D01*
X1009131Y74749D01*
X1009237Y74682D01*
X1009340Y74611D01*
X1009441Y74537D01*
X1009540Y74460D01*
X1009636Y74380D01*
X1009730Y74297D01*
X1009821Y74212D01*
X1009910Y74123D01*
X1009995Y74032D01*
X1010078Y73938D01*
X1010158Y73842D01*
X1010235Y73743D01*
X1010309Y73642D01*
X1010380Y73539D01*
X1010447Y73433D01*
X1010512Y73326D01*
X1010572Y73217D01*
X1010630Y73105D01*
X1010684Y72993D01*
X1010735Y72878D01*
X1010782Y72762D01*
X1010825Y72645D01*
X1010865Y72526D01*
X1010901Y72406D01*
X1010933Y72285D01*
X1010962Y72163D01*
X1010987Y72041D01*
X1011008Y71917D01*
X1011025Y71793D01*
X1011039Y71669D01*
X1011048Y71544D01*
X1011054Y71419D01*
X1011056Y71294D01*
X1006992Y75358D02*
X1006849Y75356D01*
X1006707Y75350D01*
X1006564Y75340D01*
X1006422Y75327D01*
X1006281Y75309D01*
X1006139Y75288D01*
X1005999Y75263D01*
X1005859Y75234D01*
X1005720Y75201D01*
X1005582Y75164D01*
X1005445Y75124D01*
X1005310Y75080D01*
X1005175Y75032D01*
X1005042Y74980D01*
X1004910Y74925D01*
X1004780Y74866D01*
X1004652Y74804D01*
X1004525Y74738D01*
X1004400Y74669D01*
X1004277Y74597D01*
X1004157Y74521D01*
X1004038Y74442D01*
X1003921Y74359D01*
X1003807Y74274D01*
X1003695Y74185D01*
X1003586Y74094D01*
X1003479Y73999D01*
X1003374Y73902D01*
X1003273Y73801D01*
X1003174Y73698D01*
X1003078Y73593D01*
X1002985Y73484D01*
X1002895Y73373D01*
X1002808Y73260D01*
X1002724Y73145D01*
X1002644Y73027D01*
X1002566Y72907D01*
X1002492Y72785D01*
X1002422Y72661D01*
X1002354Y72535D01*
X1002291Y72407D01*
X1002230Y72278D01*
X1002173Y72147D01*
X1002120Y72015D01*
X1002071Y71881D01*
X1002025Y71746D01*
X1009700Y68133D02*
X1009794Y68225D01*
X1009884Y68319D01*
X1009972Y68416D01*
X1010057Y68516D01*
X1010139Y68618D01*
X1010218Y68723D01*
X1010293Y68830D01*
X1010365Y68939D01*
X1010434Y69050D01*
X1010500Y69164D01*
X1010562Y69279D01*
X1010621Y69396D01*
X1010676Y69515D01*
X1010727Y69635D01*
X1010775Y69757D01*
X1010820Y69880D01*
X1010860Y70004D01*
X1010897Y70130D01*
X1010930Y70257D01*
X1010959Y70384D01*
X1010985Y70513D01*
X1011006Y70642D01*
X1011024Y70772D01*
X1011037Y70902D01*
X1011047Y71032D01*
X1011053Y71163D01*
X1011055Y71294D01*
X1009701Y68133D02*
X1002024Y59102D01*
X1011056Y59102D01*
X1017656Y59102D02*
X1022171Y59102D01*
X1022304Y59104D01*
X1022436Y59110D01*
X1022568Y59120D01*
X1022700Y59133D01*
X1022832Y59151D01*
X1022962Y59172D01*
X1023093Y59197D01*
X1023222Y59226D01*
X1023350Y59259D01*
X1023478Y59295D01*
X1023604Y59335D01*
X1023729Y59379D01*
X1023853Y59427D01*
X1023975Y59478D01*
X1024096Y59533D01*
X1024215Y59591D01*
X1024333Y59653D01*
X1024448Y59718D01*
X1024562Y59787D01*
X1024673Y59858D01*
X1024782Y59934D01*
X1024889Y60012D01*
X1024994Y60093D01*
X1025096Y60178D01*
X1025196Y60265D01*
X1025293Y60355D01*
X1025388Y60448D01*
X1025479Y60544D01*
X1025568Y60642D01*
X1025654Y60743D01*
X1025737Y60847D01*
X1025817Y60953D01*
X1025893Y61061D01*
X1025967Y61171D01*
X1026037Y61284D01*
X1026104Y61398D01*
X1026167Y61515D01*
X1026227Y61633D01*
X1026284Y61753D01*
X1026337Y61875D01*
X1026386Y61998D01*
X1026432Y62122D01*
X1026474Y62248D01*
X1026512Y62375D01*
X1026547Y62503D01*
X1026578Y62632D01*
X1026605Y62761D01*
X1026628Y62892D01*
X1026648Y63023D01*
X1026663Y63155D01*
X1026675Y63287D01*
X1026683Y63419D01*
X1026687Y63552D01*
X1026687Y63684D01*
X1026683Y63817D01*
X1026675Y63949D01*
X1026663Y64081D01*
X1026648Y64213D01*
X1026628Y64344D01*
X1026605Y64475D01*
X1026578Y64604D01*
X1026547Y64733D01*
X1026512Y64861D01*
X1026474Y64988D01*
X1026432Y65114D01*
X1026386Y65238D01*
X1026337Y65361D01*
X1026284Y65483D01*
X1026227Y65603D01*
X1026167Y65721D01*
X1026104Y65838D01*
X1026037Y65952D01*
X1025967Y66065D01*
X1025893Y66175D01*
X1025817Y66283D01*
X1025737Y66389D01*
X1025654Y66493D01*
X1025568Y66594D01*
X1025479Y66692D01*
X1025388Y66788D01*
X1025293Y66881D01*
X1025196Y66971D01*
X1025096Y67058D01*
X1024994Y67143D01*
X1024889Y67224D01*
X1024782Y67302D01*
X1024673Y67378D01*
X1024562Y67449D01*
X1024448Y67518D01*
X1024333Y67583D01*
X1024215Y67645D01*
X1024096Y67703D01*
X1023975Y67758D01*
X1023853Y67809D01*
X1023729Y67857D01*
X1023604Y67901D01*
X1023478Y67941D01*
X1023350Y67977D01*
X1023222Y68010D01*
X1023093Y68039D01*
X1022962Y68064D01*
X1022832Y68085D01*
X1022700Y68103D01*
X1022568Y68116D01*
X1022436Y68126D01*
X1022304Y68132D01*
X1022171Y68134D01*
X1023074Y75358D02*
X1017656Y75358D01*
X1023074Y75358D02*
X1023193Y75356D01*
X1023313Y75350D01*
X1023432Y75340D01*
X1023550Y75326D01*
X1023669Y75309D01*
X1023786Y75287D01*
X1023903Y75262D01*
X1024018Y75232D01*
X1024133Y75199D01*
X1024247Y75162D01*
X1024359Y75122D01*
X1024470Y75077D01*
X1024579Y75029D01*
X1024687Y74978D01*
X1024793Y74923D01*
X1024897Y74864D01*
X1024999Y74802D01*
X1025099Y74737D01*
X1025197Y74668D01*
X1025293Y74596D01*
X1025386Y74521D01*
X1025476Y74444D01*
X1025564Y74363D01*
X1025649Y74279D01*
X1025731Y74192D01*
X1025811Y74103D01*
X1025887Y74011D01*
X1025961Y73917D01*
X1026031Y73820D01*
X1026098Y73722D01*
X1026162Y73621D01*
X1026222Y73517D01*
X1026279Y73412D01*
X1026332Y73305D01*
X1026382Y73197D01*
X1026428Y73087D01*
X1026470Y72975D01*
X1026509Y72862D01*
X1026544Y72748D01*
X1026575Y72633D01*
X1026603Y72516D01*
X1026626Y72399D01*
X1026646Y72282D01*
X1026662Y72163D01*
X1026674Y72044D01*
X1026682Y71925D01*
X1026686Y71806D01*
X1026686Y71686D01*
X1026682Y71567D01*
X1026674Y71448D01*
X1026662Y71329D01*
X1026646Y71210D01*
X1026626Y71093D01*
X1026603Y70976D01*
X1026575Y70859D01*
X1026544Y70744D01*
X1026509Y70630D01*
X1026470Y70517D01*
X1026428Y70405D01*
X1026382Y70295D01*
X1026332Y70187D01*
X1026279Y70080D01*
X1026222Y69975D01*
X1026162Y69871D01*
X1026098Y69770D01*
X1026031Y69672D01*
X1025961Y69575D01*
X1025887Y69481D01*
X1025811Y69389D01*
X1025731Y69300D01*
X1025649Y69213D01*
X1025564Y69129D01*
X1025476Y69048D01*
X1025386Y68971D01*
X1025293Y68896D01*
X1025197Y68824D01*
X1025099Y68755D01*
X1024999Y68690D01*
X1024897Y68628D01*
X1024793Y68569D01*
X1024687Y68514D01*
X1024579Y68463D01*
X1024470Y68415D01*
X1024359Y68370D01*
X1024247Y68330D01*
X1024133Y68293D01*
X1024018Y68260D01*
X1023903Y68230D01*
X1023786Y68205D01*
X1023669Y68183D01*
X1023550Y68166D01*
X1023432Y68152D01*
X1023313Y68142D01*
X1023193Y68136D01*
X1023074Y68134D01*
X1023074Y68133D02*
X1019462Y68133D01*
X1033287Y71746D02*
X1037802Y75358D01*
X1037802Y59102D01*
X1033287Y59102D02*
X1042318Y59102D01*
X1048918Y67230D02*
X1048922Y67550D01*
X1048933Y67869D01*
X1048952Y68189D01*
X1048979Y68507D01*
X1049013Y68825D01*
X1049055Y69142D01*
X1049105Y69458D01*
X1049162Y69773D01*
X1049226Y70086D01*
X1049298Y70398D01*
X1049377Y70708D01*
X1049464Y71015D01*
X1049558Y71321D01*
X1049659Y71624D01*
X1049768Y71925D01*
X1049883Y72223D01*
X1050006Y72519D01*
X1050136Y72811D01*
X1050273Y73100D01*
X1050273Y73101D02*
X1050312Y73209D01*
X1050355Y73316D01*
X1050401Y73421D01*
X1050452Y73525D01*
X1050505Y73627D01*
X1050562Y73727D01*
X1050623Y73825D01*
X1050687Y73920D01*
X1050754Y74014D01*
X1050825Y74105D01*
X1050898Y74194D01*
X1050975Y74280D01*
X1051054Y74363D01*
X1051136Y74444D01*
X1051221Y74522D01*
X1051309Y74596D01*
X1051399Y74668D01*
X1051491Y74736D01*
X1051586Y74802D01*
X1051683Y74864D01*
X1051782Y74922D01*
X1051884Y74978D01*
X1051986Y75029D01*
X1052091Y75077D01*
X1052197Y75122D01*
X1052305Y75163D01*
X1052414Y75200D01*
X1052524Y75233D01*
X1052636Y75262D01*
X1052748Y75288D01*
X1052861Y75310D01*
X1052975Y75327D01*
X1053089Y75341D01*
X1053204Y75351D01*
X1053319Y75357D01*
X1053434Y75359D01*
X1053434Y75358D02*
X1053549Y75356D01*
X1053664Y75350D01*
X1053779Y75340D01*
X1053893Y75326D01*
X1054007Y75309D01*
X1054120Y75287D01*
X1054232Y75261D01*
X1054344Y75232D01*
X1054454Y75199D01*
X1054563Y75162D01*
X1054671Y75121D01*
X1054777Y75076D01*
X1054882Y75028D01*
X1054984Y74977D01*
X1055085Y74921D01*
X1055185Y74863D01*
X1055282Y74801D01*
X1055376Y74736D01*
X1055469Y74667D01*
X1055559Y74595D01*
X1055647Y74521D01*
X1055732Y74443D01*
X1055814Y74362D01*
X1055893Y74279D01*
X1055970Y74193D01*
X1056043Y74104D01*
X1056114Y74013D01*
X1056181Y73919D01*
X1056245Y73824D01*
X1056306Y73726D01*
X1056363Y73626D01*
X1056416Y73524D01*
X1056467Y73420D01*
X1056513Y73315D01*
X1056556Y73208D01*
X1056595Y73100D01*
X1056594Y73100D02*
X1056731Y72811D01*
X1056861Y72519D01*
X1056984Y72223D01*
X1057099Y71925D01*
X1057208Y71624D01*
X1057309Y71321D01*
X1057403Y71015D01*
X1057490Y70708D01*
X1057569Y70398D01*
X1057641Y70086D01*
X1057705Y69773D01*
X1057762Y69458D01*
X1057812Y69142D01*
X1057854Y68825D01*
X1057888Y68507D01*
X1057915Y68189D01*
X1057934Y67869D01*
X1057945Y67550D01*
X1057949Y67230D01*
X1048918Y67230D02*
X1048922Y66910D01*
X1048933Y66591D01*
X1048952Y66271D01*
X1048979Y65953D01*
X1049013Y65635D01*
X1049055Y65318D01*
X1049105Y65002D01*
X1049162Y64687D01*
X1049226Y64374D01*
X1049298Y64062D01*
X1049377Y63752D01*
X1049464Y63445D01*
X1049558Y63139D01*
X1049659Y62836D01*
X1049768Y62535D01*
X1049883Y62237D01*
X1050006Y61941D01*
X1050136Y61649D01*
X1050273Y61360D01*
X1050312Y61252D01*
X1050355Y61145D01*
X1050401Y61040D01*
X1050452Y60936D01*
X1050505Y60834D01*
X1050562Y60734D01*
X1050623Y60636D01*
X1050687Y60541D01*
X1050754Y60447D01*
X1050825Y60356D01*
X1050898Y60267D01*
X1050975Y60181D01*
X1051054Y60098D01*
X1051136Y60017D01*
X1051221Y59939D01*
X1051309Y59865D01*
X1051399Y59793D01*
X1051492Y59724D01*
X1051586Y59659D01*
X1051683Y59597D01*
X1051783Y59539D01*
X1051884Y59483D01*
X1051986Y59432D01*
X1052091Y59384D01*
X1052197Y59339D01*
X1052305Y59298D01*
X1052414Y59261D01*
X1052524Y59228D01*
X1052636Y59199D01*
X1052748Y59173D01*
X1052861Y59151D01*
X1052975Y59134D01*
X1053089Y59120D01*
X1053204Y59110D01*
X1053319Y59104D01*
X1053434Y59102D01*
X1056594Y61360D02*
X1056731Y61649D01*
X1056861Y61941D01*
X1056984Y62237D01*
X1057099Y62535D01*
X1057208Y62836D01*
X1057309Y63139D01*
X1057403Y63445D01*
X1057490Y63752D01*
X1057569Y64062D01*
X1057641Y64374D01*
X1057705Y64687D01*
X1057762Y65002D01*
X1057812Y65318D01*
X1057854Y65635D01*
X1057888Y65953D01*
X1057915Y66271D01*
X1057934Y66591D01*
X1057945Y66910D01*
X1057949Y67230D01*
X1056595Y61360D02*
X1056556Y61252D01*
X1056513Y61145D01*
X1056467Y61040D01*
X1056416Y60936D01*
X1056363Y60834D01*
X1056306Y60734D01*
X1056245Y60636D01*
X1056181Y60541D01*
X1056114Y60447D01*
X1056043Y60356D01*
X1055970Y60267D01*
X1055893Y60181D01*
X1055814Y60098D01*
X1055732Y60017D01*
X1055647Y59939D01*
X1055559Y59865D01*
X1055469Y59793D01*
X1055376Y59724D01*
X1055282Y59659D01*
X1055185Y59597D01*
X1055085Y59539D01*
X1054984Y59483D01*
X1054881Y59432D01*
X1054777Y59384D01*
X1054671Y59339D01*
X1054563Y59298D01*
X1054454Y59261D01*
X1054344Y59228D01*
X1054232Y59199D01*
X1054120Y59173D01*
X1054007Y59151D01*
X1053893Y59134D01*
X1053779Y59120D01*
X1053664Y59110D01*
X1053549Y59104D01*
X1053434Y59102D01*
X1049821Y62714D02*
X1057046Y71746D01*
X1064549Y71746D02*
X1069065Y75358D01*
X1069065Y59102D01*
X1073580Y59102D02*
X1064549Y59102D01*
X1080181Y62714D02*
X1083793Y75358D01*
X1080181Y62714D02*
X1089212Y62714D01*
X1086502Y59102D02*
X1086502Y66327D01*
X970762Y48688D02*
X970762Y32432D01*
X970762Y41463D02*
X979793Y41463D01*
X979793Y48688D02*
X979793Y32432D01*
X988130Y38754D02*
X992646Y36948D01*
X988130Y38754D02*
X988042Y38791D01*
X987956Y38832D01*
X987871Y38876D01*
X987788Y38924D01*
X987708Y38975D01*
X987629Y39029D01*
X987553Y39087D01*
X987479Y39147D01*
X987407Y39211D01*
X987339Y39277D01*
X987273Y39347D01*
X987210Y39418D01*
X987149Y39493D01*
X987092Y39569D01*
X987039Y39648D01*
X986988Y39729D01*
X986941Y39812D01*
X986897Y39897D01*
X986857Y39984D01*
X986820Y40072D01*
X986787Y40162D01*
X986757Y40253D01*
X986732Y40345D01*
X986710Y40438D01*
X986692Y40532D01*
X986677Y40626D01*
X986667Y40721D01*
X986661Y40817D01*
X986658Y40912D01*
X986659Y41008D01*
X986665Y41103D01*
X986674Y41199D01*
X986687Y41293D01*
X986703Y41387D01*
X986724Y41481D01*
X986749Y41573D01*
X986777Y41664D01*
X986809Y41754D01*
X986844Y41843D01*
X986883Y41930D01*
X986926Y42016D01*
X986972Y42100D01*
X987022Y42181D01*
X987074Y42261D01*
X987130Y42339D01*
X987190Y42414D01*
X987252Y42486D01*
X987317Y42556D01*
X987385Y42624D01*
X987455Y42688D01*
X987528Y42750D01*
X987604Y42808D01*
X987682Y42864D01*
X987762Y42916D01*
X987844Y42965D01*
X987928Y43010D01*
X988014Y43052D01*
X988101Y43091D01*
X988190Y43126D01*
X988281Y43157D01*
X988372Y43184D01*
X988465Y43208D01*
X988558Y43228D01*
X988652Y43244D01*
X988747Y43256D01*
X988842Y43265D01*
X988938Y43269D01*
X989033Y43270D01*
X989280Y43263D01*
X989526Y43251D01*
X989772Y43233D01*
X990018Y43208D01*
X990262Y43178D01*
X990506Y43142D01*
X990749Y43101D01*
X990991Y43053D01*
X991232Y42999D01*
X991471Y42940D01*
X991709Y42875D01*
X991945Y42804D01*
X992180Y42728D01*
X992413Y42646D01*
X992643Y42558D01*
X992871Y42465D01*
X993098Y42367D01*
X992646Y36947D02*
X992734Y36910D01*
X992820Y36869D01*
X992905Y36825D01*
X992988Y36777D01*
X993068Y36726D01*
X993147Y36672D01*
X993223Y36614D01*
X993297Y36554D01*
X993369Y36490D01*
X993437Y36424D01*
X993503Y36354D01*
X993566Y36283D01*
X993627Y36208D01*
X993684Y36132D01*
X993737Y36053D01*
X993788Y35972D01*
X993835Y35889D01*
X993879Y35804D01*
X993919Y35717D01*
X993956Y35629D01*
X993989Y35539D01*
X994019Y35448D01*
X994044Y35356D01*
X994066Y35263D01*
X994084Y35169D01*
X994099Y35075D01*
X994109Y34980D01*
X994115Y34884D01*
X994118Y34789D01*
X994117Y34693D01*
X994111Y34598D01*
X994102Y34502D01*
X994089Y34408D01*
X994073Y34314D01*
X994052Y34220D01*
X994027Y34128D01*
X993999Y34037D01*
X993967Y33947D01*
X993932Y33858D01*
X993893Y33771D01*
X993850Y33685D01*
X993804Y33601D01*
X993754Y33520D01*
X993702Y33440D01*
X993646Y33362D01*
X993586Y33287D01*
X993524Y33215D01*
X993459Y33145D01*
X993391Y33077D01*
X993321Y33013D01*
X993248Y32951D01*
X993172Y32893D01*
X993094Y32837D01*
X993014Y32785D01*
X992932Y32736D01*
X992848Y32691D01*
X992762Y32649D01*
X992675Y32610D01*
X992586Y32575D01*
X992495Y32544D01*
X992404Y32517D01*
X992311Y32493D01*
X992218Y32473D01*
X992124Y32457D01*
X992029Y32445D01*
X991934Y32436D01*
X991838Y32432D01*
X991743Y32431D01*
X991742Y32432D02*
X991380Y32441D01*
X991018Y32459D01*
X990657Y32486D01*
X990297Y32521D01*
X989937Y32564D01*
X989578Y32616D01*
X989221Y32677D01*
X988866Y32746D01*
X988512Y32823D01*
X988160Y32909D01*
X987810Y33003D01*
X987462Y33106D01*
X987117Y33216D01*
X986775Y33335D01*
X1000288Y32432D02*
X1000288Y43269D01*
X999836Y47785D02*
X999836Y48688D01*
X1000739Y48688D01*
X1000739Y47785D01*
X999836Y47785D01*
X1009662Y38754D02*
X1013726Y38754D01*
X1009662Y38754D02*
X1009550Y38752D01*
X1009439Y38746D01*
X1009328Y38736D01*
X1009217Y38723D01*
X1009107Y38705D01*
X1008998Y38683D01*
X1008889Y38658D01*
X1008781Y38629D01*
X1008675Y38596D01*
X1008569Y38559D01*
X1008465Y38519D01*
X1008363Y38475D01*
X1008262Y38427D01*
X1008163Y38376D01*
X1008065Y38321D01*
X1007970Y38263D01*
X1007877Y38202D01*
X1007786Y38137D01*
X1007697Y38069D01*
X1007611Y37998D01*
X1007528Y37925D01*
X1007447Y37848D01*
X1007368Y37768D01*
X1007293Y37686D01*
X1007221Y37601D01*
X1007151Y37514D01*
X1007085Y37424D01*
X1007022Y37332D01*
X1006962Y37237D01*
X1006906Y37141D01*
X1006853Y37043D01*
X1006804Y36943D01*
X1006758Y36841D01*
X1006716Y36738D01*
X1006677Y36633D01*
X1006642Y36527D01*
X1006611Y36420D01*
X1006584Y36312D01*
X1006560Y36203D01*
X1006541Y36093D01*
X1006525Y35983D01*
X1006513Y35872D01*
X1006505Y35760D01*
X1006501Y35649D01*
X1006501Y35537D01*
X1006505Y35426D01*
X1006513Y35314D01*
X1006525Y35203D01*
X1006541Y35093D01*
X1006560Y34983D01*
X1006584Y34874D01*
X1006611Y34766D01*
X1006642Y34659D01*
X1006677Y34553D01*
X1006716Y34448D01*
X1006758Y34345D01*
X1006804Y34243D01*
X1006853Y34143D01*
X1006906Y34045D01*
X1006962Y33949D01*
X1007022Y33854D01*
X1007085Y33762D01*
X1007151Y33672D01*
X1007221Y33585D01*
X1007293Y33500D01*
X1007368Y33418D01*
X1007447Y33338D01*
X1007528Y33261D01*
X1007611Y33188D01*
X1007697Y33117D01*
X1007786Y33049D01*
X1007877Y32984D01*
X1007970Y32923D01*
X1008065Y32865D01*
X1008163Y32810D01*
X1008262Y32759D01*
X1008363Y32711D01*
X1008465Y32667D01*
X1008569Y32627D01*
X1008675Y32590D01*
X1008781Y32557D01*
X1008889Y32528D01*
X1008998Y32503D01*
X1009107Y32481D01*
X1009217Y32463D01*
X1009328Y32450D01*
X1009439Y32440D01*
X1009550Y32434D01*
X1009662Y32432D01*
X1013726Y32432D01*
X1013726Y40560D01*
X1013724Y40661D01*
X1013718Y40762D01*
X1013709Y40863D01*
X1013696Y40964D01*
X1013679Y41064D01*
X1013658Y41163D01*
X1013634Y41261D01*
X1013606Y41358D01*
X1013574Y41455D01*
X1013539Y41550D01*
X1013500Y41643D01*
X1013458Y41735D01*
X1013412Y41826D01*
X1013363Y41915D01*
X1013311Y42001D01*
X1013255Y42086D01*
X1013197Y42169D01*
X1013135Y42249D01*
X1013070Y42327D01*
X1013003Y42403D01*
X1012933Y42476D01*
X1012860Y42546D01*
X1012784Y42613D01*
X1012706Y42678D01*
X1012626Y42740D01*
X1012543Y42798D01*
X1012458Y42854D01*
X1012372Y42906D01*
X1012283Y42955D01*
X1012192Y43001D01*
X1012100Y43043D01*
X1012007Y43082D01*
X1011912Y43117D01*
X1011815Y43149D01*
X1011718Y43177D01*
X1011620Y43201D01*
X1011521Y43222D01*
X1011421Y43239D01*
X1011320Y43252D01*
X1011219Y43261D01*
X1011118Y43267D01*
X1011017Y43269D01*
X1007405Y43269D01*
X1030735Y44624D02*
X1030684Y44711D01*
X1030635Y44800D01*
X1030590Y44890D01*
X1030549Y44982D01*
X1030511Y45076D01*
X1030476Y45171D01*
X1030446Y45267D01*
X1030418Y45364D01*
X1030395Y45462D01*
X1030375Y45562D01*
X1030360Y45661D01*
X1030347Y45762D01*
X1030339Y45862D01*
X1030335Y45963D01*
X1030334Y46064D01*
X1030337Y46165D01*
X1030345Y46266D01*
X1030355Y46366D01*
X1030370Y46466D01*
X1030389Y46566D01*
X1030411Y46664D01*
X1030437Y46762D01*
X1030467Y46858D01*
X1030500Y46954D01*
X1030537Y47048D01*
X1030577Y47140D01*
X1030621Y47231D01*
X1030669Y47320D01*
X1030719Y47408D01*
X1030773Y47493D01*
X1030831Y47576D01*
X1030891Y47657D01*
X1030954Y47736D01*
X1031021Y47812D01*
X1031090Y47886D01*
X1031162Y47957D01*
X1031236Y48025D01*
X1031313Y48090D01*
X1031393Y48152D01*
X1031474Y48212D01*
X1031558Y48268D01*
X1031645Y48321D01*
X1031733Y48370D01*
X1031822Y48416D01*
X1031914Y48459D01*
X1032007Y48498D01*
X1032101Y48534D01*
X1032197Y48566D01*
X1032294Y48595D01*
X1032392Y48619D01*
X1032491Y48640D01*
X1032590Y48657D01*
X1032691Y48671D01*
X1032791Y48680D01*
X1032892Y48686D01*
X1032993Y48688D01*
X1030736Y44624D02*
X1038412Y32432D01*
X1035251Y44624D02*
X1035302Y44711D01*
X1035351Y44800D01*
X1035396Y44890D01*
X1035437Y44982D01*
X1035475Y45076D01*
X1035510Y45171D01*
X1035540Y45267D01*
X1035568Y45364D01*
X1035591Y45462D01*
X1035611Y45562D01*
X1035626Y45661D01*
X1035639Y45762D01*
X1035647Y45862D01*
X1035651Y45963D01*
X1035652Y46064D01*
X1035649Y46165D01*
X1035641Y46266D01*
X1035631Y46366D01*
X1035616Y46466D01*
X1035597Y46566D01*
X1035575Y46664D01*
X1035549Y46762D01*
X1035519Y46858D01*
X1035486Y46954D01*
X1035449Y47048D01*
X1035409Y47140D01*
X1035365Y47231D01*
X1035317Y47320D01*
X1035267Y47408D01*
X1035213Y47493D01*
X1035155Y47576D01*
X1035095Y47657D01*
X1035032Y47736D01*
X1034965Y47812D01*
X1034896Y47886D01*
X1034824Y47957D01*
X1034750Y48025D01*
X1034673Y48090D01*
X1034593Y48152D01*
X1034512Y48212D01*
X1034428Y48268D01*
X1034341Y48321D01*
X1034253Y48370D01*
X1034164Y48416D01*
X1034072Y48459D01*
X1033979Y48498D01*
X1033885Y48534D01*
X1033789Y48566D01*
X1033692Y48595D01*
X1033594Y48619D01*
X1033495Y48640D01*
X1033396Y48657D01*
X1033295Y48671D01*
X1033195Y48680D01*
X1033094Y48686D01*
X1032993Y48688D01*
X1029381Y35141D02*
X1029383Y35040D01*
X1029389Y34939D01*
X1029398Y34838D01*
X1029411Y34737D01*
X1029428Y34637D01*
X1029449Y34538D01*
X1029473Y34440D01*
X1029501Y34343D01*
X1029533Y34246D01*
X1029568Y34151D01*
X1029607Y34058D01*
X1029649Y33966D01*
X1029695Y33875D01*
X1029744Y33786D01*
X1029796Y33700D01*
X1029852Y33615D01*
X1029910Y33532D01*
X1029972Y33452D01*
X1030037Y33374D01*
X1030104Y33298D01*
X1030174Y33225D01*
X1030247Y33155D01*
X1030323Y33088D01*
X1030401Y33023D01*
X1030481Y32961D01*
X1030564Y32903D01*
X1030649Y32847D01*
X1030736Y32795D01*
X1030824Y32746D01*
X1030915Y32700D01*
X1031007Y32658D01*
X1031100Y32619D01*
X1031195Y32584D01*
X1031292Y32552D01*
X1031389Y32524D01*
X1031487Y32500D01*
X1031586Y32479D01*
X1031686Y32462D01*
X1031787Y32449D01*
X1031888Y32440D01*
X1031989Y32434D01*
X1032090Y32432D01*
X1029381Y35141D02*
X1029383Y35232D01*
X1029388Y35322D01*
X1029397Y35413D01*
X1029410Y35503D01*
X1029426Y35592D01*
X1029446Y35681D01*
X1029470Y35768D01*
X1029497Y35855D01*
X1029527Y35941D01*
X1029561Y36025D01*
X1029598Y36108D01*
X1029639Y36189D01*
X1029683Y36268D01*
X1029730Y36346D01*
X1029780Y36422D01*
X1029833Y36496D01*
X1035251Y44624D01*
X1033445Y32884D02*
X1033371Y32831D01*
X1033295Y32781D01*
X1033217Y32734D01*
X1033138Y32690D01*
X1033057Y32649D01*
X1032974Y32612D01*
X1032890Y32578D01*
X1032804Y32548D01*
X1032717Y32521D01*
X1032630Y32497D01*
X1032541Y32477D01*
X1032452Y32461D01*
X1032362Y32448D01*
X1032271Y32439D01*
X1032181Y32434D01*
X1032090Y32432D01*
X1033445Y32884D02*
X1040218Y37851D01*
X1052461Y48688D02*
X1056074Y32432D01*
X1059686Y43269D01*
X1063299Y32432D01*
X1066911Y48688D01*
X1075835Y38754D02*
X1079899Y38754D01*
X1075835Y38754D02*
X1075723Y38752D01*
X1075612Y38746D01*
X1075501Y38736D01*
X1075390Y38723D01*
X1075280Y38705D01*
X1075171Y38683D01*
X1075062Y38658D01*
X1074954Y38629D01*
X1074848Y38596D01*
X1074742Y38559D01*
X1074638Y38519D01*
X1074536Y38475D01*
X1074435Y38427D01*
X1074336Y38376D01*
X1074238Y38321D01*
X1074143Y38263D01*
X1074050Y38202D01*
X1073959Y38137D01*
X1073870Y38069D01*
X1073784Y37998D01*
X1073701Y37925D01*
X1073620Y37848D01*
X1073541Y37768D01*
X1073466Y37686D01*
X1073394Y37601D01*
X1073324Y37514D01*
X1073258Y37424D01*
X1073195Y37332D01*
X1073135Y37237D01*
X1073079Y37141D01*
X1073026Y37043D01*
X1072977Y36943D01*
X1072931Y36841D01*
X1072889Y36738D01*
X1072850Y36633D01*
X1072815Y36527D01*
X1072784Y36420D01*
X1072757Y36312D01*
X1072733Y36203D01*
X1072714Y36093D01*
X1072698Y35983D01*
X1072686Y35872D01*
X1072678Y35760D01*
X1072674Y35649D01*
X1072674Y35537D01*
X1072678Y35426D01*
X1072686Y35314D01*
X1072698Y35203D01*
X1072714Y35093D01*
X1072733Y34983D01*
X1072757Y34874D01*
X1072784Y34766D01*
X1072815Y34659D01*
X1072850Y34553D01*
X1072889Y34448D01*
X1072931Y34345D01*
X1072977Y34243D01*
X1073026Y34143D01*
X1073079Y34045D01*
X1073135Y33949D01*
X1073195Y33854D01*
X1073258Y33762D01*
X1073324Y33672D01*
X1073394Y33585D01*
X1073466Y33500D01*
X1073541Y33418D01*
X1073620Y33338D01*
X1073701Y33261D01*
X1073784Y33188D01*
X1073870Y33117D01*
X1073959Y33049D01*
X1074050Y32984D01*
X1074143Y32923D01*
X1074238Y32865D01*
X1074336Y32810D01*
X1074435Y32759D01*
X1074536Y32711D01*
X1074638Y32667D01*
X1074742Y32627D01*
X1074848Y32590D01*
X1074954Y32557D01*
X1075062Y32528D01*
X1075171Y32503D01*
X1075280Y32481D01*
X1075390Y32463D01*
X1075501Y32450D01*
X1075612Y32440D01*
X1075723Y32434D01*
X1075835Y32432D01*
X1079899Y32432D01*
X1079899Y40560D01*
X1079898Y40560D02*
X1079896Y40661D01*
X1079890Y40762D01*
X1079881Y40863D01*
X1079868Y40964D01*
X1079851Y41064D01*
X1079830Y41163D01*
X1079806Y41261D01*
X1079778Y41358D01*
X1079746Y41455D01*
X1079711Y41550D01*
X1079672Y41643D01*
X1079630Y41735D01*
X1079584Y41826D01*
X1079535Y41915D01*
X1079483Y42001D01*
X1079427Y42086D01*
X1079369Y42169D01*
X1079307Y42249D01*
X1079242Y42327D01*
X1079175Y42403D01*
X1079105Y42476D01*
X1079032Y42546D01*
X1078956Y42613D01*
X1078878Y42678D01*
X1078798Y42740D01*
X1078715Y42798D01*
X1078630Y42854D01*
X1078544Y42906D01*
X1078455Y42955D01*
X1078364Y43001D01*
X1078272Y43043D01*
X1078179Y43082D01*
X1078084Y43117D01*
X1077987Y43149D01*
X1077890Y43177D01*
X1077792Y43201D01*
X1077693Y43222D01*
X1077593Y43239D01*
X1077492Y43252D01*
X1077391Y43261D01*
X1077290Y43267D01*
X1077189Y43269D01*
X1073577Y43269D01*
X1087421Y43269D02*
X1087421Y32432D01*
X1087421Y43269D02*
X1092840Y43269D01*
X1092840Y41463D01*
X1098363Y43269D02*
X1098363Y32432D01*
X1098363Y43269D02*
X1103781Y43269D01*
X1103781Y41463D01*
X1111408Y32432D02*
X1115924Y32432D01*
X1111408Y32432D02*
X1111307Y32434D01*
X1111206Y32440D01*
X1111105Y32449D01*
X1111004Y32462D01*
X1110904Y32479D01*
X1110805Y32500D01*
X1110707Y32524D01*
X1110610Y32552D01*
X1110513Y32584D01*
X1110418Y32619D01*
X1110325Y32658D01*
X1110233Y32700D01*
X1110142Y32746D01*
X1110054Y32795D01*
X1109967Y32847D01*
X1109882Y32903D01*
X1109799Y32961D01*
X1109719Y33023D01*
X1109641Y33088D01*
X1109565Y33155D01*
X1109492Y33225D01*
X1109422Y33298D01*
X1109355Y33374D01*
X1109290Y33452D01*
X1109228Y33532D01*
X1109170Y33615D01*
X1109114Y33700D01*
X1109062Y33786D01*
X1109013Y33875D01*
X1108967Y33966D01*
X1108925Y34058D01*
X1108886Y34151D01*
X1108851Y34246D01*
X1108819Y34343D01*
X1108791Y34440D01*
X1108767Y34538D01*
X1108746Y34637D01*
X1108729Y34737D01*
X1108716Y34838D01*
X1108707Y34939D01*
X1108701Y35040D01*
X1108699Y35141D01*
X1108699Y39657D01*
X1108701Y39776D01*
X1108707Y39896D01*
X1108717Y40015D01*
X1108731Y40133D01*
X1108748Y40252D01*
X1108770Y40369D01*
X1108795Y40486D01*
X1108825Y40601D01*
X1108858Y40716D01*
X1108895Y40830D01*
X1108935Y40942D01*
X1108980Y41053D01*
X1109028Y41162D01*
X1109079Y41270D01*
X1109134Y41376D01*
X1109193Y41480D01*
X1109255Y41582D01*
X1109320Y41682D01*
X1109389Y41780D01*
X1109461Y41876D01*
X1109536Y41969D01*
X1109613Y42059D01*
X1109694Y42147D01*
X1109778Y42232D01*
X1109865Y42314D01*
X1109954Y42394D01*
X1110046Y42470D01*
X1110140Y42544D01*
X1110237Y42614D01*
X1110335Y42681D01*
X1110436Y42745D01*
X1110540Y42805D01*
X1110645Y42862D01*
X1110752Y42915D01*
X1110860Y42965D01*
X1110970Y43011D01*
X1111082Y43053D01*
X1111195Y43092D01*
X1111309Y43127D01*
X1111424Y43158D01*
X1111541Y43186D01*
X1111658Y43209D01*
X1111775Y43229D01*
X1111894Y43245D01*
X1112013Y43257D01*
X1112132Y43265D01*
X1112251Y43269D01*
X1112371Y43269D01*
X1112490Y43265D01*
X1112609Y43257D01*
X1112728Y43245D01*
X1112847Y43229D01*
X1112964Y43209D01*
X1113081Y43186D01*
X1113198Y43158D01*
X1113313Y43127D01*
X1113427Y43092D01*
X1113540Y43053D01*
X1113652Y43011D01*
X1113762Y42965D01*
X1113870Y42915D01*
X1113977Y42862D01*
X1114082Y42805D01*
X1114186Y42745D01*
X1114287Y42681D01*
X1114385Y42614D01*
X1114482Y42544D01*
X1114576Y42470D01*
X1114668Y42394D01*
X1114757Y42314D01*
X1114844Y42232D01*
X1114928Y42147D01*
X1115009Y42059D01*
X1115086Y41969D01*
X1115161Y41876D01*
X1115233Y41780D01*
X1115302Y41682D01*
X1115367Y41582D01*
X1115429Y41480D01*
X1115488Y41376D01*
X1115543Y41270D01*
X1115594Y41162D01*
X1115642Y41053D01*
X1115687Y40942D01*
X1115727Y40830D01*
X1115764Y40716D01*
X1115797Y40601D01*
X1115827Y40486D01*
X1115852Y40369D01*
X1115874Y40252D01*
X1115891Y40133D01*
X1115905Y40015D01*
X1115915Y39896D01*
X1115921Y39776D01*
X1115923Y39657D01*
X1115924Y39657D02*
X1115924Y37851D01*
X1108699Y37851D01*
X1122767Y32432D02*
X1122767Y43269D01*
X1127282Y43269D01*
X1127386Y43267D01*
X1127489Y43261D01*
X1127593Y43251D01*
X1127696Y43237D01*
X1127798Y43219D01*
X1127899Y43198D01*
X1128000Y43172D01*
X1128099Y43143D01*
X1128198Y43110D01*
X1128295Y43073D01*
X1128390Y43032D01*
X1128484Y42988D01*
X1128576Y42940D01*
X1128666Y42889D01*
X1128755Y42834D01*
X1128841Y42776D01*
X1128924Y42714D01*
X1129006Y42650D01*
X1129084Y42582D01*
X1129160Y42512D01*
X1129234Y42439D01*
X1129304Y42362D01*
X1129372Y42284D01*
X1129436Y42202D01*
X1129498Y42119D01*
X1129556Y42033D01*
X1129611Y41944D01*
X1129662Y41854D01*
X1129710Y41762D01*
X1129754Y41668D01*
X1129795Y41573D01*
X1129832Y41476D01*
X1129865Y41377D01*
X1129894Y41278D01*
X1129920Y41177D01*
X1129941Y41076D01*
X1129959Y40974D01*
X1129973Y40871D01*
X1129983Y40767D01*
X1129989Y40664D01*
X1129991Y40560D01*
X1129992Y40560D02*
X1129992Y32432D01*
X975278Y22018D02*
X970762Y18406D01*
X975278Y22018D02*
X975278Y5762D01*
X979793Y5762D02*
X970762Y5762D01*
X986393Y13890D02*
X986397Y14210D01*
X986408Y14529D01*
X986427Y14849D01*
X986454Y15167D01*
X986488Y15485D01*
X986530Y15802D01*
X986580Y16118D01*
X986637Y16433D01*
X986701Y16746D01*
X986773Y17058D01*
X986852Y17368D01*
X986939Y17675D01*
X987033Y17981D01*
X987134Y18284D01*
X987243Y18585D01*
X987358Y18883D01*
X987481Y19179D01*
X987611Y19471D01*
X987748Y19760D01*
X987748Y19761D02*
X987787Y19869D01*
X987830Y19976D01*
X987876Y20081D01*
X987927Y20185D01*
X987980Y20287D01*
X988037Y20387D01*
X988098Y20485D01*
X988162Y20580D01*
X988229Y20674D01*
X988300Y20765D01*
X988373Y20854D01*
X988450Y20940D01*
X988529Y21023D01*
X988611Y21104D01*
X988696Y21182D01*
X988784Y21256D01*
X988874Y21328D01*
X988966Y21396D01*
X989061Y21462D01*
X989158Y21524D01*
X989257Y21582D01*
X989359Y21638D01*
X989461Y21689D01*
X989566Y21737D01*
X989672Y21782D01*
X989780Y21823D01*
X989889Y21860D01*
X989999Y21893D01*
X990111Y21922D01*
X990223Y21948D01*
X990336Y21970D01*
X990450Y21987D01*
X990564Y22001D01*
X990679Y22011D01*
X990794Y22017D01*
X990909Y22019D01*
X990909Y22018D02*
X991024Y22016D01*
X991139Y22010D01*
X991254Y22000D01*
X991368Y21986D01*
X991482Y21969D01*
X991595Y21947D01*
X991707Y21921D01*
X991819Y21892D01*
X991929Y21859D01*
X992038Y21822D01*
X992146Y21781D01*
X992252Y21736D01*
X992357Y21688D01*
X992459Y21637D01*
X992560Y21581D01*
X992660Y21523D01*
X992757Y21461D01*
X992851Y21396D01*
X992944Y21327D01*
X993034Y21255D01*
X993122Y21181D01*
X993207Y21103D01*
X993289Y21022D01*
X993368Y20939D01*
X993445Y20853D01*
X993518Y20764D01*
X993589Y20673D01*
X993656Y20579D01*
X993720Y20484D01*
X993781Y20386D01*
X993838Y20286D01*
X993891Y20184D01*
X993942Y20080D01*
X993988Y19975D01*
X994031Y19868D01*
X994070Y19760D01*
X994069Y19760D02*
X994206Y19471D01*
X994336Y19179D01*
X994459Y18883D01*
X994574Y18585D01*
X994683Y18284D01*
X994784Y17981D01*
X994878Y17675D01*
X994965Y17368D01*
X995044Y17058D01*
X995116Y16746D01*
X995180Y16433D01*
X995237Y16118D01*
X995287Y15802D01*
X995329Y15485D01*
X995363Y15167D01*
X995390Y14849D01*
X995409Y14529D01*
X995420Y14210D01*
X995424Y13890D01*
X986394Y13890D02*
X986398Y13570D01*
X986409Y13251D01*
X986428Y12931D01*
X986455Y12613D01*
X986489Y12295D01*
X986531Y11978D01*
X986581Y11662D01*
X986638Y11347D01*
X986702Y11034D01*
X986774Y10722D01*
X986853Y10412D01*
X986940Y10105D01*
X987034Y9799D01*
X987135Y9496D01*
X987244Y9195D01*
X987359Y8897D01*
X987482Y8601D01*
X987612Y8309D01*
X987749Y8020D01*
X987748Y8020D02*
X987787Y7912D01*
X987830Y7805D01*
X987876Y7700D01*
X987927Y7596D01*
X987980Y7494D01*
X988037Y7394D01*
X988098Y7296D01*
X988162Y7201D01*
X988229Y7107D01*
X988300Y7016D01*
X988373Y6927D01*
X988450Y6841D01*
X988529Y6758D01*
X988611Y6677D01*
X988696Y6599D01*
X988784Y6525D01*
X988874Y6453D01*
X988967Y6384D01*
X989061Y6319D01*
X989158Y6257D01*
X989258Y6199D01*
X989359Y6143D01*
X989461Y6092D01*
X989566Y6044D01*
X989672Y5999D01*
X989780Y5958D01*
X989889Y5921D01*
X989999Y5888D01*
X990111Y5859D01*
X990223Y5833D01*
X990336Y5811D01*
X990450Y5794D01*
X990564Y5780D01*
X990679Y5770D01*
X990794Y5764D01*
X990909Y5762D01*
X994069Y8020D02*
X994206Y8309D01*
X994336Y8601D01*
X994459Y8897D01*
X994574Y9195D01*
X994683Y9496D01*
X994784Y9799D01*
X994878Y10105D01*
X994965Y10412D01*
X995044Y10722D01*
X995116Y11034D01*
X995180Y11347D01*
X995237Y11662D01*
X995287Y11978D01*
X995329Y12295D01*
X995363Y12613D01*
X995390Y12931D01*
X995409Y13251D01*
X995420Y13570D01*
X995424Y13890D01*
X994070Y8020D02*
X994031Y7912D01*
X993988Y7805D01*
X993942Y7700D01*
X993891Y7596D01*
X993838Y7494D01*
X993781Y7394D01*
X993720Y7296D01*
X993656Y7201D01*
X993589Y7107D01*
X993518Y7016D01*
X993445Y6927D01*
X993368Y6841D01*
X993289Y6758D01*
X993207Y6677D01*
X993122Y6599D01*
X993034Y6525D01*
X992944Y6453D01*
X992851Y6384D01*
X992757Y6319D01*
X992660Y6257D01*
X992560Y6199D01*
X992459Y6143D01*
X992356Y6092D01*
X992252Y6044D01*
X992146Y5999D01*
X992038Y5958D01*
X991929Y5921D01*
X991819Y5888D01*
X991707Y5859D01*
X991595Y5833D01*
X991482Y5811D01*
X991368Y5794D01*
X991254Y5780D01*
X991139Y5770D01*
X991024Y5764D01*
X990909Y5762D01*
X987296Y9374D02*
X994521Y18406D01*
X1002025Y13890D02*
X1002029Y14210D01*
X1002040Y14529D01*
X1002059Y14849D01*
X1002086Y15167D01*
X1002120Y15485D01*
X1002162Y15802D01*
X1002212Y16118D01*
X1002269Y16433D01*
X1002333Y16746D01*
X1002405Y17058D01*
X1002484Y17368D01*
X1002571Y17675D01*
X1002665Y17981D01*
X1002766Y18284D01*
X1002875Y18585D01*
X1002990Y18883D01*
X1003113Y19179D01*
X1003243Y19471D01*
X1003380Y19760D01*
X1003379Y19761D02*
X1003418Y19869D01*
X1003461Y19976D01*
X1003507Y20081D01*
X1003558Y20185D01*
X1003611Y20287D01*
X1003668Y20387D01*
X1003729Y20485D01*
X1003793Y20580D01*
X1003860Y20674D01*
X1003931Y20765D01*
X1004004Y20854D01*
X1004081Y20940D01*
X1004160Y21023D01*
X1004242Y21104D01*
X1004327Y21182D01*
X1004415Y21256D01*
X1004505Y21328D01*
X1004597Y21396D01*
X1004692Y21462D01*
X1004789Y21524D01*
X1004888Y21582D01*
X1004990Y21638D01*
X1005092Y21689D01*
X1005197Y21737D01*
X1005303Y21782D01*
X1005411Y21823D01*
X1005520Y21860D01*
X1005630Y21893D01*
X1005742Y21922D01*
X1005854Y21948D01*
X1005967Y21970D01*
X1006081Y21987D01*
X1006195Y22001D01*
X1006310Y22011D01*
X1006425Y22017D01*
X1006540Y22019D01*
X1006540Y22018D02*
X1006655Y22016D01*
X1006770Y22010D01*
X1006885Y22000D01*
X1006999Y21986D01*
X1007113Y21969D01*
X1007226Y21947D01*
X1007338Y21921D01*
X1007450Y21892D01*
X1007560Y21859D01*
X1007669Y21822D01*
X1007777Y21781D01*
X1007883Y21736D01*
X1007988Y21688D01*
X1008090Y21637D01*
X1008191Y21581D01*
X1008291Y21523D01*
X1008388Y21461D01*
X1008482Y21396D01*
X1008575Y21327D01*
X1008665Y21255D01*
X1008753Y21181D01*
X1008838Y21103D01*
X1008920Y21022D01*
X1008999Y20939D01*
X1009076Y20853D01*
X1009149Y20764D01*
X1009220Y20673D01*
X1009287Y20579D01*
X1009351Y20484D01*
X1009412Y20386D01*
X1009469Y20286D01*
X1009522Y20184D01*
X1009573Y20080D01*
X1009619Y19975D01*
X1009662Y19868D01*
X1009701Y19760D01*
X1009700Y19760D02*
X1009837Y19471D01*
X1009967Y19179D01*
X1010090Y18883D01*
X1010205Y18585D01*
X1010314Y18284D01*
X1010415Y17981D01*
X1010509Y17675D01*
X1010596Y17368D01*
X1010675Y17058D01*
X1010747Y16746D01*
X1010811Y16433D01*
X1010868Y16118D01*
X1010918Y15802D01*
X1010960Y15485D01*
X1010994Y15167D01*
X1011021Y14849D01*
X1011040Y14529D01*
X1011051Y14210D01*
X1011055Y13890D01*
X1002025Y13890D02*
X1002029Y13570D01*
X1002040Y13251D01*
X1002059Y12931D01*
X1002086Y12613D01*
X1002120Y12295D01*
X1002162Y11978D01*
X1002212Y11662D01*
X1002269Y11347D01*
X1002333Y11034D01*
X1002405Y10722D01*
X1002484Y10412D01*
X1002571Y10105D01*
X1002665Y9799D01*
X1002766Y9496D01*
X1002875Y9195D01*
X1002990Y8897D01*
X1003113Y8601D01*
X1003243Y8309D01*
X1003380Y8020D01*
X1003379Y8020D02*
X1003418Y7912D01*
X1003461Y7805D01*
X1003507Y7700D01*
X1003558Y7596D01*
X1003611Y7494D01*
X1003668Y7394D01*
X1003729Y7296D01*
X1003793Y7201D01*
X1003860Y7107D01*
X1003931Y7016D01*
X1004004Y6927D01*
X1004081Y6841D01*
X1004160Y6758D01*
X1004242Y6677D01*
X1004327Y6599D01*
X1004415Y6525D01*
X1004505Y6453D01*
X1004598Y6384D01*
X1004692Y6319D01*
X1004789Y6257D01*
X1004889Y6199D01*
X1004990Y6143D01*
X1005092Y6092D01*
X1005197Y6044D01*
X1005303Y5999D01*
X1005411Y5958D01*
X1005520Y5921D01*
X1005630Y5888D01*
X1005742Y5859D01*
X1005854Y5833D01*
X1005967Y5811D01*
X1006081Y5794D01*
X1006195Y5780D01*
X1006310Y5770D01*
X1006425Y5764D01*
X1006540Y5762D01*
X1009700Y8020D02*
X1009837Y8309D01*
X1009967Y8601D01*
X1010090Y8897D01*
X1010205Y9195D01*
X1010314Y9496D01*
X1010415Y9799D01*
X1010509Y10105D01*
X1010596Y10412D01*
X1010675Y10722D01*
X1010747Y11034D01*
X1010811Y11347D01*
X1010868Y11662D01*
X1010918Y11978D01*
X1010960Y12295D01*
X1010994Y12613D01*
X1011021Y12931D01*
X1011040Y13251D01*
X1011051Y13570D01*
X1011055Y13890D01*
X1009701Y8020D02*
X1009662Y7912D01*
X1009619Y7805D01*
X1009573Y7700D01*
X1009522Y7596D01*
X1009469Y7494D01*
X1009412Y7394D01*
X1009351Y7296D01*
X1009287Y7201D01*
X1009220Y7107D01*
X1009149Y7016D01*
X1009076Y6927D01*
X1008999Y6841D01*
X1008920Y6758D01*
X1008838Y6677D01*
X1008753Y6599D01*
X1008665Y6525D01*
X1008575Y6453D01*
X1008482Y6384D01*
X1008388Y6319D01*
X1008291Y6257D01*
X1008191Y6199D01*
X1008090Y6143D01*
X1007987Y6092D01*
X1007883Y6044D01*
X1007777Y5999D01*
X1007669Y5958D01*
X1007560Y5921D01*
X1007450Y5888D01*
X1007338Y5859D01*
X1007226Y5833D01*
X1007113Y5811D01*
X1006999Y5794D01*
X1006885Y5780D01*
X1006770Y5770D01*
X1006655Y5764D01*
X1006540Y5762D01*
X1002928Y9374D02*
X1010152Y18406D01*
X1026374Y16599D02*
X1026374Y8471D01*
X1026375Y8471D02*
X1026377Y8370D01*
X1026383Y8269D01*
X1026392Y8168D01*
X1026405Y8067D01*
X1026422Y7967D01*
X1026443Y7868D01*
X1026467Y7770D01*
X1026495Y7673D01*
X1026527Y7576D01*
X1026562Y7481D01*
X1026601Y7388D01*
X1026643Y7296D01*
X1026689Y7205D01*
X1026738Y7116D01*
X1026790Y7030D01*
X1026846Y6945D01*
X1026904Y6862D01*
X1026966Y6782D01*
X1027031Y6704D01*
X1027098Y6628D01*
X1027168Y6555D01*
X1027241Y6485D01*
X1027317Y6418D01*
X1027395Y6353D01*
X1027475Y6291D01*
X1027558Y6233D01*
X1027643Y6177D01*
X1027730Y6125D01*
X1027818Y6076D01*
X1027909Y6030D01*
X1028001Y5988D01*
X1028094Y5949D01*
X1028189Y5914D01*
X1028286Y5882D01*
X1028383Y5854D01*
X1028481Y5830D01*
X1028580Y5809D01*
X1028680Y5792D01*
X1028781Y5779D01*
X1028882Y5770D01*
X1028983Y5764D01*
X1029084Y5762D01*
X1033599Y5762D01*
X1033599Y16599D01*
X1040963Y16599D02*
X1040963Y5762D01*
X1040963Y16599D02*
X1045479Y16599D01*
X1045583Y16597D01*
X1045686Y16591D01*
X1045790Y16581D01*
X1045893Y16567D01*
X1045995Y16549D01*
X1046096Y16528D01*
X1046197Y16502D01*
X1046296Y16473D01*
X1046395Y16440D01*
X1046492Y16403D01*
X1046587Y16362D01*
X1046681Y16318D01*
X1046773Y16270D01*
X1046863Y16219D01*
X1046952Y16164D01*
X1047038Y16106D01*
X1047121Y16044D01*
X1047203Y15980D01*
X1047281Y15912D01*
X1047357Y15842D01*
X1047431Y15769D01*
X1047501Y15692D01*
X1047569Y15614D01*
X1047633Y15532D01*
X1047695Y15449D01*
X1047753Y15363D01*
X1047808Y15274D01*
X1047859Y15184D01*
X1047907Y15092D01*
X1047951Y14998D01*
X1047992Y14903D01*
X1048029Y14806D01*
X1048062Y14707D01*
X1048091Y14608D01*
X1048117Y14507D01*
X1048138Y14406D01*
X1048156Y14304D01*
X1048170Y14201D01*
X1048180Y14097D01*
X1048186Y13994D01*
X1048188Y13890D01*
X1048188Y5762D01*
X1054997Y5762D02*
X1054997Y16599D01*
X1054545Y21115D02*
X1054545Y22018D01*
X1055448Y22018D01*
X1055448Y21115D01*
X1054545Y21115D01*
X1059987Y16599D02*
X1065405Y16599D01*
X1061793Y22018D02*
X1061793Y8471D01*
X1061795Y8370D01*
X1061801Y8269D01*
X1061810Y8168D01*
X1061823Y8067D01*
X1061840Y7967D01*
X1061861Y7868D01*
X1061885Y7770D01*
X1061913Y7673D01*
X1061945Y7576D01*
X1061980Y7481D01*
X1062019Y7388D01*
X1062061Y7296D01*
X1062107Y7205D01*
X1062156Y7116D01*
X1062208Y7030D01*
X1062264Y6945D01*
X1062322Y6862D01*
X1062384Y6782D01*
X1062449Y6704D01*
X1062516Y6628D01*
X1062586Y6555D01*
X1062659Y6485D01*
X1062735Y6418D01*
X1062813Y6353D01*
X1062893Y6291D01*
X1062976Y6233D01*
X1063061Y6177D01*
X1063148Y6125D01*
X1063236Y6076D01*
X1063327Y6030D01*
X1063419Y5988D01*
X1063512Y5949D01*
X1063607Y5914D01*
X1063704Y5882D01*
X1063801Y5854D01*
X1063899Y5830D01*
X1063998Y5809D01*
X1064098Y5792D01*
X1064199Y5779D01*
X1064300Y5770D01*
X1064401Y5764D01*
X1064502Y5762D01*
X1065405Y5762D01*
X1072538Y12084D02*
X1077054Y10278D01*
X1072538Y12084D02*
X1072450Y12121D01*
X1072364Y12162D01*
X1072279Y12206D01*
X1072196Y12254D01*
X1072116Y12305D01*
X1072037Y12359D01*
X1071961Y12417D01*
X1071887Y12477D01*
X1071815Y12541D01*
X1071747Y12607D01*
X1071681Y12677D01*
X1071618Y12748D01*
X1071557Y12823D01*
X1071500Y12899D01*
X1071447Y12978D01*
X1071396Y13059D01*
X1071349Y13142D01*
X1071305Y13227D01*
X1071265Y13314D01*
X1071228Y13402D01*
X1071195Y13492D01*
X1071165Y13583D01*
X1071140Y13675D01*
X1071118Y13768D01*
X1071100Y13862D01*
X1071085Y13956D01*
X1071075Y14051D01*
X1071069Y14147D01*
X1071066Y14242D01*
X1071067Y14338D01*
X1071073Y14433D01*
X1071082Y14529D01*
X1071095Y14623D01*
X1071111Y14717D01*
X1071132Y14811D01*
X1071157Y14903D01*
X1071185Y14994D01*
X1071217Y15084D01*
X1071252Y15173D01*
X1071291Y15260D01*
X1071334Y15346D01*
X1071380Y15430D01*
X1071430Y15511D01*
X1071482Y15591D01*
X1071538Y15669D01*
X1071598Y15744D01*
X1071660Y15816D01*
X1071725Y15886D01*
X1071793Y15954D01*
X1071863Y16018D01*
X1071936Y16080D01*
X1072012Y16138D01*
X1072090Y16194D01*
X1072170Y16246D01*
X1072252Y16295D01*
X1072336Y16340D01*
X1072422Y16382D01*
X1072509Y16421D01*
X1072598Y16456D01*
X1072689Y16487D01*
X1072780Y16514D01*
X1072873Y16538D01*
X1072966Y16558D01*
X1073060Y16574D01*
X1073155Y16586D01*
X1073250Y16595D01*
X1073346Y16599D01*
X1073441Y16600D01*
X1073688Y16593D01*
X1073934Y16581D01*
X1074180Y16563D01*
X1074426Y16538D01*
X1074670Y16508D01*
X1074914Y16472D01*
X1075157Y16431D01*
X1075399Y16383D01*
X1075640Y16329D01*
X1075879Y16270D01*
X1076117Y16205D01*
X1076353Y16134D01*
X1076588Y16058D01*
X1076821Y15976D01*
X1077051Y15888D01*
X1077279Y15795D01*
X1077506Y15697D01*
X1077054Y10277D02*
X1077142Y10240D01*
X1077228Y10199D01*
X1077313Y10155D01*
X1077396Y10107D01*
X1077476Y10056D01*
X1077555Y10002D01*
X1077631Y9944D01*
X1077705Y9884D01*
X1077777Y9820D01*
X1077845Y9754D01*
X1077911Y9684D01*
X1077974Y9613D01*
X1078035Y9538D01*
X1078092Y9462D01*
X1078145Y9383D01*
X1078196Y9302D01*
X1078243Y9219D01*
X1078287Y9134D01*
X1078327Y9047D01*
X1078364Y8959D01*
X1078397Y8869D01*
X1078427Y8778D01*
X1078452Y8686D01*
X1078474Y8593D01*
X1078492Y8499D01*
X1078507Y8405D01*
X1078517Y8310D01*
X1078523Y8214D01*
X1078526Y8119D01*
X1078525Y8023D01*
X1078519Y7928D01*
X1078510Y7832D01*
X1078497Y7738D01*
X1078481Y7644D01*
X1078460Y7550D01*
X1078435Y7458D01*
X1078407Y7367D01*
X1078375Y7277D01*
X1078340Y7188D01*
X1078301Y7101D01*
X1078258Y7015D01*
X1078212Y6931D01*
X1078162Y6850D01*
X1078110Y6770D01*
X1078054Y6692D01*
X1077994Y6617D01*
X1077932Y6545D01*
X1077867Y6475D01*
X1077799Y6407D01*
X1077729Y6343D01*
X1077656Y6281D01*
X1077580Y6223D01*
X1077502Y6167D01*
X1077422Y6115D01*
X1077340Y6066D01*
X1077256Y6021D01*
X1077170Y5979D01*
X1077083Y5940D01*
X1076994Y5905D01*
X1076903Y5874D01*
X1076812Y5847D01*
X1076719Y5823D01*
X1076626Y5803D01*
X1076532Y5787D01*
X1076437Y5775D01*
X1076342Y5766D01*
X1076246Y5762D01*
X1076151Y5761D01*
X1076151Y5762D02*
X1075789Y5771D01*
X1075427Y5789D01*
X1075066Y5816D01*
X1074706Y5851D01*
X1074346Y5894D01*
X1073987Y5946D01*
X1073630Y6007D01*
X1073275Y6076D01*
X1072921Y6153D01*
X1072569Y6239D01*
X1072219Y6333D01*
X1071871Y6436D01*
X1071526Y6546D01*
X1071184Y6665D01*
X1093866Y5762D02*
X1093866Y22018D01*
X1099285Y12987D01*
X1104704Y22018D01*
X1104704Y5762D01*
X1111964Y10278D02*
X1111964Y17502D01*
X1111963Y17502D02*
X1111965Y17635D01*
X1111971Y17767D01*
X1111981Y17899D01*
X1111994Y18031D01*
X1112012Y18163D01*
X1112033Y18293D01*
X1112058Y18424D01*
X1112087Y18553D01*
X1112120Y18681D01*
X1112156Y18809D01*
X1112196Y18935D01*
X1112240Y19060D01*
X1112288Y19184D01*
X1112339Y19306D01*
X1112394Y19427D01*
X1112452Y19546D01*
X1112514Y19664D01*
X1112579Y19779D01*
X1112648Y19893D01*
X1112719Y20004D01*
X1112795Y20113D01*
X1112873Y20220D01*
X1112954Y20325D01*
X1113039Y20427D01*
X1113126Y20527D01*
X1113216Y20624D01*
X1113309Y20719D01*
X1113405Y20810D01*
X1113503Y20899D01*
X1113604Y20985D01*
X1113708Y21068D01*
X1113814Y21148D01*
X1113922Y21224D01*
X1114032Y21298D01*
X1114145Y21368D01*
X1114259Y21435D01*
X1114376Y21498D01*
X1114494Y21558D01*
X1114614Y21615D01*
X1114736Y21668D01*
X1114859Y21717D01*
X1114983Y21763D01*
X1115109Y21805D01*
X1115236Y21843D01*
X1115364Y21878D01*
X1115493Y21909D01*
X1115622Y21936D01*
X1115753Y21959D01*
X1115884Y21979D01*
X1116016Y21994D01*
X1116148Y22006D01*
X1116280Y22014D01*
X1116413Y22018D01*
X1116545Y22018D01*
X1116678Y22014D01*
X1116810Y22006D01*
X1116942Y21994D01*
X1117074Y21979D01*
X1117205Y21959D01*
X1117336Y21936D01*
X1117465Y21909D01*
X1117594Y21878D01*
X1117722Y21843D01*
X1117849Y21805D01*
X1117975Y21763D01*
X1118099Y21717D01*
X1118222Y21668D01*
X1118344Y21615D01*
X1118464Y21558D01*
X1118582Y21498D01*
X1118699Y21435D01*
X1118813Y21368D01*
X1118926Y21298D01*
X1119036Y21224D01*
X1119144Y21148D01*
X1119250Y21068D01*
X1119354Y20985D01*
X1119455Y20899D01*
X1119553Y20810D01*
X1119649Y20719D01*
X1119742Y20624D01*
X1119832Y20527D01*
X1119919Y20427D01*
X1120004Y20325D01*
X1120085Y20220D01*
X1120163Y20113D01*
X1120239Y20004D01*
X1120310Y19893D01*
X1120379Y19779D01*
X1120444Y19664D01*
X1120506Y19546D01*
X1120564Y19427D01*
X1120619Y19306D01*
X1120670Y19184D01*
X1120718Y19060D01*
X1120762Y18935D01*
X1120802Y18809D01*
X1120838Y18681D01*
X1120871Y18553D01*
X1120900Y18424D01*
X1120925Y18293D01*
X1120946Y18163D01*
X1120964Y18031D01*
X1120977Y17899D01*
X1120987Y17767D01*
X1120993Y17635D01*
X1120995Y17502D01*
X1120995Y10278D01*
X1120993Y10145D01*
X1120987Y10013D01*
X1120977Y9881D01*
X1120964Y9749D01*
X1120946Y9617D01*
X1120925Y9487D01*
X1120900Y9356D01*
X1120871Y9227D01*
X1120838Y9099D01*
X1120802Y8971D01*
X1120762Y8845D01*
X1120718Y8720D01*
X1120670Y8596D01*
X1120619Y8474D01*
X1120564Y8353D01*
X1120506Y8234D01*
X1120444Y8116D01*
X1120379Y8001D01*
X1120310Y7887D01*
X1120239Y7776D01*
X1120163Y7667D01*
X1120085Y7560D01*
X1120004Y7455D01*
X1119919Y7353D01*
X1119832Y7253D01*
X1119742Y7156D01*
X1119649Y7061D01*
X1119553Y6970D01*
X1119455Y6881D01*
X1119354Y6795D01*
X1119250Y6712D01*
X1119144Y6632D01*
X1119036Y6556D01*
X1118926Y6482D01*
X1118813Y6412D01*
X1118699Y6345D01*
X1118582Y6282D01*
X1118464Y6222D01*
X1118344Y6165D01*
X1118222Y6112D01*
X1118099Y6063D01*
X1117975Y6017D01*
X1117849Y5975D01*
X1117722Y5937D01*
X1117594Y5902D01*
X1117465Y5871D01*
X1117336Y5844D01*
X1117205Y5821D01*
X1117074Y5801D01*
X1116942Y5786D01*
X1116810Y5774D01*
X1116678Y5766D01*
X1116545Y5762D01*
X1116413Y5762D01*
X1116280Y5766D01*
X1116148Y5774D01*
X1116016Y5786D01*
X1115884Y5801D01*
X1115753Y5821D01*
X1115622Y5844D01*
X1115493Y5871D01*
X1115364Y5902D01*
X1115236Y5937D01*
X1115109Y5975D01*
X1114983Y6017D01*
X1114859Y6063D01*
X1114736Y6112D01*
X1114614Y6165D01*
X1114494Y6222D01*
X1114376Y6282D01*
X1114259Y6345D01*
X1114145Y6412D01*
X1114032Y6482D01*
X1113922Y6556D01*
X1113814Y6632D01*
X1113708Y6712D01*
X1113604Y6795D01*
X1113503Y6881D01*
X1113405Y6970D01*
X1113309Y7061D01*
X1113216Y7156D01*
X1113126Y7253D01*
X1113039Y7353D01*
X1112954Y7455D01*
X1112873Y7560D01*
X1112795Y7667D01*
X1112719Y7776D01*
X1112648Y7887D01*
X1112579Y8001D01*
X1112514Y8116D01*
X1112452Y8234D01*
X1112394Y8353D01*
X1112339Y8474D01*
X1112288Y8596D01*
X1112240Y8720D01*
X1112196Y8845D01*
X1112156Y8971D01*
X1112120Y9099D01*
X1112087Y9227D01*
X1112058Y9356D01*
X1112033Y9487D01*
X1112012Y9617D01*
X1111994Y9749D01*
X1111981Y9881D01*
X1111971Y10013D01*
X1111965Y10145D01*
X1111963Y10278D01*
X1132493Y5762D02*
X1132611Y5764D01*
X1132729Y5770D01*
X1132847Y5779D01*
X1132964Y5793D01*
X1133081Y5810D01*
X1133198Y5831D01*
X1133313Y5856D01*
X1133428Y5885D01*
X1133542Y5918D01*
X1133654Y5954D01*
X1133765Y5994D01*
X1133875Y6037D01*
X1133984Y6084D01*
X1134091Y6134D01*
X1134196Y6189D01*
X1134299Y6246D01*
X1134400Y6307D01*
X1134500Y6371D01*
X1134597Y6438D01*
X1134692Y6508D01*
X1134784Y6582D01*
X1134875Y6658D01*
X1134962Y6738D01*
X1135047Y6820D01*
X1135129Y6905D01*
X1135209Y6992D01*
X1135285Y7083D01*
X1135359Y7175D01*
X1135429Y7270D01*
X1135496Y7367D01*
X1135560Y7467D01*
X1135621Y7568D01*
X1135678Y7671D01*
X1135733Y7776D01*
X1135783Y7883D01*
X1135830Y7992D01*
X1135873Y8102D01*
X1135913Y8213D01*
X1135949Y8325D01*
X1135982Y8439D01*
X1136011Y8554D01*
X1136036Y8669D01*
X1136057Y8786D01*
X1136074Y8903D01*
X1136088Y9020D01*
X1136097Y9138D01*
X1136103Y9256D01*
X1136105Y9374D01*
X1132493Y5762D02*
X1132310Y5764D01*
X1132128Y5771D01*
X1131946Y5782D01*
X1131764Y5797D01*
X1131582Y5817D01*
X1131401Y5840D01*
X1131221Y5869D01*
X1131041Y5901D01*
X1130862Y5938D01*
X1130685Y5979D01*
X1130508Y6025D01*
X1130332Y6074D01*
X1130158Y6128D01*
X1129984Y6186D01*
X1129813Y6248D01*
X1129643Y6314D01*
X1129474Y6385D01*
X1129307Y6459D01*
X1129142Y6537D01*
X1128979Y6619D01*
X1128818Y6705D01*
X1128659Y6795D01*
X1128502Y6889D01*
X1128348Y6986D01*
X1128196Y7087D01*
X1128046Y7192D01*
X1127899Y7300D01*
X1127755Y7411D01*
X1127613Y7526D01*
X1127474Y7645D01*
X1127338Y7767D01*
X1127205Y7892D01*
X1127075Y8020D01*
X1127526Y18406D02*
X1127528Y18524D01*
X1127534Y18642D01*
X1127543Y18760D01*
X1127557Y18877D01*
X1127574Y18994D01*
X1127595Y19111D01*
X1127620Y19226D01*
X1127649Y19341D01*
X1127682Y19455D01*
X1127718Y19567D01*
X1127758Y19678D01*
X1127801Y19788D01*
X1127848Y19897D01*
X1127898Y20004D01*
X1127953Y20109D01*
X1128010Y20212D01*
X1128071Y20313D01*
X1128135Y20413D01*
X1128202Y20510D01*
X1128272Y20605D01*
X1128346Y20697D01*
X1128422Y20788D01*
X1128502Y20875D01*
X1128584Y20960D01*
X1128669Y21042D01*
X1128756Y21122D01*
X1128847Y21198D01*
X1128939Y21272D01*
X1129034Y21342D01*
X1129131Y21409D01*
X1129231Y21473D01*
X1129332Y21534D01*
X1129435Y21592D01*
X1129540Y21646D01*
X1129647Y21696D01*
X1129756Y21743D01*
X1129866Y21787D01*
X1129977Y21826D01*
X1130090Y21862D01*
X1130203Y21895D01*
X1130318Y21924D01*
X1130433Y21949D01*
X1130550Y21970D01*
X1130667Y21987D01*
X1130784Y22001D01*
X1130902Y22010D01*
X1131020Y22016D01*
X1131138Y22018D01*
X1131299Y22016D01*
X1131461Y22010D01*
X1131622Y22001D01*
X1131783Y21987D01*
X1131943Y21970D01*
X1132103Y21949D01*
X1132263Y21924D01*
X1132422Y21895D01*
X1132580Y21863D01*
X1132737Y21827D01*
X1132893Y21787D01*
X1133049Y21743D01*
X1133203Y21695D01*
X1133356Y21644D01*
X1133508Y21590D01*
X1133659Y21531D01*
X1133808Y21470D01*
X1133955Y21404D01*
X1134101Y21335D01*
X1134246Y21263D01*
X1134388Y21187D01*
X1134529Y21108D01*
X1134668Y21026D01*
X1134804Y20940D01*
X1134939Y20851D01*
X1135072Y20759D01*
X1135202Y20663D01*
X1129332Y15245D02*
X1129231Y15307D01*
X1129131Y15372D01*
X1129034Y15441D01*
X1128939Y15513D01*
X1128846Y15587D01*
X1128756Y15665D01*
X1128668Y15746D01*
X1128583Y15829D01*
X1128501Y15915D01*
X1128422Y16004D01*
X1128345Y16095D01*
X1128272Y16189D01*
X1128201Y16285D01*
X1128134Y16383D01*
X1128070Y16483D01*
X1128009Y16586D01*
X1127952Y16690D01*
X1127898Y16796D01*
X1127848Y16904D01*
X1127801Y17013D01*
X1127757Y17124D01*
X1127717Y17236D01*
X1127681Y17350D01*
X1127649Y17464D01*
X1127620Y17580D01*
X1127595Y17696D01*
X1127574Y17813D01*
X1127557Y17931D01*
X1127543Y18049D01*
X1127534Y18168D01*
X1127528Y18287D01*
X1127526Y18406D01*
X1134299Y12535D02*
X1134400Y12473D01*
X1134500Y12408D01*
X1134597Y12339D01*
X1134692Y12267D01*
X1134785Y12193D01*
X1134875Y12115D01*
X1134963Y12034D01*
X1135048Y11951D01*
X1135130Y11865D01*
X1135209Y11776D01*
X1135286Y11685D01*
X1135359Y11591D01*
X1135430Y11495D01*
X1135497Y11397D01*
X1135561Y11297D01*
X1135622Y11194D01*
X1135679Y11090D01*
X1135733Y10984D01*
X1135783Y10876D01*
X1135830Y10767D01*
X1135874Y10656D01*
X1135914Y10544D01*
X1135950Y10430D01*
X1135982Y10316D01*
X1136011Y10200D01*
X1136036Y10084D01*
X1136057Y9967D01*
X1136074Y9849D01*
X1136088Y9731D01*
X1136097Y9612D01*
X1136103Y9493D01*
X1136105Y9374D01*
X1134299Y12535D02*
X1129332Y15245D01*
D11*
X164500Y311000D02*
X161500Y311000D01*
X161500Y308000D01*
X164500Y308000D01*
X164500Y301000D01*
X35500Y301000D02*
X35500Y308000D01*
X38500Y308000D01*
X38500Y311000D01*
X35500Y311000D01*
X38500Y311000D02*
X161500Y311000D01*
X164500Y301000D02*
X35500Y301000D01*
X164500Y345000D02*
X164500Y355000D01*
X152500Y355000D01*
X35500Y355000D02*
X35500Y345000D01*
X35500Y355000D02*
X47500Y355000D01*
X164500Y315000D02*
X164500Y311000D01*
X35500Y311000D02*
X35500Y315000D01*
D12*
X179492Y383754D02*
X179492Y388946D01*
X179490Y389059D01*
X179484Y389172D01*
X179474Y389285D01*
X179460Y389398D01*
X179443Y389510D01*
X179421Y389621D01*
X179396Y389731D01*
X179366Y389841D01*
X179333Y389949D01*
X179296Y390056D01*
X179256Y390162D01*
X179211Y390266D01*
X179163Y390369D01*
X179112Y390470D01*
X179057Y390569D01*
X178999Y390666D01*
X178937Y390761D01*
X178872Y390854D01*
X178804Y390944D01*
X178733Y391032D01*
X178658Y391118D01*
X178581Y391201D01*
X178501Y391281D01*
X178418Y391358D01*
X178332Y391433D01*
X178244Y391504D01*
X178154Y391572D01*
X178061Y391637D01*
X177966Y391699D01*
X177869Y391757D01*
X177770Y391812D01*
X177669Y391863D01*
X177566Y391911D01*
X177462Y391956D01*
X177356Y391996D01*
X177249Y392033D01*
X177141Y392066D01*
X177031Y392096D01*
X176921Y392121D01*
X176810Y392143D01*
X176698Y392160D01*
X176585Y392174D01*
X176472Y392184D01*
X176359Y392190D01*
X176246Y392192D01*
X176133Y392190D01*
X176020Y392184D01*
X175907Y392174D01*
X175794Y392160D01*
X175682Y392143D01*
X175571Y392121D01*
X175461Y392096D01*
X175351Y392066D01*
X175243Y392033D01*
X175136Y391996D01*
X175030Y391956D01*
X174926Y391911D01*
X174823Y391863D01*
X174722Y391812D01*
X174623Y391757D01*
X174526Y391699D01*
X174431Y391637D01*
X174338Y391572D01*
X174248Y391504D01*
X174160Y391433D01*
X174074Y391358D01*
X173991Y391281D01*
X173911Y391201D01*
X173834Y391118D01*
X173759Y391032D01*
X173688Y390944D01*
X173620Y390854D01*
X173555Y390761D01*
X173493Y390666D01*
X173435Y390569D01*
X173380Y390470D01*
X173329Y390369D01*
X173281Y390266D01*
X173236Y390162D01*
X173196Y390056D01*
X173159Y389949D01*
X173126Y389841D01*
X173096Y389731D01*
X173071Y389621D01*
X173049Y389510D01*
X173032Y389398D01*
X173018Y389285D01*
X173008Y389172D01*
X173002Y389059D01*
X173000Y388946D01*
X173001Y388946D02*
X173001Y383754D01*
X173000Y383754D02*
X173002Y383641D01*
X173008Y383528D01*
X173018Y383415D01*
X173032Y383302D01*
X173049Y383190D01*
X173071Y383079D01*
X173096Y382969D01*
X173126Y382859D01*
X173159Y382751D01*
X173196Y382644D01*
X173236Y382538D01*
X173281Y382434D01*
X173329Y382331D01*
X173380Y382230D01*
X173435Y382131D01*
X173493Y382034D01*
X173555Y381939D01*
X173620Y381846D01*
X173688Y381756D01*
X173759Y381668D01*
X173834Y381582D01*
X173911Y381499D01*
X173991Y381419D01*
X174074Y381342D01*
X174160Y381267D01*
X174248Y381196D01*
X174338Y381128D01*
X174431Y381063D01*
X174526Y381001D01*
X174623Y380943D01*
X174722Y380888D01*
X174823Y380837D01*
X174926Y380789D01*
X175030Y380744D01*
X175136Y380704D01*
X175243Y380667D01*
X175351Y380634D01*
X175461Y380604D01*
X175571Y380579D01*
X175682Y380557D01*
X175794Y380540D01*
X175907Y380526D01*
X176020Y380516D01*
X176133Y380510D01*
X176246Y380508D01*
X176359Y380510D01*
X176472Y380516D01*
X176585Y380526D01*
X176698Y380540D01*
X176810Y380557D01*
X176921Y380579D01*
X177031Y380604D01*
X177141Y380634D01*
X177249Y380667D01*
X177356Y380704D01*
X177462Y380744D01*
X177566Y380789D01*
X177669Y380837D01*
X177770Y380888D01*
X177869Y380943D01*
X177966Y381001D01*
X178061Y381063D01*
X178154Y381128D01*
X178244Y381196D01*
X178332Y381267D01*
X178418Y381342D01*
X178501Y381419D01*
X178581Y381499D01*
X178658Y381582D01*
X178733Y381668D01*
X178804Y381756D01*
X178872Y381846D01*
X178937Y381939D01*
X178999Y382034D01*
X179057Y382131D01*
X179112Y382230D01*
X179163Y382331D01*
X179211Y382434D01*
X179256Y382538D01*
X179296Y382644D01*
X179333Y382751D01*
X179366Y382859D01*
X179396Y382969D01*
X179421Y383079D01*
X179443Y383190D01*
X179460Y383302D01*
X179474Y383415D01*
X179484Y383528D01*
X179490Y383641D01*
X179492Y383754D01*
X167681Y383754D02*
X167681Y392192D01*
X167681Y383754D02*
X167679Y383641D01*
X167673Y383528D01*
X167663Y383415D01*
X167649Y383302D01*
X167632Y383190D01*
X167610Y383079D01*
X167585Y382969D01*
X167555Y382859D01*
X167522Y382751D01*
X167485Y382644D01*
X167445Y382538D01*
X167400Y382434D01*
X167352Y382331D01*
X167301Y382230D01*
X167246Y382131D01*
X167188Y382034D01*
X167126Y381939D01*
X167061Y381846D01*
X166993Y381756D01*
X166922Y381668D01*
X166847Y381582D01*
X166770Y381499D01*
X166690Y381419D01*
X166607Y381342D01*
X166521Y381267D01*
X166433Y381196D01*
X166343Y381128D01*
X166250Y381063D01*
X166155Y381001D01*
X166058Y380943D01*
X165959Y380888D01*
X165858Y380837D01*
X165755Y380789D01*
X165651Y380744D01*
X165545Y380704D01*
X165438Y380667D01*
X165330Y380634D01*
X165220Y380604D01*
X165110Y380579D01*
X164999Y380557D01*
X164887Y380540D01*
X164774Y380526D01*
X164661Y380516D01*
X164548Y380510D01*
X164435Y380508D01*
X164322Y380510D01*
X164209Y380516D01*
X164096Y380526D01*
X163983Y380540D01*
X163871Y380557D01*
X163760Y380579D01*
X163650Y380604D01*
X163540Y380634D01*
X163432Y380667D01*
X163325Y380704D01*
X163219Y380744D01*
X163115Y380789D01*
X163012Y380837D01*
X162911Y380888D01*
X162812Y380943D01*
X162715Y381001D01*
X162620Y381063D01*
X162527Y381128D01*
X162437Y381196D01*
X162349Y381267D01*
X162263Y381342D01*
X162180Y381419D01*
X162100Y381499D01*
X162023Y381582D01*
X161948Y381668D01*
X161877Y381756D01*
X161809Y381846D01*
X161744Y381939D01*
X161682Y382034D01*
X161624Y382131D01*
X161569Y382230D01*
X161518Y382331D01*
X161470Y382434D01*
X161425Y382538D01*
X161385Y382644D01*
X161348Y382751D01*
X161315Y382859D01*
X161285Y382969D01*
X161260Y383079D01*
X161238Y383190D01*
X161221Y383302D01*
X161207Y383415D01*
X161197Y383528D01*
X161191Y383641D01*
X161189Y383754D01*
X161190Y383754D02*
X161190Y392192D01*
X153387Y392192D02*
X153387Y380508D01*
X156632Y392192D02*
X150141Y392192D01*
X145964Y389596D02*
X142719Y392192D01*
X142719Y380508D01*
X145964Y380508D02*
X139473Y380508D01*
D11*
X411500Y311000D02*
X414500Y311000D01*
X411500Y311000D02*
X411500Y308000D01*
X414500Y308000D01*
X414500Y301000D01*
X285500Y301000D02*
X285500Y308000D01*
X288500Y308000D01*
X288500Y311000D01*
X285500Y311000D01*
X288500Y311000D02*
X411500Y311000D01*
X414500Y301000D02*
X285500Y301000D01*
X414500Y345000D02*
X414500Y355000D01*
X402500Y355000D01*
X285500Y355000D02*
X285500Y345000D01*
X285500Y355000D02*
X297500Y355000D01*
X414500Y315000D02*
X414500Y311000D01*
X285500Y311000D02*
X285500Y315000D01*
D12*
X439492Y383754D02*
X439492Y388946D01*
X439490Y389059D01*
X439484Y389172D01*
X439474Y389285D01*
X439460Y389398D01*
X439443Y389510D01*
X439421Y389621D01*
X439396Y389731D01*
X439366Y389841D01*
X439333Y389949D01*
X439296Y390056D01*
X439256Y390162D01*
X439211Y390266D01*
X439163Y390369D01*
X439112Y390470D01*
X439057Y390569D01*
X438999Y390666D01*
X438937Y390761D01*
X438872Y390854D01*
X438804Y390944D01*
X438733Y391032D01*
X438658Y391118D01*
X438581Y391201D01*
X438501Y391281D01*
X438418Y391358D01*
X438332Y391433D01*
X438244Y391504D01*
X438154Y391572D01*
X438061Y391637D01*
X437966Y391699D01*
X437869Y391757D01*
X437770Y391812D01*
X437669Y391863D01*
X437566Y391911D01*
X437462Y391956D01*
X437356Y391996D01*
X437249Y392033D01*
X437141Y392066D01*
X437031Y392096D01*
X436921Y392121D01*
X436810Y392143D01*
X436698Y392160D01*
X436585Y392174D01*
X436472Y392184D01*
X436359Y392190D01*
X436246Y392192D01*
X436133Y392190D01*
X436020Y392184D01*
X435907Y392174D01*
X435794Y392160D01*
X435682Y392143D01*
X435571Y392121D01*
X435461Y392096D01*
X435351Y392066D01*
X435243Y392033D01*
X435136Y391996D01*
X435030Y391956D01*
X434926Y391911D01*
X434823Y391863D01*
X434722Y391812D01*
X434623Y391757D01*
X434526Y391699D01*
X434431Y391637D01*
X434338Y391572D01*
X434248Y391504D01*
X434160Y391433D01*
X434074Y391358D01*
X433991Y391281D01*
X433911Y391201D01*
X433834Y391118D01*
X433759Y391032D01*
X433688Y390944D01*
X433620Y390854D01*
X433555Y390761D01*
X433493Y390666D01*
X433435Y390569D01*
X433380Y390470D01*
X433329Y390369D01*
X433281Y390266D01*
X433236Y390162D01*
X433196Y390056D01*
X433159Y389949D01*
X433126Y389841D01*
X433096Y389731D01*
X433071Y389621D01*
X433049Y389510D01*
X433032Y389398D01*
X433018Y389285D01*
X433008Y389172D01*
X433002Y389059D01*
X433000Y388946D01*
X433001Y388946D02*
X433001Y383754D01*
X433000Y383754D02*
X433002Y383641D01*
X433008Y383528D01*
X433018Y383415D01*
X433032Y383302D01*
X433049Y383190D01*
X433071Y383079D01*
X433096Y382969D01*
X433126Y382859D01*
X433159Y382751D01*
X433196Y382644D01*
X433236Y382538D01*
X433281Y382434D01*
X433329Y382331D01*
X433380Y382230D01*
X433435Y382131D01*
X433493Y382034D01*
X433555Y381939D01*
X433620Y381846D01*
X433688Y381756D01*
X433759Y381668D01*
X433834Y381582D01*
X433911Y381499D01*
X433991Y381419D01*
X434074Y381342D01*
X434160Y381267D01*
X434248Y381196D01*
X434338Y381128D01*
X434431Y381063D01*
X434526Y381001D01*
X434623Y380943D01*
X434722Y380888D01*
X434823Y380837D01*
X434926Y380789D01*
X435030Y380744D01*
X435136Y380704D01*
X435243Y380667D01*
X435351Y380634D01*
X435461Y380604D01*
X435571Y380579D01*
X435682Y380557D01*
X435794Y380540D01*
X435907Y380526D01*
X436020Y380516D01*
X436133Y380510D01*
X436246Y380508D01*
X436359Y380510D01*
X436472Y380516D01*
X436585Y380526D01*
X436698Y380540D01*
X436810Y380557D01*
X436921Y380579D01*
X437031Y380604D01*
X437141Y380634D01*
X437249Y380667D01*
X437356Y380704D01*
X437462Y380744D01*
X437566Y380789D01*
X437669Y380837D01*
X437770Y380888D01*
X437869Y380943D01*
X437966Y381001D01*
X438061Y381063D01*
X438154Y381128D01*
X438244Y381196D01*
X438332Y381267D01*
X438418Y381342D01*
X438501Y381419D01*
X438581Y381499D01*
X438658Y381582D01*
X438733Y381668D01*
X438804Y381756D01*
X438872Y381846D01*
X438937Y381939D01*
X438999Y382034D01*
X439057Y382131D01*
X439112Y382230D01*
X439163Y382331D01*
X439211Y382434D01*
X439256Y382538D01*
X439296Y382644D01*
X439333Y382751D01*
X439366Y382859D01*
X439396Y382969D01*
X439421Y383079D01*
X439443Y383190D01*
X439460Y383302D01*
X439474Y383415D01*
X439484Y383528D01*
X439490Y383641D01*
X439492Y383754D01*
X427681Y383754D02*
X427681Y392192D01*
X427681Y383754D02*
X427679Y383641D01*
X427673Y383528D01*
X427663Y383415D01*
X427649Y383302D01*
X427632Y383190D01*
X427610Y383079D01*
X427585Y382969D01*
X427555Y382859D01*
X427522Y382751D01*
X427485Y382644D01*
X427445Y382538D01*
X427400Y382434D01*
X427352Y382331D01*
X427301Y382230D01*
X427246Y382131D01*
X427188Y382034D01*
X427126Y381939D01*
X427061Y381846D01*
X426993Y381756D01*
X426922Y381668D01*
X426847Y381582D01*
X426770Y381499D01*
X426690Y381419D01*
X426607Y381342D01*
X426521Y381267D01*
X426433Y381196D01*
X426343Y381128D01*
X426250Y381063D01*
X426155Y381001D01*
X426058Y380943D01*
X425959Y380888D01*
X425858Y380837D01*
X425755Y380789D01*
X425651Y380744D01*
X425545Y380704D01*
X425438Y380667D01*
X425330Y380634D01*
X425220Y380604D01*
X425110Y380579D01*
X424999Y380557D01*
X424887Y380540D01*
X424774Y380526D01*
X424661Y380516D01*
X424548Y380510D01*
X424435Y380508D01*
X424322Y380510D01*
X424209Y380516D01*
X424096Y380526D01*
X423983Y380540D01*
X423871Y380557D01*
X423760Y380579D01*
X423650Y380604D01*
X423540Y380634D01*
X423432Y380667D01*
X423325Y380704D01*
X423219Y380744D01*
X423115Y380789D01*
X423012Y380837D01*
X422911Y380888D01*
X422812Y380943D01*
X422715Y381001D01*
X422620Y381063D01*
X422527Y381128D01*
X422437Y381196D01*
X422349Y381267D01*
X422263Y381342D01*
X422180Y381419D01*
X422100Y381499D01*
X422023Y381582D01*
X421948Y381668D01*
X421877Y381756D01*
X421809Y381846D01*
X421744Y381939D01*
X421682Y382034D01*
X421624Y382131D01*
X421569Y382230D01*
X421518Y382331D01*
X421470Y382434D01*
X421425Y382538D01*
X421385Y382644D01*
X421348Y382751D01*
X421315Y382859D01*
X421285Y382969D01*
X421260Y383079D01*
X421238Y383190D01*
X421221Y383302D01*
X421207Y383415D01*
X421197Y383528D01*
X421191Y383641D01*
X421189Y383754D01*
X421190Y383754D02*
X421190Y392192D01*
X413387Y392192D02*
X413387Y380508D01*
X416632Y392192D02*
X410141Y392192D01*
X402394Y392192D02*
X402287Y392190D01*
X402181Y392184D01*
X402075Y392174D01*
X401969Y392161D01*
X401863Y392143D01*
X401759Y392122D01*
X401655Y392097D01*
X401552Y392068D01*
X401451Y392036D01*
X401351Y391999D01*
X401252Y391959D01*
X401154Y391916D01*
X401058Y391869D01*
X400964Y391818D01*
X400872Y391764D01*
X400782Y391707D01*
X400694Y391647D01*
X400609Y391583D01*
X400526Y391516D01*
X400445Y391446D01*
X400367Y391374D01*
X400291Y391298D01*
X400219Y391220D01*
X400149Y391139D01*
X400082Y391056D01*
X400018Y390971D01*
X399958Y390883D01*
X399901Y390793D01*
X399847Y390701D01*
X399796Y390607D01*
X399749Y390511D01*
X399706Y390413D01*
X399666Y390314D01*
X399629Y390214D01*
X399597Y390113D01*
X399568Y390010D01*
X399543Y389906D01*
X399522Y389802D01*
X399504Y389696D01*
X399491Y389590D01*
X399481Y389484D01*
X399475Y389378D01*
X399473Y389271D01*
X402394Y392192D02*
X402515Y392190D01*
X402636Y392184D01*
X402756Y392174D01*
X402877Y392161D01*
X402996Y392143D01*
X403116Y392122D01*
X403234Y392097D01*
X403351Y392068D01*
X403468Y392035D01*
X403583Y391999D01*
X403697Y391958D01*
X403810Y391915D01*
X403922Y391867D01*
X404031Y391816D01*
X404139Y391761D01*
X404246Y391703D01*
X404350Y391642D01*
X404452Y391577D01*
X404552Y391509D01*
X404650Y391438D01*
X404746Y391364D01*
X404839Y391287D01*
X404929Y391206D01*
X405017Y391123D01*
X405102Y391037D01*
X405185Y390948D01*
X405264Y390857D01*
X405341Y390763D01*
X405414Y390667D01*
X405484Y390569D01*
X405551Y390468D01*
X405615Y390365D01*
X405676Y390260D01*
X405733Y390153D01*
X405786Y390045D01*
X405836Y389935D01*
X405882Y389823D01*
X405925Y389710D01*
X405964Y389595D01*
X400447Y386999D02*
X400368Y387077D01*
X400292Y387157D01*
X400219Y387240D01*
X400149Y387326D01*
X400082Y387413D01*
X400018Y387504D01*
X399958Y387596D01*
X399900Y387690D01*
X399846Y387787D01*
X399796Y387885D01*
X399749Y387985D01*
X399705Y388086D01*
X399665Y388189D01*
X399629Y388294D01*
X399597Y388399D01*
X399568Y388506D01*
X399543Y388613D01*
X399521Y388722D01*
X399504Y388831D01*
X399490Y388940D01*
X399481Y389050D01*
X399475Y389161D01*
X399473Y389271D01*
X400447Y386999D02*
X405964Y380508D01*
X399473Y380508D01*
D11*
X661500Y311000D02*
X664500Y311000D01*
X661500Y311000D02*
X661500Y308000D01*
X664500Y308000D01*
X664500Y301000D01*
X535500Y301000D02*
X535500Y308000D01*
X538500Y308000D01*
X538500Y311000D01*
X535500Y311000D01*
X538500Y311000D02*
X661500Y311000D01*
X664500Y301000D02*
X535500Y301000D01*
X664500Y345000D02*
X664500Y355000D01*
X652500Y355000D01*
X535500Y355000D02*
X535500Y345000D01*
X535500Y355000D02*
X547500Y355000D01*
X664500Y315000D02*
X664500Y311000D01*
X535500Y311000D02*
X535500Y315000D01*
D12*
X689492Y383754D02*
X689492Y388946D01*
X689490Y389059D01*
X689484Y389172D01*
X689474Y389285D01*
X689460Y389398D01*
X689443Y389510D01*
X689421Y389621D01*
X689396Y389731D01*
X689366Y389841D01*
X689333Y389949D01*
X689296Y390056D01*
X689256Y390162D01*
X689211Y390266D01*
X689163Y390369D01*
X689112Y390470D01*
X689057Y390569D01*
X688999Y390666D01*
X688937Y390761D01*
X688872Y390854D01*
X688804Y390944D01*
X688733Y391032D01*
X688658Y391118D01*
X688581Y391201D01*
X688501Y391281D01*
X688418Y391358D01*
X688332Y391433D01*
X688244Y391504D01*
X688154Y391572D01*
X688061Y391637D01*
X687966Y391699D01*
X687869Y391757D01*
X687770Y391812D01*
X687669Y391863D01*
X687566Y391911D01*
X687462Y391956D01*
X687356Y391996D01*
X687249Y392033D01*
X687141Y392066D01*
X687031Y392096D01*
X686921Y392121D01*
X686810Y392143D01*
X686698Y392160D01*
X686585Y392174D01*
X686472Y392184D01*
X686359Y392190D01*
X686246Y392192D01*
X686133Y392190D01*
X686020Y392184D01*
X685907Y392174D01*
X685794Y392160D01*
X685682Y392143D01*
X685571Y392121D01*
X685461Y392096D01*
X685351Y392066D01*
X685243Y392033D01*
X685136Y391996D01*
X685030Y391956D01*
X684926Y391911D01*
X684823Y391863D01*
X684722Y391812D01*
X684623Y391757D01*
X684526Y391699D01*
X684431Y391637D01*
X684338Y391572D01*
X684248Y391504D01*
X684160Y391433D01*
X684074Y391358D01*
X683991Y391281D01*
X683911Y391201D01*
X683834Y391118D01*
X683759Y391032D01*
X683688Y390944D01*
X683620Y390854D01*
X683555Y390761D01*
X683493Y390666D01*
X683435Y390569D01*
X683380Y390470D01*
X683329Y390369D01*
X683281Y390266D01*
X683236Y390162D01*
X683196Y390056D01*
X683159Y389949D01*
X683126Y389841D01*
X683096Y389731D01*
X683071Y389621D01*
X683049Y389510D01*
X683032Y389398D01*
X683018Y389285D01*
X683008Y389172D01*
X683002Y389059D01*
X683000Y388946D01*
X683001Y388946D02*
X683001Y383754D01*
X683000Y383754D02*
X683002Y383641D01*
X683008Y383528D01*
X683018Y383415D01*
X683032Y383302D01*
X683049Y383190D01*
X683071Y383079D01*
X683096Y382969D01*
X683126Y382859D01*
X683159Y382751D01*
X683196Y382644D01*
X683236Y382538D01*
X683281Y382434D01*
X683329Y382331D01*
X683380Y382230D01*
X683435Y382131D01*
X683493Y382034D01*
X683555Y381939D01*
X683620Y381846D01*
X683688Y381756D01*
X683759Y381668D01*
X683834Y381582D01*
X683911Y381499D01*
X683991Y381419D01*
X684074Y381342D01*
X684160Y381267D01*
X684248Y381196D01*
X684338Y381128D01*
X684431Y381063D01*
X684526Y381001D01*
X684623Y380943D01*
X684722Y380888D01*
X684823Y380837D01*
X684926Y380789D01*
X685030Y380744D01*
X685136Y380704D01*
X685243Y380667D01*
X685351Y380634D01*
X685461Y380604D01*
X685571Y380579D01*
X685682Y380557D01*
X685794Y380540D01*
X685907Y380526D01*
X686020Y380516D01*
X686133Y380510D01*
X686246Y380508D01*
X686359Y380510D01*
X686472Y380516D01*
X686585Y380526D01*
X686698Y380540D01*
X686810Y380557D01*
X686921Y380579D01*
X687031Y380604D01*
X687141Y380634D01*
X687249Y380667D01*
X687356Y380704D01*
X687462Y380744D01*
X687566Y380789D01*
X687669Y380837D01*
X687770Y380888D01*
X687869Y380943D01*
X687966Y381001D01*
X688061Y381063D01*
X688154Y381128D01*
X688244Y381196D01*
X688332Y381267D01*
X688418Y381342D01*
X688501Y381419D01*
X688581Y381499D01*
X688658Y381582D01*
X688733Y381668D01*
X688804Y381756D01*
X688872Y381846D01*
X688937Y381939D01*
X688999Y382034D01*
X689057Y382131D01*
X689112Y382230D01*
X689163Y382331D01*
X689211Y382434D01*
X689256Y382538D01*
X689296Y382644D01*
X689333Y382751D01*
X689366Y382859D01*
X689396Y382969D01*
X689421Y383079D01*
X689443Y383190D01*
X689460Y383302D01*
X689474Y383415D01*
X689484Y383528D01*
X689490Y383641D01*
X689492Y383754D01*
X677681Y383754D02*
X677681Y392192D01*
X677681Y383754D02*
X677679Y383641D01*
X677673Y383528D01*
X677663Y383415D01*
X677649Y383302D01*
X677632Y383190D01*
X677610Y383079D01*
X677585Y382969D01*
X677555Y382859D01*
X677522Y382751D01*
X677485Y382644D01*
X677445Y382538D01*
X677400Y382434D01*
X677352Y382331D01*
X677301Y382230D01*
X677246Y382131D01*
X677188Y382034D01*
X677126Y381939D01*
X677061Y381846D01*
X676993Y381756D01*
X676922Y381668D01*
X676847Y381582D01*
X676770Y381499D01*
X676690Y381419D01*
X676607Y381342D01*
X676521Y381267D01*
X676433Y381196D01*
X676343Y381128D01*
X676250Y381063D01*
X676155Y381001D01*
X676058Y380943D01*
X675959Y380888D01*
X675858Y380837D01*
X675755Y380789D01*
X675651Y380744D01*
X675545Y380704D01*
X675438Y380667D01*
X675330Y380634D01*
X675220Y380604D01*
X675110Y380579D01*
X674999Y380557D01*
X674887Y380540D01*
X674774Y380526D01*
X674661Y380516D01*
X674548Y380510D01*
X674435Y380508D01*
X674322Y380510D01*
X674209Y380516D01*
X674096Y380526D01*
X673983Y380540D01*
X673871Y380557D01*
X673760Y380579D01*
X673650Y380604D01*
X673540Y380634D01*
X673432Y380667D01*
X673325Y380704D01*
X673219Y380744D01*
X673115Y380789D01*
X673012Y380837D01*
X672911Y380888D01*
X672812Y380943D01*
X672715Y381001D01*
X672620Y381063D01*
X672527Y381128D01*
X672437Y381196D01*
X672349Y381267D01*
X672263Y381342D01*
X672180Y381419D01*
X672100Y381499D01*
X672023Y381582D01*
X671948Y381668D01*
X671877Y381756D01*
X671809Y381846D01*
X671744Y381939D01*
X671682Y382034D01*
X671624Y382131D01*
X671569Y382230D01*
X671518Y382331D01*
X671470Y382434D01*
X671425Y382538D01*
X671385Y382644D01*
X671348Y382751D01*
X671315Y382859D01*
X671285Y382969D01*
X671260Y383079D01*
X671238Y383190D01*
X671221Y383302D01*
X671207Y383415D01*
X671197Y383528D01*
X671191Y383641D01*
X671189Y383754D01*
X671190Y383754D02*
X671190Y392192D01*
X663387Y392192D02*
X663387Y380508D01*
X666632Y392192D02*
X660141Y392192D01*
X655964Y380508D02*
X652719Y380508D01*
X652606Y380510D01*
X652493Y380516D01*
X652380Y380526D01*
X652267Y380540D01*
X652155Y380557D01*
X652044Y380579D01*
X651934Y380604D01*
X651824Y380634D01*
X651716Y380667D01*
X651609Y380704D01*
X651503Y380744D01*
X651399Y380789D01*
X651296Y380837D01*
X651195Y380888D01*
X651096Y380943D01*
X650999Y381001D01*
X650904Y381063D01*
X650811Y381128D01*
X650721Y381196D01*
X650633Y381267D01*
X650547Y381342D01*
X650464Y381419D01*
X650384Y381499D01*
X650307Y381582D01*
X650232Y381668D01*
X650161Y381756D01*
X650093Y381846D01*
X650028Y381939D01*
X649966Y382034D01*
X649908Y382131D01*
X649853Y382230D01*
X649802Y382331D01*
X649754Y382434D01*
X649709Y382538D01*
X649669Y382644D01*
X649632Y382751D01*
X649599Y382859D01*
X649569Y382969D01*
X649544Y383079D01*
X649522Y383190D01*
X649505Y383302D01*
X649491Y383415D01*
X649481Y383528D01*
X649475Y383641D01*
X649473Y383754D01*
X649475Y383867D01*
X649481Y383980D01*
X649491Y384093D01*
X649505Y384206D01*
X649522Y384318D01*
X649544Y384429D01*
X649569Y384539D01*
X649599Y384649D01*
X649632Y384757D01*
X649669Y384864D01*
X649709Y384970D01*
X649754Y385074D01*
X649802Y385177D01*
X649853Y385278D01*
X649908Y385377D01*
X649966Y385474D01*
X650028Y385569D01*
X650093Y385662D01*
X650161Y385752D01*
X650232Y385840D01*
X650307Y385926D01*
X650384Y386009D01*
X650464Y386089D01*
X650547Y386166D01*
X650633Y386241D01*
X650721Y386312D01*
X650811Y386380D01*
X650904Y386445D01*
X650999Y386507D01*
X651096Y386565D01*
X651195Y386620D01*
X651296Y386671D01*
X651399Y386719D01*
X651503Y386764D01*
X651609Y386804D01*
X651716Y386841D01*
X651824Y386874D01*
X651934Y386904D01*
X652044Y386929D01*
X652155Y386951D01*
X652267Y386968D01*
X652380Y386982D01*
X652493Y386992D01*
X652606Y386998D01*
X652719Y387000D01*
X652069Y392192D02*
X655964Y392192D01*
X652069Y392192D02*
X651968Y392190D01*
X651868Y392184D01*
X651768Y392174D01*
X651668Y392161D01*
X651569Y392143D01*
X651470Y392122D01*
X651373Y392097D01*
X651276Y392068D01*
X651181Y392035D01*
X651087Y391999D01*
X650995Y391959D01*
X650904Y391916D01*
X650815Y391869D01*
X650728Y391819D01*
X650642Y391765D01*
X650559Y391708D01*
X650479Y391648D01*
X650400Y391585D01*
X650324Y391518D01*
X650251Y391449D01*
X650181Y391377D01*
X650113Y391303D01*
X650048Y391226D01*
X649987Y391146D01*
X649928Y391064D01*
X649873Y390980D01*
X649821Y390894D01*
X649772Y390806D01*
X649727Y390716D01*
X649685Y390624D01*
X649647Y390531D01*
X649613Y390436D01*
X649582Y390341D01*
X649555Y390244D01*
X649532Y390146D01*
X649512Y390047D01*
X649497Y389947D01*
X649485Y389847D01*
X649477Y389747D01*
X649473Y389646D01*
X649473Y389546D01*
X649477Y389445D01*
X649485Y389345D01*
X649497Y389245D01*
X649512Y389145D01*
X649532Y389046D01*
X649555Y388948D01*
X649582Y388851D01*
X649613Y388756D01*
X649647Y388661D01*
X649685Y388568D01*
X649727Y388476D01*
X649772Y388386D01*
X649821Y388298D01*
X649873Y388212D01*
X649928Y388128D01*
X649987Y388046D01*
X650048Y387966D01*
X650113Y387889D01*
X650181Y387815D01*
X650251Y387743D01*
X650324Y387674D01*
X650400Y387607D01*
X650479Y387544D01*
X650559Y387484D01*
X650642Y387427D01*
X650728Y387373D01*
X650815Y387323D01*
X650904Y387276D01*
X650995Y387233D01*
X651087Y387193D01*
X651181Y387157D01*
X651276Y387124D01*
X651373Y387095D01*
X651470Y387070D01*
X651569Y387049D01*
X651668Y387031D01*
X651768Y387018D01*
X651868Y387008D01*
X651968Y387002D01*
X652069Y387000D01*
X652069Y386999D02*
X654666Y386999D01*
D11*
X911500Y311000D02*
X914500Y311000D01*
X911500Y311000D02*
X911500Y308000D01*
X914500Y308000D01*
X914500Y301000D01*
X785500Y301000D02*
X785500Y308000D01*
X788500Y308000D01*
X788500Y311000D01*
X785500Y311000D01*
X788500Y311000D02*
X911500Y311000D01*
X914500Y301000D02*
X785500Y301000D01*
X914500Y345000D02*
X914500Y355000D01*
X902500Y355000D01*
X785500Y355000D02*
X785500Y345000D01*
X785500Y355000D02*
X797500Y355000D01*
X914500Y315000D02*
X914500Y311000D01*
X785500Y311000D02*
X785500Y315000D01*
D12*
X919492Y383754D02*
X919492Y388946D01*
X919490Y389059D01*
X919484Y389172D01*
X919474Y389285D01*
X919460Y389398D01*
X919443Y389510D01*
X919421Y389621D01*
X919396Y389731D01*
X919366Y389841D01*
X919333Y389949D01*
X919296Y390056D01*
X919256Y390162D01*
X919211Y390266D01*
X919163Y390369D01*
X919112Y390470D01*
X919057Y390569D01*
X918999Y390666D01*
X918937Y390761D01*
X918872Y390854D01*
X918804Y390944D01*
X918733Y391032D01*
X918658Y391118D01*
X918581Y391201D01*
X918501Y391281D01*
X918418Y391358D01*
X918332Y391433D01*
X918244Y391504D01*
X918154Y391572D01*
X918061Y391637D01*
X917966Y391699D01*
X917869Y391757D01*
X917770Y391812D01*
X917669Y391863D01*
X917566Y391911D01*
X917462Y391956D01*
X917356Y391996D01*
X917249Y392033D01*
X917141Y392066D01*
X917031Y392096D01*
X916921Y392121D01*
X916810Y392143D01*
X916698Y392160D01*
X916585Y392174D01*
X916472Y392184D01*
X916359Y392190D01*
X916246Y392192D01*
X916133Y392190D01*
X916020Y392184D01*
X915907Y392174D01*
X915794Y392160D01*
X915682Y392143D01*
X915571Y392121D01*
X915461Y392096D01*
X915351Y392066D01*
X915243Y392033D01*
X915136Y391996D01*
X915030Y391956D01*
X914926Y391911D01*
X914823Y391863D01*
X914722Y391812D01*
X914623Y391757D01*
X914526Y391699D01*
X914431Y391637D01*
X914338Y391572D01*
X914248Y391504D01*
X914160Y391433D01*
X914074Y391358D01*
X913991Y391281D01*
X913911Y391201D01*
X913834Y391118D01*
X913759Y391032D01*
X913688Y390944D01*
X913620Y390854D01*
X913555Y390761D01*
X913493Y390666D01*
X913435Y390569D01*
X913380Y390470D01*
X913329Y390369D01*
X913281Y390266D01*
X913236Y390162D01*
X913196Y390056D01*
X913159Y389949D01*
X913126Y389841D01*
X913096Y389731D01*
X913071Y389621D01*
X913049Y389510D01*
X913032Y389398D01*
X913018Y389285D01*
X913008Y389172D01*
X913002Y389059D01*
X913000Y388946D01*
X913001Y388946D02*
X913001Y383754D01*
X913000Y383754D02*
X913002Y383641D01*
X913008Y383528D01*
X913018Y383415D01*
X913032Y383302D01*
X913049Y383190D01*
X913071Y383079D01*
X913096Y382969D01*
X913126Y382859D01*
X913159Y382751D01*
X913196Y382644D01*
X913236Y382538D01*
X913281Y382434D01*
X913329Y382331D01*
X913380Y382230D01*
X913435Y382131D01*
X913493Y382034D01*
X913555Y381939D01*
X913620Y381846D01*
X913688Y381756D01*
X913759Y381668D01*
X913834Y381582D01*
X913911Y381499D01*
X913991Y381419D01*
X914074Y381342D01*
X914160Y381267D01*
X914248Y381196D01*
X914338Y381128D01*
X914431Y381063D01*
X914526Y381001D01*
X914623Y380943D01*
X914722Y380888D01*
X914823Y380837D01*
X914926Y380789D01*
X915030Y380744D01*
X915136Y380704D01*
X915243Y380667D01*
X915351Y380634D01*
X915461Y380604D01*
X915571Y380579D01*
X915682Y380557D01*
X915794Y380540D01*
X915907Y380526D01*
X916020Y380516D01*
X916133Y380510D01*
X916246Y380508D01*
X916359Y380510D01*
X916472Y380516D01*
X916585Y380526D01*
X916698Y380540D01*
X916810Y380557D01*
X916921Y380579D01*
X917031Y380604D01*
X917141Y380634D01*
X917249Y380667D01*
X917356Y380704D01*
X917462Y380744D01*
X917566Y380789D01*
X917669Y380837D01*
X917770Y380888D01*
X917869Y380943D01*
X917966Y381001D01*
X918061Y381063D01*
X918154Y381128D01*
X918244Y381196D01*
X918332Y381267D01*
X918418Y381342D01*
X918501Y381419D01*
X918581Y381499D01*
X918658Y381582D01*
X918733Y381668D01*
X918804Y381756D01*
X918872Y381846D01*
X918937Y381939D01*
X918999Y382034D01*
X919057Y382131D01*
X919112Y382230D01*
X919163Y382331D01*
X919211Y382434D01*
X919256Y382538D01*
X919296Y382644D01*
X919333Y382751D01*
X919366Y382859D01*
X919396Y382969D01*
X919421Y383079D01*
X919443Y383190D01*
X919460Y383302D01*
X919474Y383415D01*
X919484Y383528D01*
X919490Y383641D01*
X919492Y383754D01*
X907681Y383754D02*
X907681Y392192D01*
X907681Y383754D02*
X907679Y383641D01*
X907673Y383528D01*
X907663Y383415D01*
X907649Y383302D01*
X907632Y383190D01*
X907610Y383079D01*
X907585Y382969D01*
X907555Y382859D01*
X907522Y382751D01*
X907485Y382644D01*
X907445Y382538D01*
X907400Y382434D01*
X907352Y382331D01*
X907301Y382230D01*
X907246Y382131D01*
X907188Y382034D01*
X907126Y381939D01*
X907061Y381846D01*
X906993Y381756D01*
X906922Y381668D01*
X906847Y381582D01*
X906770Y381499D01*
X906690Y381419D01*
X906607Y381342D01*
X906521Y381267D01*
X906433Y381196D01*
X906343Y381128D01*
X906250Y381063D01*
X906155Y381001D01*
X906058Y380943D01*
X905959Y380888D01*
X905858Y380837D01*
X905755Y380789D01*
X905651Y380744D01*
X905545Y380704D01*
X905438Y380667D01*
X905330Y380634D01*
X905220Y380604D01*
X905110Y380579D01*
X904999Y380557D01*
X904887Y380540D01*
X904774Y380526D01*
X904661Y380516D01*
X904548Y380510D01*
X904435Y380508D01*
X904322Y380510D01*
X904209Y380516D01*
X904096Y380526D01*
X903983Y380540D01*
X903871Y380557D01*
X903760Y380579D01*
X903650Y380604D01*
X903540Y380634D01*
X903432Y380667D01*
X903325Y380704D01*
X903219Y380744D01*
X903115Y380789D01*
X903012Y380837D01*
X902911Y380888D01*
X902812Y380943D01*
X902715Y381001D01*
X902620Y381063D01*
X902527Y381128D01*
X902437Y381196D01*
X902349Y381267D01*
X902263Y381342D01*
X902180Y381419D01*
X902100Y381499D01*
X902023Y381582D01*
X901948Y381668D01*
X901877Y381756D01*
X901809Y381846D01*
X901744Y381939D01*
X901682Y382034D01*
X901624Y382131D01*
X901569Y382230D01*
X901518Y382331D01*
X901470Y382434D01*
X901425Y382538D01*
X901385Y382644D01*
X901348Y382751D01*
X901315Y382859D01*
X901285Y382969D01*
X901260Y383079D01*
X901238Y383190D01*
X901221Y383302D01*
X901207Y383415D01*
X901197Y383528D01*
X901191Y383641D01*
X901189Y383754D01*
X901190Y383754D02*
X901190Y392192D01*
X893387Y392192D02*
X893387Y380508D01*
X896632Y392192D02*
X890141Y392192D01*
X883368Y392192D02*
X885964Y383104D01*
X879473Y383104D01*
X881420Y385701D02*
X881420Y380508D01*
D11*
X1161500Y311000D02*
X1164500Y311000D01*
X1161500Y311000D02*
X1161500Y308000D01*
X1164500Y308000D01*
X1164500Y301000D01*
X1035500Y301000D02*
X1035500Y308000D01*
X1038500Y308000D01*
X1038500Y311000D01*
X1035500Y311000D01*
X1038500Y311000D02*
X1161500Y311000D01*
X1164500Y301000D02*
X1035500Y301000D01*
X1164500Y345000D02*
X1164500Y355000D01*
X1152500Y355000D01*
X1035500Y355000D02*
X1035500Y345000D01*
X1035500Y355000D02*
X1047500Y355000D01*
X1164500Y315000D02*
X1164500Y311000D01*
X1035500Y311000D02*
X1035500Y315000D01*
D12*
X1179492Y383754D02*
X1179492Y388946D01*
X1179490Y389059D01*
X1179484Y389172D01*
X1179474Y389285D01*
X1179460Y389398D01*
X1179443Y389510D01*
X1179421Y389621D01*
X1179396Y389731D01*
X1179366Y389841D01*
X1179333Y389949D01*
X1179296Y390056D01*
X1179256Y390162D01*
X1179211Y390266D01*
X1179163Y390369D01*
X1179112Y390470D01*
X1179057Y390569D01*
X1178999Y390666D01*
X1178937Y390761D01*
X1178872Y390854D01*
X1178804Y390944D01*
X1178733Y391032D01*
X1178658Y391118D01*
X1178581Y391201D01*
X1178501Y391281D01*
X1178418Y391358D01*
X1178332Y391433D01*
X1178244Y391504D01*
X1178154Y391572D01*
X1178061Y391637D01*
X1177966Y391699D01*
X1177869Y391757D01*
X1177770Y391812D01*
X1177669Y391863D01*
X1177566Y391911D01*
X1177462Y391956D01*
X1177356Y391996D01*
X1177249Y392033D01*
X1177141Y392066D01*
X1177031Y392096D01*
X1176921Y392121D01*
X1176810Y392143D01*
X1176698Y392160D01*
X1176585Y392174D01*
X1176472Y392184D01*
X1176359Y392190D01*
X1176246Y392192D01*
X1176133Y392190D01*
X1176020Y392184D01*
X1175907Y392174D01*
X1175794Y392160D01*
X1175682Y392143D01*
X1175571Y392121D01*
X1175461Y392096D01*
X1175351Y392066D01*
X1175243Y392033D01*
X1175136Y391996D01*
X1175030Y391956D01*
X1174926Y391911D01*
X1174823Y391863D01*
X1174722Y391812D01*
X1174623Y391757D01*
X1174526Y391699D01*
X1174431Y391637D01*
X1174338Y391572D01*
X1174248Y391504D01*
X1174160Y391433D01*
X1174074Y391358D01*
X1173991Y391281D01*
X1173911Y391201D01*
X1173834Y391118D01*
X1173759Y391032D01*
X1173688Y390944D01*
X1173620Y390854D01*
X1173555Y390761D01*
X1173493Y390666D01*
X1173435Y390569D01*
X1173380Y390470D01*
X1173329Y390369D01*
X1173281Y390266D01*
X1173236Y390162D01*
X1173196Y390056D01*
X1173159Y389949D01*
X1173126Y389841D01*
X1173096Y389731D01*
X1173071Y389621D01*
X1173049Y389510D01*
X1173032Y389398D01*
X1173018Y389285D01*
X1173008Y389172D01*
X1173002Y389059D01*
X1173000Y388946D01*
X1173001Y388946D02*
X1173001Y383754D01*
X1173000Y383754D02*
X1173002Y383641D01*
X1173008Y383528D01*
X1173018Y383415D01*
X1173032Y383302D01*
X1173049Y383190D01*
X1173071Y383079D01*
X1173096Y382969D01*
X1173126Y382859D01*
X1173159Y382751D01*
X1173196Y382644D01*
X1173236Y382538D01*
X1173281Y382434D01*
X1173329Y382331D01*
X1173380Y382230D01*
X1173435Y382131D01*
X1173493Y382034D01*
X1173555Y381939D01*
X1173620Y381846D01*
X1173688Y381756D01*
X1173759Y381668D01*
X1173834Y381582D01*
X1173911Y381499D01*
X1173991Y381419D01*
X1174074Y381342D01*
X1174160Y381267D01*
X1174248Y381196D01*
X1174338Y381128D01*
X1174431Y381063D01*
X1174526Y381001D01*
X1174623Y380943D01*
X1174722Y380888D01*
X1174823Y380837D01*
X1174926Y380789D01*
X1175030Y380744D01*
X1175136Y380704D01*
X1175243Y380667D01*
X1175351Y380634D01*
X1175461Y380604D01*
X1175571Y380579D01*
X1175682Y380557D01*
X1175794Y380540D01*
X1175907Y380526D01*
X1176020Y380516D01*
X1176133Y380510D01*
X1176246Y380508D01*
X1176359Y380510D01*
X1176472Y380516D01*
X1176585Y380526D01*
X1176698Y380540D01*
X1176810Y380557D01*
X1176921Y380579D01*
X1177031Y380604D01*
X1177141Y380634D01*
X1177249Y380667D01*
X1177356Y380704D01*
X1177462Y380744D01*
X1177566Y380789D01*
X1177669Y380837D01*
X1177770Y380888D01*
X1177869Y380943D01*
X1177966Y381001D01*
X1178061Y381063D01*
X1178154Y381128D01*
X1178244Y381196D01*
X1178332Y381267D01*
X1178418Y381342D01*
X1178501Y381419D01*
X1178581Y381499D01*
X1178658Y381582D01*
X1178733Y381668D01*
X1178804Y381756D01*
X1178872Y381846D01*
X1178937Y381939D01*
X1178999Y382034D01*
X1179057Y382131D01*
X1179112Y382230D01*
X1179163Y382331D01*
X1179211Y382434D01*
X1179256Y382538D01*
X1179296Y382644D01*
X1179333Y382751D01*
X1179366Y382859D01*
X1179396Y382969D01*
X1179421Y383079D01*
X1179443Y383190D01*
X1179460Y383302D01*
X1179474Y383415D01*
X1179484Y383528D01*
X1179490Y383641D01*
X1179492Y383754D01*
X1167681Y383754D02*
X1167681Y392192D01*
X1167681Y383754D02*
X1167679Y383641D01*
X1167673Y383528D01*
X1167663Y383415D01*
X1167649Y383302D01*
X1167632Y383190D01*
X1167610Y383079D01*
X1167585Y382969D01*
X1167555Y382859D01*
X1167522Y382751D01*
X1167485Y382644D01*
X1167445Y382538D01*
X1167400Y382434D01*
X1167352Y382331D01*
X1167301Y382230D01*
X1167246Y382131D01*
X1167188Y382034D01*
X1167126Y381939D01*
X1167061Y381846D01*
X1166993Y381756D01*
X1166922Y381668D01*
X1166847Y381582D01*
X1166770Y381499D01*
X1166690Y381419D01*
X1166607Y381342D01*
X1166521Y381267D01*
X1166433Y381196D01*
X1166343Y381128D01*
X1166250Y381063D01*
X1166155Y381001D01*
X1166058Y380943D01*
X1165959Y380888D01*
X1165858Y380837D01*
X1165755Y380789D01*
X1165651Y380744D01*
X1165545Y380704D01*
X1165438Y380667D01*
X1165330Y380634D01*
X1165220Y380604D01*
X1165110Y380579D01*
X1164999Y380557D01*
X1164887Y380540D01*
X1164774Y380526D01*
X1164661Y380516D01*
X1164548Y380510D01*
X1164435Y380508D01*
X1164322Y380510D01*
X1164209Y380516D01*
X1164096Y380526D01*
X1163983Y380540D01*
X1163871Y380557D01*
X1163760Y380579D01*
X1163650Y380604D01*
X1163540Y380634D01*
X1163432Y380667D01*
X1163325Y380704D01*
X1163219Y380744D01*
X1163115Y380789D01*
X1163012Y380837D01*
X1162911Y380888D01*
X1162812Y380943D01*
X1162715Y381001D01*
X1162620Y381063D01*
X1162527Y381128D01*
X1162437Y381196D01*
X1162349Y381267D01*
X1162263Y381342D01*
X1162180Y381419D01*
X1162100Y381499D01*
X1162023Y381582D01*
X1161948Y381668D01*
X1161877Y381756D01*
X1161809Y381846D01*
X1161744Y381939D01*
X1161682Y382034D01*
X1161624Y382131D01*
X1161569Y382230D01*
X1161518Y382331D01*
X1161470Y382434D01*
X1161425Y382538D01*
X1161385Y382644D01*
X1161348Y382751D01*
X1161315Y382859D01*
X1161285Y382969D01*
X1161260Y383079D01*
X1161238Y383190D01*
X1161221Y383302D01*
X1161207Y383415D01*
X1161197Y383528D01*
X1161191Y383641D01*
X1161189Y383754D01*
X1161190Y383754D02*
X1161190Y392192D01*
X1153387Y392192D02*
X1153387Y380508D01*
X1156632Y392192D02*
X1150141Y392192D01*
X1145964Y380508D02*
X1142069Y380508D01*
X1141970Y380510D01*
X1141870Y380516D01*
X1141771Y380525D01*
X1141673Y380538D01*
X1141575Y380555D01*
X1141477Y380576D01*
X1141381Y380601D01*
X1141286Y380629D01*
X1141192Y380661D01*
X1141099Y380696D01*
X1141007Y380735D01*
X1140917Y380778D01*
X1140829Y380823D01*
X1140742Y380873D01*
X1140658Y380925D01*
X1140575Y380981D01*
X1140495Y381039D01*
X1140417Y381101D01*
X1140342Y381166D01*
X1140269Y381234D01*
X1140199Y381304D01*
X1140131Y381377D01*
X1140066Y381452D01*
X1140004Y381530D01*
X1139946Y381610D01*
X1139890Y381693D01*
X1139838Y381777D01*
X1139788Y381864D01*
X1139743Y381952D01*
X1139700Y382042D01*
X1139661Y382134D01*
X1139626Y382227D01*
X1139594Y382321D01*
X1139566Y382416D01*
X1139541Y382512D01*
X1139520Y382610D01*
X1139503Y382708D01*
X1139490Y382806D01*
X1139481Y382905D01*
X1139475Y383005D01*
X1139473Y383104D01*
X1139473Y384403D01*
X1139475Y384502D01*
X1139481Y384602D01*
X1139490Y384701D01*
X1139503Y384799D01*
X1139520Y384897D01*
X1139541Y384995D01*
X1139566Y385091D01*
X1139594Y385186D01*
X1139626Y385280D01*
X1139661Y385373D01*
X1139700Y385465D01*
X1139743Y385555D01*
X1139788Y385643D01*
X1139838Y385730D01*
X1139890Y385814D01*
X1139946Y385897D01*
X1140004Y385977D01*
X1140066Y386055D01*
X1140131Y386130D01*
X1140199Y386203D01*
X1140269Y386273D01*
X1140342Y386341D01*
X1140417Y386406D01*
X1140495Y386468D01*
X1140575Y386526D01*
X1140658Y386582D01*
X1140742Y386634D01*
X1140829Y386684D01*
X1140917Y386729D01*
X1141007Y386772D01*
X1141099Y386811D01*
X1141192Y386846D01*
X1141286Y386878D01*
X1141381Y386906D01*
X1141477Y386931D01*
X1141575Y386952D01*
X1141673Y386969D01*
X1141771Y386982D01*
X1141870Y386991D01*
X1141970Y386997D01*
X1142069Y386999D01*
X1145964Y386999D01*
X1145964Y392192D01*
X1139473Y392192D01*
D13*
X1244654Y6000D03*
X1244654Y6508D03*
X1244654Y7016D03*
X1244654Y7524D03*
X1244654Y8032D03*
X1244654Y8540D03*
X1244654Y9048D03*
X1244654Y9556D03*
X1244654Y10064D03*
X1244654Y10572D03*
X1244654Y11080D03*
X1244654Y11588D03*
X1244654Y12096D03*
X1244654Y12604D03*
X1244654Y13112D03*
X1244654Y13620D03*
X1244654Y14128D03*
X1244654Y14636D03*
X1244654Y15144D03*
D14*
X1342444Y15652D03*
D15*
X1151690Y15652D03*
D16*
X1342952Y16160D03*
D17*
X1150928Y16160D03*
D18*
X1343206Y16668D03*
D19*
X1150674Y16668D03*
D20*
X1343460Y17176D03*
D21*
X1150420Y17176D03*
D20*
X1343460Y17684D03*
D21*
X1150420Y17684D03*
D22*
X1343714Y18192D03*
D21*
X1150420Y18192D03*
D22*
X1343714Y18700D03*
D23*
X1221794Y18700D03*
D24*
X1192076Y18700D03*
X1181408Y18700D03*
D25*
X1170486Y18700D03*
D26*
X1150166Y18700D03*
D22*
X1343714Y19208D03*
D27*
X1329998Y19208D03*
X1319838Y19208D03*
X1310186Y19208D03*
X1297994Y19208D03*
X1277674Y19208D03*
D28*
X1249480Y19208D03*
D23*
X1221794Y19208D03*
D29*
X1204522Y19208D03*
D28*
X1192076Y19208D03*
X1181916Y19208D03*
X1171248Y19208D03*
X1169216Y19208D03*
D26*
X1150166Y19208D03*
D22*
X1343714Y19716D03*
X1329998Y19716D03*
X1319838Y19716D03*
D20*
X1309932Y19716D03*
D22*
X1297994Y19716D03*
D30*
X1286056Y19716D03*
D25*
X1278182Y19716D03*
D27*
X1274626Y19716D03*
D30*
X1269292Y19716D03*
D27*
X1261926Y19716D03*
D30*
X1257100Y19716D03*
D25*
X1249734Y19716D03*
D27*
X1246178Y19716D03*
D30*
X1240844Y19716D03*
X1235764Y19716D03*
D23*
X1221794Y19716D03*
D29*
X1204522Y19716D03*
D27*
X1191314Y19716D03*
D28*
X1182424Y19716D03*
D23*
X1168454Y19716D03*
D26*
X1150166Y19716D03*
D22*
X1343714Y20224D03*
D18*
X1330506Y20224D03*
X1320346Y20224D03*
D14*
X1309932Y20224D03*
D27*
X1300026Y20224D03*
D28*
X1295708Y20224D03*
D30*
X1286056Y20224D03*
D25*
X1278182Y20224D03*
D27*
X1274626Y20224D03*
D30*
X1269292Y20224D03*
D25*
X1261926Y20224D03*
D30*
X1257100Y20224D03*
D31*
X1249988Y20224D03*
D27*
X1246178Y20224D03*
D30*
X1240844Y20224D03*
X1235764Y20224D03*
D23*
X1221794Y20224D03*
X1208078Y20224D03*
X1204522Y20224D03*
D28*
X1190552Y20224D03*
X1182932Y20224D03*
D23*
X1168454Y20224D03*
D26*
X1150166Y20224D03*
D22*
X1343714Y20732D03*
D16*
X1330760Y20732D03*
D32*
X1320346Y20732D03*
D14*
X1309932Y20732D03*
D28*
X1300788Y20732D03*
D30*
X1286056Y20732D03*
X1278944Y20732D03*
D27*
X1274626Y20732D03*
D30*
X1269292Y20732D03*
D25*
X1261926Y20732D03*
D31*
X1257100Y20732D03*
D30*
X1250496Y20732D03*
D27*
X1246178Y20732D03*
D30*
X1240844Y20732D03*
X1235764Y20732D03*
D23*
X1221794Y20732D03*
X1208078Y20732D03*
X1204522Y20732D03*
D28*
X1190044Y20732D03*
X1183440Y20732D03*
X1168708Y20732D03*
D26*
X1150166Y20732D03*
D22*
X1343714Y21240D03*
D25*
X1332538Y21240D03*
X1322378Y21240D03*
X1312726Y21240D03*
D31*
X1307392Y21240D03*
D28*
X1301296Y21240D03*
D30*
X1286056Y21240D03*
X1278944Y21240D03*
D27*
X1274626Y21240D03*
X1269038Y21240D03*
D25*
X1261926Y21240D03*
D31*
X1257100Y21240D03*
D30*
X1250496Y21240D03*
D27*
X1246178Y21240D03*
D30*
X1240844Y21240D03*
X1235764Y21240D03*
D23*
X1221794Y21240D03*
X1208078Y21240D03*
X1204522Y21240D03*
D28*
X1189536Y21240D03*
X1183948Y21240D03*
D33*
X1169724Y21240D03*
D26*
X1150166Y21240D03*
D22*
X1343714Y21748D03*
D25*
X1333046Y21748D03*
X1322886Y21748D03*
X1312726Y21748D03*
X1307138Y21748D03*
D23*
X1301550Y21748D03*
D28*
X1298248Y21748D03*
D27*
X1295454Y21748D03*
D30*
X1286056Y21748D03*
X1278944Y21748D03*
D27*
X1274626Y21748D03*
X1269038Y21748D03*
D34*
X1261926Y21748D03*
D31*
X1257100Y21748D03*
D30*
X1250496Y21748D03*
D27*
X1246178Y21748D03*
D30*
X1240844Y21748D03*
X1235764Y21748D03*
D23*
X1226874Y21748D03*
X1221794Y21748D03*
X1216714Y21748D03*
X1208078Y21748D03*
X1204522Y21748D03*
D28*
X1189028Y21748D03*
X1184456Y21748D03*
D33*
X1169724Y21748D03*
D26*
X1150166Y21748D03*
D22*
X1343714Y22256D03*
D30*
X1333300Y22256D03*
X1323140Y22256D03*
X1312980Y22256D03*
X1306884Y22256D03*
D23*
X1301550Y22256D03*
D18*
X1296470Y22256D03*
D30*
X1286056Y22256D03*
D25*
X1278182Y22256D03*
D30*
X1274372Y22256D03*
D27*
X1269038Y22256D03*
X1262942Y22256D03*
D28*
X1260656Y22256D03*
X1258116Y22256D03*
D27*
X1255830Y22256D03*
D25*
X1249734Y22256D03*
D27*
X1246178Y22256D03*
D30*
X1240844Y22256D03*
X1235764Y22256D03*
D35*
X1221794Y22256D03*
D23*
X1208078Y22256D03*
X1204522Y22256D03*
X1188774Y22256D03*
D28*
X1184964Y22256D03*
D23*
X1169470Y22256D03*
D26*
X1150166Y22256D03*
D22*
X1343714Y22764D03*
D30*
X1333300Y22764D03*
X1323140Y22764D03*
X1312980Y22764D03*
X1306884Y22764D03*
D23*
X1302058Y22764D03*
D28*
X1298756Y22764D03*
D27*
X1295962Y22764D03*
D23*
X1293422Y22764D03*
D30*
X1286056Y22764D03*
D18*
X1276150Y22764D03*
D27*
X1269038Y22764D03*
X1262942Y22764D03*
D28*
X1260656Y22764D03*
D27*
X1258370Y22764D03*
D28*
X1255576Y22764D03*
D20*
X1247956Y22764D03*
D30*
X1240844Y22764D03*
X1235764Y22764D03*
D35*
X1221794Y22764D03*
D23*
X1208078Y22764D03*
X1204522Y22764D03*
X1188266Y22764D03*
X1185218Y22764D03*
D28*
X1168708Y22764D03*
D26*
X1150166Y22764D03*
D22*
X1343714Y23272D03*
D30*
X1333300Y23272D03*
X1323140Y23272D03*
X1312980Y23272D03*
X1306884Y23272D03*
D23*
X1302058Y23272D03*
X1299010Y23272D03*
X1295962Y23272D03*
X1292914Y23272D03*
D30*
X1286056Y23272D03*
D36*
X1275388Y23272D03*
D27*
X1269038Y23272D03*
X1263450Y23272D03*
D34*
X1259386Y23272D03*
D27*
X1255322Y23272D03*
D36*
X1246940Y23272D03*
D30*
X1240844Y23272D03*
X1235764Y23272D03*
D23*
X1226874Y23272D03*
X1221794Y23272D03*
X1216714Y23272D03*
X1208078Y23272D03*
X1204522Y23272D03*
X1188266Y23272D03*
X1185726Y23272D03*
D27*
X1167438Y23272D03*
D24*
X1164136Y23272D03*
D26*
X1150166Y23272D03*
D22*
X1343714Y23780D03*
D30*
X1333300Y23780D03*
X1323140Y23780D03*
X1312980Y23780D03*
X1306884Y23780D03*
D24*
X1301804Y23780D03*
D28*
X1298756Y23780D03*
X1295708Y23780D03*
D23*
X1292914Y23780D03*
D30*
X1286056Y23780D03*
D25*
X1274626Y23780D03*
D27*
X1269038Y23780D03*
X1263450Y23780D03*
D31*
X1259132Y23780D03*
D27*
X1255322Y23780D03*
D25*
X1246178Y23780D03*
X1240590Y23780D03*
D30*
X1235764Y23780D03*
D23*
X1226874Y23780D03*
X1221794Y23780D03*
X1216714Y23780D03*
X1208078Y23780D03*
X1204522Y23780D03*
X1187758Y23780D03*
X1185726Y23780D03*
X1175058Y23780D03*
D16*
X1169724Y23780D03*
D23*
X1164390Y23780D03*
D26*
X1150166Y23780D03*
D22*
X1343714Y24288D03*
D30*
X1333300Y24288D03*
X1323140Y24288D03*
D25*
X1312726Y24288D03*
D30*
X1306884Y24288D03*
D23*
X1301550Y24288D03*
D28*
X1298756Y24288D03*
X1295708Y24288D03*
D23*
X1292914Y24288D03*
D30*
X1286056Y24288D03*
X1274372Y24288D03*
X1268784Y24288D03*
X1263704Y24288D03*
D25*
X1259386Y24288D03*
D30*
X1255068Y24288D03*
X1245924Y24288D03*
D14*
X1238304Y24288D03*
D23*
X1226874Y24288D03*
X1221794Y24288D03*
X1216714Y24288D03*
D28*
X1208332Y24288D03*
D20*
X1202236Y24288D03*
D23*
X1187758Y24288D03*
X1186234Y24288D03*
X1175058Y24288D03*
D18*
X1169978Y24288D03*
D28*
X1164136Y24288D03*
D21*
X1150420Y24288D03*
D22*
X1343714Y24796D03*
D30*
X1333300Y24796D03*
X1323140Y24796D03*
D25*
X1312726Y24796D03*
X1306630Y24796D03*
D23*
X1301550Y24796D03*
D34*
X1296978Y24796D03*
D28*
X1292660Y24796D03*
D30*
X1286056Y24796D03*
D18*
X1276150Y24796D03*
D30*
X1268784Y24796D03*
X1263704Y24796D03*
D25*
X1259386Y24796D03*
D27*
X1254814Y24796D03*
D18*
X1247702Y24796D03*
D14*
X1238304Y24796D03*
D23*
X1226874Y24796D03*
X1221794Y24796D03*
X1216714Y24796D03*
D28*
X1208332Y24796D03*
D18*
X1201982Y24796D03*
D30*
X1186996Y24796D03*
D23*
X1175058Y24796D03*
X1163882Y24796D03*
D21*
X1150420Y24796D03*
D22*
X1343714Y25304D03*
D25*
X1333046Y25304D03*
X1322886Y25304D03*
X1312726Y25304D03*
X1306630Y25304D03*
D28*
X1301296Y25304D03*
D34*
X1296470Y25304D03*
D23*
X1292914Y25304D03*
D30*
X1286056Y25304D03*
D20*
X1276404Y25304D03*
D30*
X1268784Y25304D03*
D27*
X1263958Y25304D03*
D30*
X1259132Y25304D03*
X1254560Y25304D03*
D20*
X1247956Y25304D03*
D30*
X1240844Y25304D03*
D34*
X1237034Y25304D03*
D23*
X1226874Y25304D03*
X1221794Y25304D03*
X1216714Y25304D03*
X1208078Y25304D03*
D28*
X1204268Y25304D03*
D27*
X1186742Y25304D03*
D29*
X1169470Y25304D03*
D21*
X1150420Y25304D03*
D22*
X1343714Y25812D03*
D25*
X1332538Y25812D03*
X1322378Y25812D03*
X1312726Y25812D03*
X1306630Y25812D03*
D23*
X1301042Y25812D03*
X1292914Y25812D03*
D30*
X1286056Y25812D03*
D36*
X1276404Y25812D03*
X1247956Y25812D03*
D30*
X1236780Y25812D03*
D23*
X1226874Y25812D03*
X1221794Y25812D03*
X1216714Y25812D03*
X1208078Y25812D03*
D28*
X1204268Y25812D03*
X1186996Y25812D03*
D37*
X1169724Y25812D03*
D21*
X1150420Y25812D03*
D22*
X1343714Y26320D03*
D34*
X1332030Y26320D03*
D24*
X1327204Y26320D03*
D34*
X1321870Y26320D03*
D24*
X1317044Y26320D03*
D30*
X1312472Y26320D03*
D25*
X1306630Y26320D03*
D28*
X1300788Y26320D03*
X1293168Y26320D03*
D14*
X1286056Y26320D03*
D23*
X1226874Y26320D03*
X1221794Y26320D03*
X1216714Y26320D03*
X1208078Y26320D03*
D28*
X1204268Y26320D03*
X1186996Y26320D03*
D23*
X1174550Y26320D03*
D24*
X1170740Y26320D03*
X1168708Y26320D03*
D23*
X1164898Y26320D03*
D21*
X1150420Y26320D03*
D22*
X1343714Y26828D03*
D16*
X1330252Y26828D03*
X1320092Y26828D03*
D30*
X1312472Y26828D03*
D25*
X1306630Y26828D03*
D27*
X1300026Y26828D03*
D28*
X1293676Y26828D03*
D38*
X1285802Y26828D03*
D23*
X1226874Y26828D03*
X1221794Y26828D03*
X1216714Y26828D03*
D24*
X1208332Y26828D03*
D28*
X1204268Y26828D03*
D35*
X1186742Y26828D03*
D25*
X1173534Y26828D03*
X1169470Y26828D03*
D28*
X1165152Y26828D03*
D21*
X1150420Y26828D03*
D22*
X1343714Y27336D03*
D18*
X1329998Y27336D03*
X1319838Y27336D03*
D30*
X1312472Y27336D03*
X1306376Y27336D03*
X1298756Y27336D03*
D24*
X1296724Y27336D03*
D30*
X1294692Y27336D03*
D38*
X1285802Y27336D03*
D30*
X1268784Y27336D03*
D35*
X1221794Y27336D03*
D23*
X1204522Y27336D03*
D37*
X1186996Y27336D03*
D30*
X1173280Y27336D03*
D27*
X1169470Y27336D03*
D25*
X1165914Y27336D03*
D26*
X1150166Y27336D03*
D22*
X1343714Y27844D03*
X1329490Y27844D03*
X1319330Y27844D03*
D30*
X1312472Y27844D03*
X1306376Y27844D03*
D22*
X1296470Y27844D03*
D38*
X1285802Y27844D03*
D30*
X1268784Y27844D03*
D35*
X1221794Y27844D03*
D23*
X1204522Y27844D03*
X1186742Y27844D03*
D24*
X1174296Y27844D03*
D27*
X1169470Y27844D03*
D23*
X1164898Y27844D03*
D26*
X1150166Y27844D03*
D22*
X1343714Y28352D03*
D28*
X1221540Y28352D03*
D23*
X1204522Y28352D03*
X1186742Y28352D03*
D30*
X1173280Y28352D03*
D24*
X1168708Y28352D03*
D25*
X1165914Y28352D03*
D26*
X1150166Y28352D03*
D22*
X1343714Y28860D03*
D23*
X1221794Y28860D03*
D28*
X1204268Y28860D03*
D23*
X1186742Y28860D03*
D30*
X1173280Y28860D03*
D23*
X1170486Y28860D03*
D24*
X1168708Y28860D03*
D30*
X1165660Y28860D03*
D26*
X1150166Y28860D03*
D22*
X1343714Y29368D03*
D23*
X1221794Y29368D03*
D35*
X1204522Y29368D03*
D23*
X1186742Y29368D03*
D24*
X1174296Y29368D03*
D27*
X1169470Y29368D03*
D23*
X1164898Y29368D03*
D26*
X1150166Y29368D03*
D22*
X1343714Y29876D03*
D23*
X1221794Y29876D03*
D35*
X1204522Y29876D03*
D23*
X1186742Y29876D03*
D30*
X1173280Y29876D03*
X1169724Y29876D03*
D25*
X1165914Y29876D03*
D26*
X1150166Y29876D03*
D22*
X1343714Y30384D03*
D23*
X1221794Y30384D03*
X1172518Y30384D03*
D24*
X1168708Y30384D03*
D21*
X1150420Y30384D03*
D20*
X1343460Y30892D03*
D21*
X1150420Y30892D03*
D20*
X1343460Y31400D03*
D19*
X1150674Y31400D03*
D18*
X1343206Y31908D03*
D17*
X1150928Y31908D03*
D32*
X1342698Y32416D03*
D39*
X1151182Y32416D03*
D13*
X1244654Y32924D03*
X1244654Y33432D03*
X1244654Y33940D03*
X1244654Y34448D03*
X1244654Y34956D03*
X1244654Y35464D03*
X1244654Y35972D03*
X1244654Y36480D03*
X1244654Y36988D03*
D40*
X1336602Y37496D03*
D41*
X1231192Y37496D03*
D15*
X1337618Y38004D03*
D42*
X1230176Y38004D03*
D17*
X1338380Y38512D03*
D43*
X1229414Y38512D03*
D21*
X1338888Y39020D03*
D44*
X1228906Y39020D03*
D45*
X1339396Y39528D03*
D46*
X1228398Y39528D03*
D47*
X1339904Y40036D03*
D48*
X1227890Y40036D03*
D29*
X1340158Y40544D03*
D49*
X1243384Y40544D03*
D50*
X1157786Y40544D03*
D37*
X1340412Y41052D03*
D51*
X1243384Y41052D03*
D52*
X1157278Y41052D03*
D33*
X1340920Y41560D03*
D53*
X1243130Y41560D03*
D54*
X1157024Y41560D03*
D55*
X1341174Y42068D03*
D56*
X1242876Y42068D03*
D57*
X1156770Y42068D03*
D58*
X1341428Y42576D03*
D20*
X1323140Y42576D03*
D59*
X1242368Y42576D03*
D60*
X1156516Y42576D03*
D61*
X1341682Y43084D03*
D58*
X1323140Y43084D03*
D62*
X1242368Y43084D03*
D60*
X1156516Y43084D03*
D63*
X1341936Y43592D03*
D37*
X1323140Y43592D03*
D53*
X1240590Y43592D03*
D64*
X1156262Y43592D03*
D38*
X1342190Y44100D03*
D26*
X1322886Y44100D03*
D53*
X1240082Y44100D03*
D64*
X1156262Y44100D03*
D14*
X1342444Y44608D03*
D17*
X1323140Y44608D03*
D65*
X1285802Y44608D03*
D47*
X1255576Y44608D03*
D63*
X1242368Y44608D03*
D66*
X1226112Y44608D03*
D55*
X1209602Y44608D03*
D16*
X1197664Y44608D03*
D67*
X1181916Y44608D03*
D64*
X1156262Y44608D03*
D32*
X1342698Y45116D03*
D15*
X1322886Y45116D03*
D54*
X1292152Y45116D03*
D25*
X1267514Y45116D03*
D23*
X1261418Y45116D03*
D25*
X1255830Y45116D03*
D24*
X1250496Y45116D03*
D16*
X1242368Y45116D03*
D22*
X1230430Y45116D03*
D20*
X1221540Y45116D03*
D23*
X1214174Y45116D03*
D22*
X1207570Y45116D03*
D36*
X1198172Y45116D03*
X1186996Y45116D03*
D14*
X1176836Y45116D03*
D68*
X1156008Y45116D03*
D32*
X1342698Y45624D03*
D69*
X1322632Y45624D03*
D57*
X1291898Y45624D03*
D25*
X1267514Y45624D03*
D24*
X1261164Y45624D03*
D31*
X1255576Y45624D03*
D22*
X1242622Y45624D03*
D36*
X1230176Y45624D03*
D20*
X1221540Y45624D03*
D24*
X1213920Y45624D03*
D36*
X1207824Y45624D03*
D34*
X1198426Y45624D03*
D36*
X1186488Y45624D03*
D32*
X1177090Y45624D03*
D68*
X1156008Y45624D03*
D16*
X1342952Y46132D03*
D70*
X1322632Y46132D03*
D60*
X1291644Y46132D03*
D30*
X1267768Y46132D03*
D24*
X1261164Y46132D03*
D31*
X1255576Y46132D03*
D34*
X1242622Y46132D03*
X1229922Y46132D03*
D22*
X1221794Y46132D03*
D24*
X1213920Y46132D03*
D36*
X1207824Y46132D03*
D31*
X1198680Y46132D03*
D34*
X1186234Y46132D03*
D32*
X1177090Y46132D03*
D71*
X1155754Y46132D03*
D18*
X1343206Y46640D03*
D72*
X1322632Y46640D03*
D64*
X1291390Y46640D03*
D30*
X1267768Y46640D03*
D27*
X1261926Y46640D03*
D31*
X1255576Y46640D03*
D34*
X1242622Y46640D03*
D31*
X1229668Y46640D03*
D22*
X1221794Y46640D03*
D27*
X1214682Y46640D03*
D36*
X1207824Y46640D03*
D30*
X1198680Y46640D03*
D31*
X1185980Y46640D03*
D32*
X1177090Y46640D03*
D71*
X1155754Y46640D03*
D18*
X1343206Y47148D03*
D73*
X1322632Y47148D03*
D60*
X1291136Y47148D03*
D27*
X1267514Y47148D03*
X1261926Y47148D03*
D31*
X1255576Y47148D03*
D28*
X1248972Y47148D03*
D25*
X1242622Y47148D03*
D24*
X1236272Y47148D03*
D31*
X1229668Y47148D03*
D22*
X1221794Y47148D03*
D27*
X1214682Y47148D03*
D36*
X1207824Y47148D03*
D24*
X1201220Y47148D03*
D30*
X1198680Y47148D03*
D24*
X1192584Y47148D03*
D31*
X1185980Y47148D03*
D16*
X1177344Y47148D03*
D74*
X1155500Y47148D03*
D20*
X1343460Y47656D03*
D75*
X1322378Y47656D03*
D64*
X1290882Y47656D03*
D14*
X1270308Y47656D03*
D28*
X1261672Y47656D03*
D31*
X1255576Y47656D03*
D30*
X1248972Y47656D03*
D25*
X1242622Y47656D03*
D30*
X1236272Y47656D03*
D25*
X1229414Y47656D03*
D22*
X1221794Y47656D03*
D28*
X1214428Y47656D03*
D36*
X1207824Y47656D03*
X1199696Y47656D03*
D30*
X1192584Y47656D03*
D31*
X1185980Y47656D03*
D16*
X1177344Y47656D03*
D74*
X1155500Y47656D03*
D22*
X1343714Y48164D03*
D76*
X1322378Y48164D03*
D68*
X1290628Y48164D03*
D14*
X1270308Y48164D03*
D24*
X1261164Y48164D03*
D31*
X1255576Y48164D03*
D30*
X1248972Y48164D03*
D25*
X1242622Y48164D03*
X1236018Y48164D03*
X1229414Y48164D03*
D22*
X1221794Y48164D03*
D36*
X1207824Y48164D03*
X1199696Y48164D03*
D30*
X1192584Y48164D03*
D25*
X1185726Y48164D03*
D16*
X1177344Y48164D03*
D74*
X1155500Y48164D03*
D22*
X1343714Y48672D03*
D71*
X1322378Y48672D03*
X1290374Y48672D03*
D38*
X1270054Y48672D03*
D31*
X1255576Y48672D03*
D30*
X1248972Y48672D03*
X1242368Y48672D03*
D25*
X1236018Y48672D03*
X1229414Y48672D03*
D20*
X1221540Y48672D03*
D36*
X1207824Y48672D03*
D34*
X1199950Y48672D03*
D25*
X1192330Y48672D03*
X1185726Y48672D03*
D18*
X1177598Y48672D03*
D24*
X1170740Y48672D03*
D76*
X1155246Y48672D03*
D36*
X1343968Y49180D03*
D68*
X1322632Y49180D03*
D71*
X1290374Y49180D03*
D63*
X1269800Y49180D03*
D31*
X1255576Y49180D03*
D25*
X1248718Y49180D03*
D30*
X1242368Y49180D03*
D25*
X1236018Y49180D03*
X1229414Y49180D03*
D18*
X1221286Y49180D03*
D36*
X1207824Y49180D03*
D34*
X1199950Y49180D03*
D25*
X1192330Y49180D03*
X1185726Y49180D03*
D18*
X1177598Y49180D03*
D24*
X1170740Y49180D03*
D76*
X1155246Y49180D03*
D36*
X1343968Y49688D03*
D19*
X1327966Y49688D03*
D58*
X1313996Y49688D03*
D74*
X1290120Y49688D03*
D58*
X1269292Y49688D03*
D31*
X1255576Y49688D03*
D30*
X1248972Y49688D03*
X1242368Y49688D03*
D25*
X1236018Y49688D03*
X1229414Y49688D03*
D16*
X1220524Y49688D03*
D36*
X1207824Y49688D03*
X1199696Y49688D03*
D25*
X1192330Y49688D03*
X1185726Y49688D03*
D18*
X1177598Y49688D03*
D23*
X1170994Y49688D03*
D77*
X1154992Y49688D03*
D34*
X1344222Y50196D03*
D17*
X1328220Y50196D03*
D63*
X1312980Y50196D03*
D76*
X1289866Y50196D03*
D37*
X1267768Y50196D03*
D31*
X1255576Y50196D03*
D30*
X1248972Y50196D03*
X1242368Y50196D03*
D25*
X1236018Y50196D03*
X1229414Y50196D03*
D63*
X1219000Y50196D03*
D36*
X1207824Y50196D03*
X1199696Y50196D03*
D30*
X1192584Y50196D03*
D25*
X1185726Y50196D03*
D22*
X1177598Y50196D03*
D28*
X1170740Y50196D03*
D77*
X1154992Y50196D03*
D34*
X1344222Y50704D03*
D17*
X1328728Y50704D03*
D63*
X1312472Y50704D03*
D76*
X1289866Y50704D03*
D47*
X1267260Y50704D03*
D31*
X1255576Y50704D03*
D30*
X1248972Y50704D03*
D25*
X1242622Y50704D03*
D27*
X1236018Y50704D03*
D25*
X1229414Y50704D03*
D14*
X1217476Y50704D03*
D36*
X1207824Y50704D03*
X1199696Y50704D03*
D28*
X1192584Y50704D03*
D31*
X1185980Y50704D03*
D25*
X1176582Y50704D03*
D28*
X1170740Y50704D03*
D75*
X1154738Y50704D03*
D34*
X1344222Y51212D03*
D19*
X1328982Y51212D03*
D38*
X1311710Y51212D03*
D77*
X1289612Y51212D03*
D38*
X1269546Y51212D03*
D31*
X1262688Y51212D03*
X1255576Y51212D03*
D24*
X1248972Y51212D03*
D31*
X1242368Y51212D03*
X1229668Y51212D03*
D25*
X1219762Y51212D03*
D31*
X1215444Y51212D03*
D25*
X1208586Y51212D03*
X1198426Y51212D03*
D31*
X1185980Y51212D03*
D30*
X1176328Y51212D03*
D28*
X1170740Y51212D03*
D75*
X1154738Y51212D03*
D31*
X1344476Y51720D03*
D38*
X1333046Y51720D03*
D16*
X1325172Y51720D03*
X1310948Y51720D03*
D75*
X1289358Y51720D03*
D38*
X1269546Y51720D03*
D23*
X1261926Y51720D03*
D31*
X1255576Y51720D03*
X1242368Y51720D03*
X1229668Y51720D03*
D25*
X1219762Y51720D03*
D23*
X1214682Y51720D03*
D31*
X1208332Y51720D03*
D25*
X1198426Y51720D03*
D34*
X1186234Y51720D03*
D27*
X1176582Y51720D03*
D30*
X1170740Y51720D03*
D78*
X1154484Y51720D03*
D31*
X1344476Y52228D03*
D14*
X1333300Y52228D03*
D20*
X1324664Y52228D03*
D18*
X1310186Y52228D03*
D75*
X1289358Y52228D03*
D38*
X1269546Y52228D03*
D31*
X1255576Y52228D03*
D36*
X1242368Y52228D03*
D34*
X1229922Y52228D03*
D31*
X1219508Y52228D03*
X1208332Y52228D03*
X1198172Y52228D03*
D34*
X1186234Y52228D03*
D27*
X1176582Y52228D03*
D30*
X1170740Y52228D03*
D78*
X1154484Y52228D03*
D31*
X1344476Y52736D03*
D38*
X1333554Y52736D03*
D34*
X1324410Y52736D03*
D16*
X1309932Y52736D03*
D75*
X1289358Y52736D03*
D38*
X1269546Y52736D03*
D34*
X1255830Y52736D03*
D18*
X1242114Y52736D03*
D36*
X1230176Y52736D03*
D31*
X1219508Y52736D03*
D34*
X1208586Y52736D03*
X1197918Y52736D03*
D22*
X1186742Y52736D03*
D27*
X1176582Y52736D03*
D30*
X1170740Y52736D03*
D78*
X1154484Y52736D03*
D25*
X1344730Y53244D03*
D14*
X1333808Y53244D03*
D25*
X1324410Y53244D03*
D32*
X1310186Y53244D03*
D78*
X1289104Y53244D03*
D63*
X1269292Y53244D03*
D36*
X1256084Y53244D03*
D38*
X1242114Y53244D03*
D18*
X1230430Y53244D03*
D24*
X1224080Y53244D03*
D31*
X1219508Y53244D03*
D36*
X1208840Y53244D03*
D22*
X1197410Y53244D03*
D20*
X1186996Y53244D03*
D24*
X1180392Y53244D03*
D27*
X1176582Y53244D03*
D31*
X1170740Y53244D03*
D78*
X1154484Y53244D03*
D25*
X1344730Y53752D03*
D32*
X1334062Y53752D03*
D28*
X1324156Y53752D03*
D14*
X1309932Y53752D03*
D79*
X1288850Y53752D03*
D70*
X1263704Y53752D03*
D80*
X1227636Y53752D03*
D81*
X1172518Y53752D03*
D25*
X1344730Y54260D03*
D14*
X1334316Y54260D03*
D24*
X1324156Y54260D03*
D63*
X1309932Y54260D03*
D79*
X1288850Y54260D03*
D70*
X1263704Y54260D03*
D80*
X1227636Y54260D03*
D81*
X1172518Y54260D03*
D30*
X1344984Y54768D03*
D16*
X1334316Y54768D03*
D23*
X1318314Y54768D03*
D63*
X1309932Y54768D03*
D79*
X1288850Y54768D03*
D82*
X1263450Y54768D03*
D80*
X1227636Y54768D03*
D81*
X1172518Y54768D03*
D30*
X1344984Y55276D03*
D22*
X1334062Y55276D03*
D30*
X1318060Y55276D03*
D58*
X1309932Y55276D03*
D73*
X1288596Y55276D03*
D82*
X1263450Y55276D03*
D83*
X1226620Y55276D03*
D81*
X1172518Y55276D03*
D30*
X1344984Y55784D03*
D34*
X1333554Y55784D03*
D31*
X1317552Y55784D03*
D58*
X1309932Y55784D03*
D73*
X1288596Y55784D03*
D82*
X1263450Y55784D03*
D84*
X1196394Y55784D03*
D30*
X1344984Y56292D03*
X1333300Y56292D03*
D19*
X1312218Y56292D03*
D85*
X1288342Y56292D03*
D82*
X1263450Y56292D03*
D84*
X1196394Y56292D03*
D27*
X1345238Y56800D03*
D23*
X1333046Y56800D03*
D17*
X1312472Y56800D03*
D86*
X1221032Y56800D03*
D27*
X1345238Y57308D03*
D24*
X1327204Y57308D03*
D39*
X1312726Y57308D03*
D86*
X1221032Y57308D03*
D27*
X1345238Y57816D03*
D28*
X1327204Y57816D03*
D22*
X1318314Y57816D03*
D35*
X1309678Y57816D03*
D87*
X1220778Y57816D03*
D27*
X1345238Y58324D03*
D25*
X1326950Y58324D03*
D22*
X1318822Y58324D03*
D33*
X1309424Y58324D03*
D87*
X1220778Y58324D03*
D27*
X1345238Y58832D03*
D31*
X1326696Y58832D03*
D20*
X1319076Y58832D03*
D35*
X1309170Y58832D03*
D87*
X1220778Y58832D03*
D27*
X1345238Y59340D03*
D22*
X1326442Y59340D03*
D20*
X1319584Y59340D03*
D33*
X1308916Y59340D03*
D88*
X1220524Y59340D03*
D27*
X1345238Y59848D03*
D16*
X1326188Y59848D03*
D22*
X1319838Y59848D03*
D33*
X1308916Y59848D03*
D88*
X1220524Y59848D03*
D28*
X1345492Y60356D03*
D23*
X1336094Y60356D03*
D29*
X1323394Y60356D03*
D33*
X1308408Y60356D03*
D88*
X1220524Y60356D03*
D28*
X1345492Y60864D03*
D27*
X1335586Y60864D03*
D29*
X1323902Y60864D03*
D55*
X1308154Y60864D03*
D88*
X1220524Y60864D03*
D28*
X1345492Y61372D03*
D25*
X1335078Y61372D03*
D47*
X1324156Y61372D03*
D55*
X1308154Y61372D03*
D39*
X1289358Y61372D03*
D51*
X1210364Y61372D03*
D28*
X1345492Y61880D03*
D34*
X1334570Y61880D03*
D29*
X1324410Y61880D03*
D58*
X1307900Y61880D03*
D19*
X1289866Y61880D03*
D26*
X1269546Y61880D03*
D89*
X1243638Y61880D03*
D37*
X1214936Y61880D03*
D18*
X1197918Y61880D03*
D61*
X1181154Y61880D03*
D79*
X1154230Y61880D03*
D28*
X1345492Y62388D03*
D22*
X1334062Y62388D03*
D47*
X1324664Y62388D03*
D61*
X1307646Y62388D03*
D21*
X1290120Y62388D03*
D47*
X1269800Y62388D03*
D58*
X1243892Y62388D03*
D63*
X1214936Y62388D03*
D31*
X1197664Y62388D03*
D18*
X1181154Y62388D03*
D72*
X1153468Y62388D03*
D28*
X1345492Y62896D03*
D90*
X1327966Y62896D03*
D58*
X1307392Y62896D03*
D26*
X1290374Y62896D03*
D35*
X1270054Y62896D03*
D38*
X1244146Y62896D03*
D16*
X1214936Y62896D03*
D27*
X1197410Y62896D03*
D22*
X1181154Y62896D03*
D70*
X1152960Y62896D03*
D28*
X1345492Y63404D03*
D47*
X1333300Y63404D03*
D18*
X1322378Y63404D03*
D61*
X1307138Y63404D03*
D26*
X1290374Y63404D03*
D33*
X1269800Y63404D03*
D16*
X1244400Y63404D03*
D20*
X1214936Y63404D03*
D23*
X1197410Y63404D03*
D34*
X1181154Y63404D03*
D40*
X1152706Y63404D03*
D28*
X1345492Y63912D03*
D47*
X1333300Y63912D03*
D36*
X1321616Y63912D03*
D63*
X1306884Y63912D03*
D89*
X1290374Y63912D03*
D58*
X1269800Y63912D03*
D20*
X1244400Y63912D03*
D22*
X1215190Y63912D03*
D25*
X1181154Y63912D03*
D69*
X1152452Y63912D03*
D28*
X1345492Y64420D03*
D37*
X1333300Y64420D03*
D25*
X1321362Y64420D03*
D63*
X1306884Y64420D03*
D89*
X1290374Y64420D03*
D61*
X1270054Y64420D03*
D34*
X1244654Y64420D03*
X1215190Y64420D03*
D27*
X1181154Y64420D03*
D69*
X1152452Y64420D03*
D28*
X1345492Y64928D03*
D37*
X1333300Y64928D03*
D27*
X1320854Y64928D03*
D38*
X1306630Y64928D03*
D89*
X1290374Y64928D03*
D63*
X1269800Y64928D03*
D34*
X1244654Y64928D03*
D31*
X1215444Y64928D03*
D27*
X1181154Y64928D03*
D90*
X1152198Y64928D03*
D27*
X1345238Y65436D03*
D35*
X1333554Y65436D03*
D14*
X1306376Y65436D03*
D45*
X1290120Y65436D03*
D38*
X1270054Y65436D03*
D31*
X1244908Y65436D03*
X1215444Y65436D03*
D27*
X1181154Y65436D03*
D90*
X1152198Y65436D03*
D27*
X1345238Y65944D03*
D35*
X1333554Y65944D03*
D24*
X1315520Y65944D03*
D63*
X1306376Y65944D03*
D45*
X1290120Y65944D03*
D14*
X1269800Y65944D03*
D25*
X1245162Y65944D03*
D30*
X1215444Y65944D03*
D27*
X1181154Y65944D03*
D90*
X1152198Y65944D03*
D27*
X1345238Y66452D03*
D31*
X1337364Y66452D03*
D22*
X1331014Y66452D03*
D23*
X1315266Y66452D03*
D61*
X1306630Y66452D03*
D45*
X1290120Y66452D03*
D14*
X1269800Y66452D03*
D30*
X1245416Y66452D03*
D27*
X1215698Y66452D03*
X1181154Y66452D03*
D90*
X1152198Y66452D03*
D27*
X1345238Y66960D03*
D25*
X1337618Y66960D03*
D34*
X1330506Y66960D03*
D27*
X1315266Y66960D03*
D55*
X1307138Y66960D03*
D45*
X1290120Y66960D03*
D14*
X1269800Y66960D03*
D30*
X1245416Y66960D03*
D27*
X1215698Y66960D03*
X1181154Y66960D03*
D90*
X1152198Y66960D03*
D27*
X1345238Y67468D03*
D30*
X1337872Y67468D03*
D28*
X1329744Y67468D03*
D30*
X1315520Y67468D03*
D33*
X1307392Y67468D03*
D26*
X1289866Y67468D03*
D32*
X1269546Y67468D03*
D27*
X1245670Y67468D03*
X1216206Y67468D03*
X1181154Y67468D03*
D90*
X1152198Y67468D03*
D27*
X1345238Y67976D03*
D30*
X1337872Y67976D03*
D24*
X1329236Y67976D03*
D21*
X1309424Y67976D03*
D26*
X1289866Y67976D03*
D14*
X1269292Y67976D03*
D27*
X1245670Y67976D03*
X1216206Y67976D03*
X1181154Y67976D03*
D69*
X1152452Y67976D03*
D27*
X1345238Y68484D03*
D28*
X1337872Y68484D03*
D24*
X1324156Y68484D03*
D19*
X1309678Y68484D03*
D21*
X1289612Y68484D03*
D32*
X1269038Y68484D03*
D30*
X1245924Y68484D03*
X1216460Y68484D03*
X1181408Y68484D03*
D69*
X1152452Y68484D03*
D27*
X1345238Y68992D03*
D28*
X1337872Y68992D03*
D27*
X1323902Y68992D03*
D19*
X1309678Y68992D03*
D21*
X1289612Y68992D03*
D32*
X1269038Y68992D03*
D30*
X1246432Y68992D03*
D25*
X1216714Y68992D03*
D31*
X1181408Y68992D03*
D40*
X1152706Y68992D03*
D30*
X1344984Y69500D03*
D23*
X1338126Y69500D03*
D31*
X1323648Y69500D03*
D17*
X1309932Y69500D03*
D19*
X1289358Y69500D03*
D14*
X1268784Y69500D03*
D31*
X1246940Y69500D03*
X1217476Y69500D03*
D36*
X1181916Y69500D03*
D72*
X1153468Y69500D03*
D30*
X1344984Y70008D03*
D24*
X1338380Y70008D03*
D22*
X1322886Y70008D03*
D17*
X1309932Y70008D03*
D19*
X1289358Y70008D03*
D32*
X1268530Y70008D03*
D55*
X1250242Y70008D03*
D69*
X1225096Y70008D03*
D31*
X1203252Y70008D03*
D33*
X1184964Y70008D03*
D60*
X1156516Y70008D03*
D30*
X1344984Y70516D03*
D16*
X1322124Y70516D03*
D22*
X1315774Y70516D03*
D33*
X1307392Y70516D03*
D19*
X1289358Y70516D03*
D32*
X1268530Y70516D03*
D55*
X1250242Y70516D03*
D70*
X1225604Y70516D03*
D20*
X1203252Y70516D03*
D35*
X1184710Y70516D03*
D64*
X1156262Y70516D03*
D30*
X1344984Y71024D03*
D29*
X1319838Y71024D03*
D58*
X1306884Y71024D03*
D17*
X1289104Y71024D03*
D32*
X1268022Y71024D03*
D58*
X1249988Y71024D03*
D82*
X1225858Y71024D03*
D18*
X1202998Y71024D03*
D33*
X1184456Y71024D03*
D64*
X1156262Y71024D03*
D25*
X1344730Y71532D03*
D27*
X1333046Y71532D03*
D37*
X1320092Y71532D03*
D63*
X1306376Y71532D03*
D17*
X1289104Y71532D03*
D32*
X1268022Y71532D03*
D61*
X1250242Y71532D03*
D82*
X1225858Y71532D03*
D32*
X1202998Y71532D03*
D35*
X1184202Y71532D03*
D64*
X1156262Y71532D03*
D25*
X1344730Y72040D03*
D31*
X1332284Y72040D03*
D37*
X1320600Y72040D03*
D14*
X1305868Y72040D03*
D39*
X1288850Y72040D03*
D32*
X1267514Y72040D03*
D63*
X1249988Y72040D03*
D72*
X1226112Y72040D03*
D32*
X1202998Y72040D03*
D35*
X1184202Y72040D03*
D68*
X1156008Y72040D03*
D25*
X1344730Y72548D03*
D20*
X1331776Y72548D03*
D37*
X1320600Y72548D03*
D18*
X1305614Y72548D03*
D39*
X1288850Y72548D03*
D32*
X1267514Y72548D03*
D63*
X1249988Y72548D03*
D55*
X1220778Y72548D03*
D14*
X1202744Y72548D03*
D33*
X1183948Y72548D03*
D68*
X1156008Y72548D03*
D25*
X1344730Y73056D03*
D16*
X1331268Y73056D03*
D36*
X1324664Y73056D03*
D16*
X1318568Y73056D03*
D22*
X1305106Y73056D03*
D39*
X1288850Y73056D03*
D32*
X1267514Y73056D03*
D63*
X1249988Y73056D03*
D38*
X1219762Y73056D03*
D14*
X1202744Y73056D03*
D35*
X1183694Y73056D03*
D71*
X1155754Y73056D03*
D31*
X1344476Y73564D03*
D23*
X1337110Y73564D03*
D29*
X1328982Y73564D03*
D22*
X1318314Y73564D03*
D34*
X1304598Y73564D03*
D66*
X1288596Y73564D03*
D32*
X1267006Y73564D03*
D38*
X1249734Y73564D03*
D32*
X1219254Y73564D03*
D63*
X1202744Y73564D03*
D33*
X1183440Y73564D03*
D71*
X1155754Y73564D03*
D31*
X1344476Y74072D03*
D45*
X1330252Y74072D03*
D31*
X1318060Y74072D03*
D36*
X1304852Y74072D03*
D15*
X1288850Y74072D03*
D32*
X1267006Y74072D03*
D38*
X1249734Y74072D03*
D18*
X1218746Y74072D03*
D38*
X1202490Y74072D03*
D35*
X1183186Y74072D03*
D71*
X1155754Y74072D03*
D31*
X1344476Y74580D03*
D30*
X1335840Y74580D03*
D55*
X1328474Y74580D03*
D25*
X1317806Y74580D03*
D36*
X1304852Y74580D03*
D67*
X1288596Y74580D03*
D32*
X1266498Y74580D03*
D38*
X1249226Y74580D03*
D20*
X1218492Y74580D03*
D38*
X1202490Y74580D03*
D35*
X1183186Y74580D03*
D74*
X1155500Y74580D03*
D34*
X1344222Y75088D03*
D27*
X1335586Y75088D03*
D63*
X1328220Y75088D03*
D28*
X1317552Y75088D03*
D22*
X1305106Y75088D03*
D67*
X1288596Y75088D03*
D32*
X1266498Y75088D03*
D38*
X1249226Y75088D03*
D22*
X1218238Y75088D03*
D63*
X1202236Y75088D03*
D33*
X1182932Y75088D03*
D74*
X1155500Y75088D03*
D34*
X1344222Y75596D03*
D27*
X1335586Y75596D03*
D32*
X1327966Y75596D03*
D36*
X1305360Y75596D03*
D67*
X1288596Y75596D03*
D14*
X1266244Y75596D03*
D38*
X1249226Y75596D03*
D22*
X1217730Y75596D03*
D63*
X1202236Y75596D03*
D35*
X1182678Y75596D03*
D76*
X1155246Y75596D03*
D34*
X1344222Y76104D03*
D27*
X1335586Y76104D03*
D18*
X1327458Y76104D03*
D23*
X1311710Y76104D03*
D22*
X1305614Y76104D03*
D90*
X1288342Y76104D03*
D32*
X1265990Y76104D03*
D14*
X1248972Y76104D03*
D36*
X1217476Y76104D03*
D61*
X1201982Y76104D03*
D33*
X1182424Y76104D03*
D76*
X1155246Y76104D03*
D36*
X1343968Y76612D03*
D28*
X1335332Y76612D03*
D22*
X1327458Y76612D03*
D30*
X1311456Y76612D03*
D22*
X1305614Y76612D03*
D69*
X1288596Y76612D03*
D32*
X1265990Y76612D03*
D14*
X1248972Y76612D03*
D36*
X1217476Y76612D03*
D63*
X1201728Y76612D03*
D35*
X1182170Y76612D03*
D76*
X1155246Y76612D03*
D36*
X1343968Y77120D03*
D23*
X1335078Y77120D03*
D25*
X1326950Y77120D03*
D34*
X1311202Y77120D03*
D20*
X1305868Y77120D03*
D40*
X1288342Y77120D03*
D32*
X1265482Y77120D03*
X1248718Y77120D03*
D34*
X1217222Y77120D03*
D63*
X1201728Y77120D03*
D35*
X1182170Y77120D03*
D77*
X1154992Y77120D03*
D22*
X1343714Y77628D03*
D23*
X1335078Y77628D03*
D30*
X1326696Y77628D03*
D58*
X1308408Y77628D03*
D40*
X1288342Y77628D03*
D32*
X1265482Y77628D03*
D14*
X1248464Y77628D03*
D36*
X1216968Y77628D03*
D63*
X1201220Y77628D03*
D33*
X1181916Y77628D03*
D77*
X1154992Y77628D03*
D22*
X1343714Y78136D03*
D24*
X1334824Y78136D03*
D23*
X1326442Y78136D03*
D55*
X1308662Y78136D03*
D40*
X1288342Y78136D03*
D32*
X1264974Y78136D03*
D14*
X1248464Y78136D03*
D34*
X1216714Y78136D03*
D63*
X1201220Y78136D03*
D35*
X1181662Y78136D03*
D75*
X1154738Y78136D03*
D20*
X1343460Y78644D03*
D24*
X1334824Y78644D03*
D23*
X1320854Y78644D03*
D55*
X1309170Y78644D03*
D82*
X1288342Y78644D03*
D32*
X1264974Y78644D03*
X1248210Y78644D03*
D34*
X1216714Y78644D03*
D63*
X1200712Y78644D03*
D33*
X1181408Y78644D03*
D75*
X1154738Y78644D03*
D20*
X1343460Y79152D03*
D28*
X1320600Y79152D03*
D33*
X1309424Y79152D03*
D82*
X1288342Y79152D03*
D16*
X1264720Y79152D03*
D14*
X1247956Y79152D03*
D36*
X1232208Y79152D03*
X1216460Y79152D03*
D63*
X1200712Y79152D03*
D35*
X1181154Y79152D03*
D78*
X1154484Y79152D03*
D18*
X1343206Y79660D03*
D25*
X1320346Y79660D03*
D33*
X1309424Y79660D03*
D72*
X1288088Y79660D03*
D16*
X1264720Y79660D03*
D32*
X1247702Y79660D03*
D16*
X1231192Y79660D03*
D36*
X1216460Y79660D03*
D38*
X1200458Y79660D03*
D35*
X1181154Y79660D03*
D78*
X1154484Y79660D03*
D18*
X1343206Y80168D03*
D36*
X1320092Y80168D03*
D33*
X1309932Y80168D03*
D85*
X1288342Y80168D03*
D16*
X1264212Y80168D03*
D32*
X1247702Y80168D03*
D16*
X1230684Y80168D03*
D36*
X1215952Y80168D03*
D14*
X1200204Y80168D03*
D35*
X1180646Y80168D03*
D78*
X1154484Y80168D03*
D16*
X1342952Y80676D03*
D22*
X1319838Y80676D03*
D35*
X1310186Y80676D03*
D85*
X1288342Y80676D03*
D18*
X1263958Y80676D03*
D14*
X1247448Y80676D03*
D18*
X1230430Y80676D03*
D36*
X1215952Y80676D03*
D32*
X1199950Y80676D03*
D35*
X1180646Y80676D03*
D79*
X1154230Y80676D03*
D16*
X1342952Y81184D03*
D67*
X1313996Y81184D03*
D79*
X1288342Y81184D03*
D22*
X1263958Y81184D03*
D32*
X1247194Y81184D03*
D20*
X1230176Y81184D03*
X1215952Y81184D03*
D16*
X1199696Y81184D03*
D33*
X1180392Y81184D03*
D79*
X1154230Y81184D03*
D32*
X1342698Y81692D03*
D23*
X1329490Y81692D03*
D67*
X1314504Y81692D03*
D79*
X1288342Y81692D03*
D31*
X1263704Y81692D03*
D14*
X1246940Y81692D03*
D22*
X1229922Y81692D03*
D20*
X1215952Y81692D03*
X1199696Y81692D03*
D38*
X1181662Y81692D03*
D66*
X1151436Y81692D03*
D14*
X1342444Y82200D03*
D27*
X1328982Y82200D03*
D67*
X1314504Y82200D03*
D75*
X1288342Y82200D03*
D24*
X1263704Y82200D03*
D38*
X1246686Y82200D03*
D31*
X1229668Y82200D03*
D18*
X1215698Y82200D03*
D34*
X1199442Y82200D03*
D14*
X1181916Y82200D03*
D17*
X1150928Y82200D03*
D14*
X1342444Y82708D03*
D25*
X1328474Y82708D03*
D67*
X1315012Y82708D03*
D75*
X1288342Y82708D03*
D38*
X1246686Y82708D03*
D16*
X1215444Y82708D03*
D28*
X1199188Y82708D03*
D16*
X1181916Y82708D03*
D21*
X1150420Y82708D03*
D38*
X1342190Y83216D03*
D34*
X1327966Y83216D03*
D67*
X1315520Y83216D03*
D77*
X1288596Y83216D03*
D63*
X1246432Y83216D03*
D16*
X1215444Y83216D03*
D18*
X1182170Y83216D03*
D26*
X1150166Y83216D03*
D63*
X1341936Y83724D03*
D78*
X1318568Y83724D03*
D76*
X1288342Y83724D03*
D61*
X1246178Y83724D03*
D32*
X1215190Y83724D03*
D20*
X1181916Y83724D03*
D26*
X1150166Y83724D03*
D63*
X1341936Y84232D03*
D75*
X1318822Y84232D03*
D77*
X1288088Y84232D03*
D61*
X1246178Y84232D03*
D14*
X1214936Y84232D03*
D20*
X1181916Y84232D03*
D45*
X1149912Y84232D03*
D61*
X1341682Y84740D03*
D79*
X1318822Y84740D03*
D77*
X1287580Y84740D03*
D58*
X1245924Y84740D03*
D63*
X1214936Y84740D03*
D22*
X1182170Y84740D03*
D45*
X1149912Y84740D03*
D58*
X1341428Y85248D03*
D72*
X1318568Y85248D03*
D75*
X1287326Y85248D03*
D33*
X1245924Y85248D03*
D61*
X1214682Y85248D03*
D22*
X1181662Y85248D03*
D89*
X1149658Y85248D03*
D55*
X1341174Y85756D03*
D70*
X1318568Y85756D03*
D75*
X1287326Y85756D03*
D35*
X1245670Y85756D03*
D55*
X1214682Y85756D03*
D22*
X1181662Y85756D03*
D89*
X1149658Y85756D03*
D33*
X1340920Y86264D03*
D69*
X1318568Y86264D03*
D75*
X1286818Y86264D03*
D37*
X1245416Y86264D03*
D35*
X1214682Y86264D03*
D22*
X1181662Y86264D03*
D89*
X1149658Y86264D03*
D35*
X1340666Y86772D03*
D66*
X1318568Y86772D03*
D78*
X1286564Y86772D03*
D89*
X1245162Y86772D03*
D37*
X1214428Y86772D03*
D22*
X1181662Y86772D03*
D89*
X1149658Y86772D03*
D37*
X1340412Y87280D03*
D19*
X1318314Y87280D03*
D75*
X1286310Y87280D03*
D26*
X1245162Y87280D03*
D47*
X1214428Y87280D03*
D20*
X1181408Y87280D03*
D89*
X1149658Y87280D03*
D29*
X1340158Y87788D03*
D45*
X1318568Y87788D03*
D78*
X1286056Y87788D03*
D23*
X1265990Y87788D03*
D19*
X1245162Y87788D03*
D21*
X1214428Y87788D03*
D23*
X1192838Y87788D03*
D18*
X1181662Y87788D03*
D45*
X1149912Y87788D03*
D47*
X1339904Y88296D03*
D35*
X1318314Y88296D03*
D78*
X1285548Y88296D03*
D28*
X1265736Y88296D03*
D66*
X1244908Y88296D03*
D17*
X1214428Y88296D03*
D28*
X1193092Y88296D03*
D32*
X1181662Y88296D03*
D45*
X1149912Y88296D03*
D89*
X1339650Y88804D03*
D38*
X1318314Y88804D03*
D78*
X1285040Y88804D03*
D25*
X1265482Y88804D03*
D90*
X1244654Y88804D03*
D67*
X1214428Y88804D03*
D31*
X1193092Y88804D03*
D38*
X1181154Y88804D03*
D26*
X1150166Y88804D03*
D45*
X1339396Y89312D03*
D31*
X1318060Y89312D03*
D77*
X1284532Y89312D03*
D22*
X1265482Y89312D03*
D82*
X1244654Y89312D03*
D70*
X1214428Y89312D03*
D36*
X1193092Y89312D03*
D58*
X1181408Y89312D03*
D21*
X1150420Y89312D03*
D26*
X1339142Y89820D03*
D74*
X1283516Y89820D03*
D38*
X1265482Y89820D03*
D75*
X1244146Y89820D03*
D78*
X1214428Y89820D03*
D14*
X1193092Y89820D03*
D47*
X1180900Y89820D03*
D66*
X1151436Y89820D03*
D19*
X1338634Y90328D03*
D91*
X1233478Y90328D03*
D69*
X1152452Y90328D03*
D17*
X1338380Y90836D03*
D92*
X1233224Y90836D03*
D90*
X1152198Y90836D03*
D66*
X1337872Y91344D03*
D91*
X1232970Y91344D03*
D90*
X1152198Y91344D03*
D67*
X1337364Y91852D03*
D91*
X1232462Y91852D03*
D67*
X1151944Y91852D03*
D90*
X1337110Y92360D03*
D91*
X1232462Y92360D03*
D67*
X1151944Y92360D03*
D90*
X1337110Y92868D03*
D93*
X1232208Y92868D03*
D67*
X1151944Y92868D03*
D90*
X1337110Y93376D03*
D93*
X1231700Y93376D03*
D15*
X1151690Y93376D03*
D90*
X1337110Y93884D03*
D94*
X1231446Y93884D03*
D15*
X1151690Y93884D03*
D90*
X1337110Y94392D03*
D93*
X1231192Y94392D03*
D15*
X1151690Y94392D03*
D90*
X1337110Y94900D03*
D94*
X1230938Y94900D03*
D66*
X1151436Y94900D03*
D90*
X1337110Y95408D03*
D94*
X1230430Y95408D03*
D66*
X1151436Y95408D03*
D90*
X1337110Y95916D03*
D94*
X1230430Y95916D03*
D66*
X1151436Y95916D03*
D90*
X1337110Y96424D03*
D94*
X1229922Y96424D03*
D66*
X1151436Y96424D03*
D90*
X1337110Y96932D03*
D23*
X1303074Y96932D03*
D95*
X1229668Y96932D03*
D66*
X1151436Y96932D03*
D90*
X1337110Y97440D03*
D31*
X1301804Y97440D03*
D95*
X1229160Y97440D03*
D15*
X1151690Y97440D03*
D90*
X1337110Y97948D03*
D18*
X1300534Y97948D03*
D94*
X1228906Y97948D03*
D15*
X1151690Y97948D03*
D90*
X1337110Y98456D03*
D61*
X1299518Y98456D03*
D94*
X1228398Y98456D03*
D67*
X1151944Y98456D03*
D90*
X1337110Y98964D03*
D35*
X1298502Y98964D03*
D93*
X1227636Y98964D03*
D90*
X1152198Y98964D03*
X1337110Y99472D03*
D45*
X1297232Y99472D03*
D96*
X1216206Y99472D03*
D90*
X1337110Y99980D03*
D97*
X1223572Y99980D03*
D67*
X1337364Y100488D03*
D25*
X1303074Y100488D03*
D86*
X1221032Y100488D03*
D67*
X1337364Y100996D03*
D24*
X1318060Y100996D03*
D30*
X1303328Y100996D03*
D88*
X1220524Y100996D03*
D67*
X1337364Y101504D03*
D28*
X1318060Y101504D03*
D30*
X1303328Y101504D03*
D98*
X1220270Y101504D03*
D67*
X1337364Y102012D03*
D30*
X1318060Y102012D03*
X1303328Y102012D03*
D99*
X1220016Y102012D03*
D67*
X1337364Y102520D03*
D31*
X1318060Y102520D03*
X1303328Y102520D03*
D100*
X1219762Y102520D03*
D67*
X1337364Y103028D03*
D36*
X1318060Y103028D03*
D34*
X1303074Y103028D03*
D101*
X1219254Y103028D03*
D67*
X1337364Y103536D03*
D20*
X1318060Y103536D03*
D22*
X1302566Y103536D03*
D55*
X1289866Y103536D03*
D31*
X1281484Y103536D03*
D22*
X1275134Y103536D03*
D25*
X1269038Y103536D03*
D20*
X1262688Y103536D03*
D31*
X1256592Y103536D03*
D20*
X1249988Y103536D03*
D31*
X1242876Y103536D03*
X1237288Y103536D03*
D36*
X1231192Y103536D03*
D20*
X1223064Y103536D03*
D23*
X1215190Y103536D03*
D34*
X1211126Y103536D03*
D36*
X1204776Y103536D03*
D34*
X1198934Y103536D03*
D23*
X1192330Y103536D03*
D27*
X1188774Y103536D03*
D23*
X1186234Y103536D03*
D16*
X1179376Y103536D03*
D20*
X1170232Y103536D03*
X1162612Y103536D03*
D31*
X1156516Y103536D03*
D58*
X1147880Y103536D03*
D67*
X1337364Y104044D03*
D16*
X1318060Y104044D03*
D18*
X1302566Y104044D03*
D58*
X1290120Y104044D03*
D30*
X1281484Y104044D03*
D36*
X1274880Y104044D03*
D30*
X1268784Y104044D03*
D36*
X1262688Y104044D03*
D30*
X1256592Y104044D03*
D36*
X1249988Y104044D03*
D25*
X1243130Y104044D03*
D31*
X1237288Y104044D03*
D30*
X1231700Y104044D03*
D31*
X1222556Y104044D03*
D25*
X1211126Y104044D03*
D34*
X1205030Y104044D03*
D25*
X1198934Y104044D03*
D23*
X1188774Y104044D03*
D20*
X1178868Y104044D03*
X1170232Y104044D03*
D36*
X1162612Y104044D03*
D30*
X1156516Y104044D03*
D61*
X1147626Y104044D03*
D67*
X1337364Y104552D03*
D38*
X1317806Y104552D03*
D32*
X1302058Y104552D03*
D61*
X1289866Y104552D03*
D27*
X1281230Y104552D03*
D34*
X1275134Y104552D03*
D27*
X1269038Y104552D03*
D31*
X1262688Y104552D03*
D30*
X1256592Y104552D03*
D22*
X1249734Y104552D03*
D25*
X1243130Y104552D03*
X1237034Y104552D03*
D27*
X1231954Y104552D03*
D30*
X1222556Y104552D03*
D25*
X1211126Y104552D03*
D34*
X1205030Y104552D03*
D30*
X1199188Y104552D03*
D23*
X1189282Y104552D03*
D36*
X1178360Y104552D03*
D20*
X1170232Y104552D03*
D36*
X1162612Y104552D03*
D27*
X1156262Y104552D03*
D61*
X1147626Y104552D03*
D67*
X1337364Y105060D03*
D63*
X1318060Y105060D03*
D27*
X1304598Y105060D03*
D25*
X1299518Y105060D03*
D38*
X1289866Y105060D03*
D28*
X1281484Y105060D03*
D31*
X1274880Y105060D03*
D27*
X1269038Y105060D03*
D31*
X1262688Y105060D03*
D28*
X1256592Y105060D03*
D22*
X1249226Y105060D03*
D31*
X1243384Y105060D03*
D25*
X1237034Y105060D03*
D28*
X1232208Y105060D03*
D27*
X1222302Y105060D03*
D31*
X1211380Y105060D03*
X1204776Y105060D03*
D27*
X1199442Y105060D03*
D28*
X1189028Y105060D03*
D22*
X1177598Y105060D03*
D18*
X1170486Y105060D03*
D34*
X1162866Y105060D03*
D28*
X1156516Y105060D03*
D63*
X1147372Y105060D03*
D67*
X1337364Y105568D03*
D55*
X1317806Y105568D03*
D27*
X1304598Y105568D03*
D30*
X1298756Y105568D03*
D38*
X1289866Y105568D03*
D28*
X1281484Y105568D03*
D25*
X1275134Y105568D03*
D28*
X1268784Y105568D03*
D25*
X1262434Y105568D03*
D28*
X1256592Y105568D03*
D55*
X1246686Y105568D03*
D30*
X1237288Y105568D03*
D23*
X1232462Y105568D03*
X1222302Y105568D03*
D31*
X1211380Y105568D03*
D34*
X1205030Y105568D03*
D27*
X1199442Y105568D03*
D28*
X1189028Y105568D03*
D29*
X1173534Y105568D03*
D34*
X1162866Y105568D03*
D28*
X1156516Y105568D03*
D63*
X1147372Y105568D03*
D67*
X1337364Y106076D03*
D37*
X1318060Y106076D03*
D27*
X1305106Y106076D03*
D30*
X1298248Y106076D03*
D14*
X1289612Y106076D03*
D23*
X1281230Y106076D03*
D30*
X1274880Y106076D03*
D23*
X1269038Y106076D03*
D25*
X1262434Y106076D03*
D23*
X1256338Y106076D03*
D55*
X1246686Y106076D03*
D30*
X1237288Y106076D03*
D23*
X1232462Y106076D03*
D25*
X1227382Y106076D03*
D23*
X1222302Y106076D03*
D30*
X1217476Y106076D03*
D34*
X1211634Y106076D03*
X1205030Y106076D03*
D27*
X1199442Y106076D03*
D25*
X1194362Y106076D03*
D27*
X1189282Y106076D03*
X1184202Y106076D03*
D29*
X1173534Y106076D03*
D34*
X1162866Y106076D03*
D23*
X1156262Y106076D03*
D38*
X1147118Y106076D03*
D67*
X1337364Y106584D03*
D47*
X1318060Y106584D03*
D27*
X1305106Y106584D03*
X1297994Y106584D03*
D14*
X1289612Y106584D03*
D23*
X1281230Y106584D03*
D30*
X1274880Y106584D03*
D24*
X1268784Y106584D03*
D30*
X1262688Y106584D03*
D24*
X1256592Y106584D03*
D58*
X1246432Y106584D03*
D30*
X1237288Y106584D03*
D23*
X1232970Y106584D03*
D36*
X1227128Y106584D03*
D28*
X1222556Y106584D03*
D25*
X1217730Y106584D03*
D34*
X1211634Y106584D03*
X1205030Y106584D03*
D28*
X1199696Y106584D03*
D25*
X1194362Y106584D03*
D27*
X1189282Y106584D03*
D34*
X1184202Y106584D03*
D37*
X1173280Y106584D03*
D34*
X1162866Y106584D03*
D23*
X1156262Y106584D03*
D38*
X1147118Y106584D03*
D67*
X1337364Y107092D03*
D36*
X1322632Y107092D03*
D32*
X1314758Y107092D03*
D30*
X1304852Y107092D03*
D27*
X1297486Y107092D03*
D16*
X1289612Y107092D03*
D23*
X1281230Y107092D03*
D30*
X1274880Y107092D03*
D24*
X1268784Y107092D03*
D27*
X1262434Y107092D03*
D24*
X1256592Y107092D03*
D58*
X1246432Y107092D03*
D30*
X1237288Y107092D03*
D23*
X1232970Y107092D03*
D18*
X1224842Y107092D03*
D25*
X1217730Y107092D03*
D34*
X1211634Y107092D03*
X1205030Y107092D03*
D28*
X1199696Y107092D03*
D31*
X1194616Y107092D03*
D27*
X1189282Y107092D03*
D36*
X1183948Y107092D03*
D37*
X1173280Y107092D03*
D31*
X1163120Y107092D03*
D24*
X1156008Y107092D03*
D38*
X1147118Y107092D03*
D67*
X1337364Y107600D03*
D36*
X1323140Y107600D03*
D32*
X1314250Y107600D03*
D25*
X1304598Y107600D03*
D27*
X1297486Y107600D03*
D16*
X1289612Y107600D03*
D27*
X1274626Y107600D03*
X1262434Y107600D03*
D58*
X1246432Y107600D03*
D30*
X1237288Y107600D03*
D23*
X1232970Y107600D03*
D36*
X1224588Y107600D03*
D25*
X1217730Y107600D03*
D34*
X1211634Y107600D03*
X1205030Y107600D03*
D28*
X1199696Y107600D03*
D31*
X1194616Y107600D03*
D27*
X1189282Y107600D03*
D36*
X1183948Y107600D03*
D37*
X1173280Y107600D03*
D31*
X1163120Y107600D03*
D14*
X1146864Y107600D03*
D67*
X1337364Y108108D03*
D22*
X1323394Y108108D03*
D14*
X1313996Y108108D03*
D36*
X1304344Y108108D03*
D27*
X1296978Y108108D03*
D18*
X1289358Y108108D03*
D24*
X1283516Y108108D03*
X1278436Y108108D03*
D28*
X1274880Y108108D03*
D24*
X1266244Y108108D03*
D27*
X1262434Y108108D03*
D61*
X1246178Y108108D03*
D30*
X1237288Y108108D03*
D23*
X1232970Y108108D03*
D31*
X1224080Y108108D03*
D25*
X1217730Y108108D03*
D34*
X1211634Y108108D03*
X1205030Y108108D03*
D28*
X1199696Y108108D03*
D31*
X1194616Y108108D03*
D27*
X1189282Y108108D03*
D36*
X1183948Y108108D03*
D37*
X1173280Y108108D03*
D31*
X1163120Y108108D03*
D24*
X1153468Y108108D03*
D14*
X1146864Y108108D03*
D67*
X1337364Y108616D03*
D22*
X1323902Y108616D03*
D38*
X1313742Y108616D03*
D22*
X1304090Y108616D03*
D27*
X1296978Y108616D03*
D18*
X1289358Y108616D03*
D24*
X1283516Y108616D03*
X1278436Y108616D03*
D28*
X1274880Y108616D03*
D24*
X1271324Y108616D03*
X1266244Y108616D03*
D27*
X1262434Y108616D03*
D24*
X1258624Y108616D03*
D23*
X1253798Y108616D03*
D61*
X1246178Y108616D03*
D27*
X1237034Y108616D03*
D23*
X1232970Y108616D03*
D25*
X1223318Y108616D03*
X1217730Y108616D03*
D34*
X1211634Y108616D03*
X1205030Y108616D03*
D28*
X1199696Y108616D03*
D25*
X1194362Y108616D03*
D27*
X1189282Y108616D03*
D36*
X1183948Y108616D03*
D37*
X1173280Y108616D03*
D31*
X1163120Y108616D03*
D24*
X1158548Y108616D03*
X1153468Y108616D03*
D14*
X1146864Y108616D03*
D67*
X1337364Y109124D03*
D20*
X1324156Y109124D03*
D27*
X1316790Y109124D03*
D36*
X1311456Y109124D03*
X1303328Y109124D03*
D27*
X1296470Y109124D03*
D18*
X1289358Y109124D03*
D24*
X1283516Y109124D03*
X1278436Y109124D03*
D28*
X1274880Y109124D03*
D23*
X1271070Y109124D03*
X1265990Y109124D03*
X1262434Y109124D03*
D24*
X1258624Y109124D03*
D23*
X1253798Y109124D03*
D61*
X1246178Y109124D03*
D27*
X1237034Y109124D03*
D23*
X1232970Y109124D03*
D24*
X1229160Y109124D03*
D30*
X1223064Y109124D03*
D25*
X1217730Y109124D03*
D34*
X1211634Y109124D03*
X1205030Y109124D03*
D27*
X1199442Y109124D03*
D25*
X1194362Y109124D03*
D27*
X1189282Y109124D03*
D36*
X1183948Y109124D03*
D37*
X1173280Y109124D03*
D31*
X1163120Y109124D03*
D24*
X1158548Y109124D03*
X1153468Y109124D03*
D14*
X1146864Y109124D03*
D67*
X1337364Y109632D03*
D18*
X1324410Y109632D03*
D27*
X1317298Y109632D03*
D34*
X1311202Y109632D03*
D31*
X1302820Y109632D03*
D27*
X1296470Y109632D03*
D18*
X1289358Y109632D03*
D23*
X1283262Y109632D03*
X1278690Y109632D03*
X1274626Y109632D03*
X1271070Y109632D03*
X1265990Y109632D03*
X1262434Y109632D03*
X1258878Y109632D03*
X1253798Y109632D03*
D61*
X1246178Y109632D03*
D28*
X1236780Y109632D03*
X1232716Y109632D03*
D27*
X1228398Y109632D03*
X1222810Y109632D03*
D30*
X1217476Y109632D03*
D34*
X1211634Y109632D03*
X1205030Y109632D03*
D27*
X1199442Y109632D03*
D30*
X1194108Y109632D03*
D27*
X1189282Y109632D03*
D36*
X1183948Y109632D03*
D37*
X1173280Y109632D03*
D31*
X1163120Y109632D03*
D23*
X1158294Y109632D03*
X1153214Y109632D03*
D32*
X1146610Y109632D03*
D67*
X1337364Y110140D03*
D16*
X1324664Y110140D03*
D27*
X1317298Y110140D03*
D31*
X1311456Y110140D03*
X1302312Y110140D03*
D27*
X1296470Y110140D03*
D20*
X1289612Y110140D03*
D23*
X1283262Y110140D03*
D28*
X1278436Y110140D03*
D23*
X1274626Y110140D03*
X1271070Y110140D03*
X1265990Y110140D03*
X1262434Y110140D03*
D28*
X1258624Y110140D03*
D23*
X1253798Y110140D03*
D63*
X1245924Y110140D03*
D23*
X1236526Y110140D03*
D28*
X1232716Y110140D03*
D30*
X1227636Y110140D03*
D27*
X1222302Y110140D03*
X1217222Y110140D03*
D34*
X1211634Y110140D03*
X1205030Y110140D03*
D27*
X1199442Y110140D03*
X1193854Y110140D03*
X1189282Y110140D03*
D25*
X1183694Y110140D03*
D37*
X1173280Y110140D03*
D25*
X1163374Y110140D03*
D23*
X1158294Y110140D03*
D28*
X1153468Y110140D03*
D32*
X1146610Y110140D03*
D76*
X1334062Y110648D03*
D27*
X1317298Y110648D03*
D25*
X1311710Y110648D03*
X1302058Y110648D03*
D28*
X1296216Y110648D03*
D22*
X1289358Y110648D03*
D23*
X1283262Y110648D03*
D28*
X1278436Y110648D03*
D23*
X1274626Y110648D03*
D28*
X1270816Y110648D03*
X1266244Y110648D03*
D24*
X1262180Y110648D03*
D28*
X1258624Y110648D03*
X1253544Y110648D03*
D63*
X1245924Y110648D03*
D27*
X1232462Y110648D03*
X1222302Y110648D03*
D30*
X1212396Y110648D03*
D27*
X1204014Y110648D03*
D30*
X1199188Y110648D03*
D27*
X1189282Y110648D03*
D33*
X1174296Y110648D03*
D23*
X1162358Y110648D03*
X1158294Y110648D03*
D28*
X1153468Y110648D03*
D32*
X1146610Y110648D03*
D76*
X1334062Y111156D03*
D27*
X1317806Y111156D03*
D30*
X1311964Y111156D03*
D25*
X1302058Y111156D03*
D28*
X1296216Y111156D03*
D22*
X1289358Y111156D03*
D27*
X1283262Y111156D03*
D28*
X1278436Y111156D03*
D24*
X1274880Y111156D03*
D28*
X1270816Y111156D03*
D27*
X1265990Y111156D03*
D24*
X1262180Y111156D03*
D28*
X1258624Y111156D03*
X1253544Y111156D03*
D63*
X1245924Y111156D03*
D27*
X1232462Y111156D03*
D30*
X1222048Y111156D03*
D23*
X1212650Y111156D03*
D28*
X1203760Y111156D03*
D25*
X1198934Y111156D03*
D27*
X1189282Y111156D03*
D55*
X1175058Y111156D03*
D24*
X1162104Y111156D03*
D28*
X1158040Y111156D03*
X1153468Y111156D03*
D16*
X1146356Y111156D03*
D76*
X1334062Y111664D03*
D27*
X1317806Y111664D03*
D25*
X1312218Y111664D03*
X1301550Y111664D03*
D28*
X1296216Y111664D03*
D22*
X1289358Y111664D03*
D27*
X1283262Y111664D03*
D28*
X1278436Y111664D03*
X1270816Y111664D03*
D27*
X1265990Y111664D03*
D24*
X1262180Y111664D03*
D27*
X1258370Y111664D03*
X1253798Y111664D03*
D63*
X1245924Y111664D03*
D25*
X1232462Y111664D03*
D31*
X1222048Y111664D03*
D28*
X1212904Y111664D03*
D23*
X1203506Y111664D03*
D25*
X1198934Y111664D03*
D27*
X1189282Y111664D03*
D58*
X1175312Y111664D03*
D27*
X1158294Y111664D03*
X1153214Y111664D03*
D16*
X1146356Y111664D03*
D76*
X1334062Y112172D03*
D27*
X1317806Y112172D03*
D25*
X1312218Y112172D03*
X1301550Y112172D03*
D28*
X1296216Y112172D03*
D22*
X1289358Y112172D03*
D27*
X1283262Y112172D03*
D30*
X1278436Y112172D03*
X1270816Y112172D03*
D27*
X1265990Y112172D03*
D24*
X1262180Y112172D03*
D27*
X1258370Y112172D03*
X1253798Y112172D03*
D38*
X1245670Y112172D03*
D31*
X1232208Y112172D03*
D36*
X1222048Y112172D03*
D28*
X1212904Y112172D03*
D23*
X1203506Y112172D03*
D34*
X1198426Y112172D03*
D30*
X1189536Y112172D03*
D55*
X1175566Y112172D03*
D24*
X1162104Y112172D03*
D27*
X1158294Y112172D03*
D30*
X1153468Y112172D03*
D16*
X1146356Y112172D03*
D76*
X1334062Y112680D03*
D27*
X1317806Y112680D03*
D25*
X1312218Y112680D03*
X1301550Y112680D03*
D28*
X1296216Y112680D03*
D20*
X1289104Y112680D03*
D30*
X1283008Y112680D03*
X1278436Y112680D03*
D23*
X1274626Y112680D03*
D30*
X1270816Y112680D03*
D25*
X1265990Y112680D03*
D24*
X1262180Y112680D03*
D25*
X1258370Y112680D03*
X1253798Y112680D03*
D61*
X1245670Y112680D03*
D28*
X1238304Y112680D03*
D22*
X1231954Y112680D03*
D18*
X1221794Y112680D03*
D30*
X1213412Y112680D03*
D28*
X1203760Y112680D03*
D22*
X1197918Y112680D03*
D25*
X1189790Y112680D03*
D24*
X1185980Y112680D03*
D37*
X1175820Y112680D03*
D23*
X1161850Y112680D03*
D30*
X1158040Y112680D03*
X1153468Y112680D03*
D32*
X1146610Y112680D03*
D76*
X1334062Y113188D03*
D27*
X1317806Y113188D03*
D25*
X1312218Y113188D03*
D30*
X1301804Y113188D03*
D28*
X1296216Y113188D03*
D102*
X1266498Y113188D03*
D50*
X1224334Y113188D03*
D34*
X1205030Y113188D03*
D29*
X1194362Y113188D03*
D90*
X1177090Y113188D03*
D73*
X1153976Y113188D03*
D76*
X1334062Y113696D03*
D27*
X1317806Y113696D03*
D25*
X1312218Y113696D03*
D30*
X1301804Y113696D03*
D28*
X1296216Y113696D03*
D103*
X1251004Y113696D03*
D34*
X1205030Y113696D03*
D29*
X1194362Y113696D03*
D90*
X1177090Y113696D03*
D73*
X1153976Y113696D03*
D76*
X1334062Y114204D03*
D27*
X1317806Y114204D03*
D25*
X1312218Y114204D03*
X1302058Y114204D03*
D27*
X1296470Y114204D03*
D103*
X1251004Y114204D03*
D34*
X1205030Y114204D03*
D29*
X1194362Y114204D03*
D90*
X1177090Y114204D03*
D73*
X1153976Y114204D03*
D76*
X1334062Y114712D03*
D28*
X1317552Y114712D03*
D25*
X1311710Y114712D03*
X1302058Y114712D03*
D27*
X1296470Y114712D03*
D103*
X1251004Y114712D03*
D34*
X1205030Y114712D03*
D29*
X1194362Y114712D03*
D90*
X1177090Y114712D03*
D73*
X1153976Y114712D03*
D74*
X1333808Y115220D03*
D27*
X1317298Y115220D03*
D31*
X1311456Y115220D03*
X1302312Y115220D03*
D27*
X1296978Y115220D03*
D103*
X1251004Y115220D03*
D34*
X1205030Y115220D03*
D29*
X1194362Y115220D03*
D90*
X1177090Y115220D03*
D79*
X1154230Y115220D03*
D74*
X1333808Y115728D03*
D27*
X1317298Y115728D03*
D31*
X1310948Y115728D03*
D36*
X1302312Y115728D03*
D30*
X1297232Y115728D03*
D103*
X1251004Y115728D03*
D36*
X1205284Y115728D03*
D29*
X1194362Y115728D03*
D69*
X1176836Y115728D03*
D79*
X1154230Y115728D03*
D74*
X1333808Y116236D03*
D28*
X1317044Y116236D03*
D34*
X1310186Y116236D03*
D58*
X1300788Y116236D03*
D104*
X1247956Y116236D03*
D29*
X1194362Y116236D03*
D105*
X1164644Y116236D03*
D74*
X1333808Y116744D03*
D27*
X1316790Y116744D03*
D17*
X1303836Y116744D03*
D104*
X1247956Y116744D03*
D29*
X1194362Y116744D03*
D105*
X1164644Y116744D03*
D71*
X1333554Y117252D03*
D30*
X1316536Y117252D03*
D21*
X1303328Y117252D03*
D106*
X1248210Y117252D03*
D29*
X1194362Y117252D03*
D105*
X1164644Y117252D03*
D71*
X1333554Y117760D03*
D27*
X1316282Y117760D03*
D21*
X1302820Y117760D03*
D107*
X1248210Y117760D03*
D89*
X1194362Y117760D03*
D105*
X1164644Y117760D03*
D71*
X1333554Y118268D03*
D27*
X1315774Y118268D03*
D108*
X1226366Y118268D03*
D68*
X1333300Y118776D03*
D30*
X1315520Y118776D03*
D108*
X1226366Y118776D03*
D64*
X1333046Y119284D03*
D30*
X1315012Y119284D03*
D109*
X1226620Y119284D03*
D64*
X1333046Y119792D03*
D25*
X1314250Y119792D03*
D110*
X1226874Y119792D03*
D60*
X1332792Y120300D03*
D111*
X1229160Y120300D03*
D57*
X1332538Y120808D03*
D44*
X1228906Y120808D03*
D57*
X1332538Y121316D03*
D46*
X1228398Y121316D03*
D54*
X1332284Y121824D03*
D48*
X1227890Y121824D03*
D52*
X1332030Y122332D03*
D112*
X1227636Y122332D03*
D113*
X1331776Y122840D03*
D114*
X1227382Y122840D03*
D115*
X1331268Y123348D03*
D114*
X1227382Y123348D03*
D116*
X1331014Y123856D03*
D112*
X1227636Y123856D03*
D117*
X1330506Y124364D03*
D48*
X1227890Y124364D03*
D13*
X1244654Y124872D03*
M02*
