G04 EAGLE Gerber RS-274X export*
G75*
%MOMM*%
%FSLAX34Y34*%
%LPD*%
%INSilkscreen Top*%
%IPPOS*%
%AMOC8*
5,1,8,0,0,1.08239X$1,22.5*%
G01*
%ADD10C,0.076200*%
%ADD11C,0.203200*%
%ADD12C,0.101600*%
%ADD13C,0.152400*%
%ADD14C,0.127000*%
%ADD15C,0.200000*%
%ADD16C,0.500000*%
%ADD17C,0.120000*%

G36*
X1149508Y70986D02*
X1149508Y70986D01*
X1149517Y70985D01*
X1149649Y71006D01*
X1149782Y71025D01*
X1149789Y71028D01*
X1149798Y71029D01*
X1149919Y71086D01*
X1150041Y71141D01*
X1150047Y71146D01*
X1150055Y71150D01*
X1150156Y71238D01*
X1150258Y71325D01*
X1150263Y71332D01*
X1150269Y71337D01*
X1150341Y71450D01*
X1150416Y71561D01*
X1150418Y71569D01*
X1150423Y71576D01*
X1150461Y71705D01*
X1150501Y71832D01*
X1150502Y71841D01*
X1150504Y71849D01*
X1150505Y71983D01*
X1150509Y72116D01*
X1150506Y72125D01*
X1150507Y72133D01*
X1150491Y72184D01*
X1150437Y72391D01*
X1150417Y72424D01*
X1150408Y72454D01*
X1148408Y76454D01*
X1148351Y76536D01*
X1148302Y76623D01*
X1148271Y76653D01*
X1148247Y76688D01*
X1148169Y76751D01*
X1148098Y76821D01*
X1148060Y76841D01*
X1148027Y76868D01*
X1147935Y76907D01*
X1147847Y76954D01*
X1147805Y76963D01*
X1147765Y76980D01*
X1147666Y76992D01*
X1147569Y77013D01*
X1147526Y77010D01*
X1147483Y77015D01*
X1147385Y77000D01*
X1147285Y76992D01*
X1147245Y76977D01*
X1147202Y76971D01*
X1147112Y76928D01*
X1147019Y76894D01*
X1146984Y76868D01*
X1146945Y76850D01*
X1146870Y76784D01*
X1146790Y76725D01*
X1146767Y76694D01*
X1146731Y76663D01*
X1146634Y76511D01*
X1146592Y76454D01*
X1144592Y72454D01*
X1144589Y72446D01*
X1144585Y72439D01*
X1144544Y72311D01*
X1144502Y72184D01*
X1144501Y72176D01*
X1144499Y72168D01*
X1144495Y72033D01*
X1144490Y71900D01*
X1144492Y71892D01*
X1144491Y71884D01*
X1144525Y71754D01*
X1144557Y71624D01*
X1144561Y71617D01*
X1144563Y71609D01*
X1144631Y71494D01*
X1144698Y71377D01*
X1144704Y71372D01*
X1144709Y71364D01*
X1144806Y71272D01*
X1144902Y71180D01*
X1144910Y71176D01*
X1144916Y71170D01*
X1145035Y71109D01*
X1145153Y71046D01*
X1145161Y71044D01*
X1145169Y71040D01*
X1145221Y71032D01*
X1145431Y70987D01*
X1145469Y70990D01*
X1145500Y70985D01*
X1149500Y70985D01*
X1149508Y70986D01*
G37*
G36*
X899508Y70986D02*
X899508Y70986D01*
X899517Y70985D01*
X899649Y71006D01*
X899782Y71025D01*
X899789Y71028D01*
X899798Y71029D01*
X899919Y71086D01*
X900041Y71141D01*
X900047Y71146D01*
X900055Y71150D01*
X900156Y71238D01*
X900258Y71325D01*
X900263Y71332D01*
X900269Y71337D01*
X900341Y71450D01*
X900416Y71561D01*
X900418Y71569D01*
X900423Y71576D01*
X900461Y71705D01*
X900501Y71832D01*
X900502Y71841D01*
X900504Y71849D01*
X900505Y71983D01*
X900509Y72116D01*
X900506Y72125D01*
X900507Y72133D01*
X900491Y72184D01*
X900437Y72391D01*
X900417Y72424D01*
X900408Y72454D01*
X898408Y76454D01*
X898351Y76536D01*
X898302Y76623D01*
X898271Y76653D01*
X898247Y76688D01*
X898169Y76751D01*
X898098Y76821D01*
X898060Y76841D01*
X898027Y76868D01*
X897935Y76907D01*
X897847Y76954D01*
X897805Y76963D01*
X897765Y76980D01*
X897666Y76992D01*
X897569Y77013D01*
X897526Y77010D01*
X897483Y77015D01*
X897385Y77000D01*
X897285Y76992D01*
X897245Y76977D01*
X897202Y76971D01*
X897112Y76928D01*
X897019Y76894D01*
X896984Y76868D01*
X896945Y76850D01*
X896870Y76784D01*
X896790Y76725D01*
X896767Y76694D01*
X896731Y76663D01*
X896634Y76511D01*
X896592Y76454D01*
X894592Y72454D01*
X894589Y72446D01*
X894585Y72439D01*
X894544Y72311D01*
X894502Y72184D01*
X894501Y72176D01*
X894499Y72168D01*
X894495Y72033D01*
X894490Y71900D01*
X894492Y71892D01*
X894491Y71884D01*
X894525Y71754D01*
X894557Y71624D01*
X894561Y71617D01*
X894563Y71609D01*
X894631Y71494D01*
X894698Y71377D01*
X894704Y71372D01*
X894709Y71364D01*
X894806Y71272D01*
X894902Y71180D01*
X894910Y71176D01*
X894916Y71170D01*
X895035Y71109D01*
X895153Y71046D01*
X895161Y71044D01*
X895169Y71040D01*
X895221Y71032D01*
X895431Y70987D01*
X895469Y70990D01*
X895500Y70985D01*
X899500Y70985D01*
X899508Y70986D01*
G37*
G36*
X649508Y70986D02*
X649508Y70986D01*
X649517Y70985D01*
X649649Y71006D01*
X649782Y71025D01*
X649789Y71028D01*
X649798Y71029D01*
X649919Y71086D01*
X650041Y71141D01*
X650047Y71146D01*
X650055Y71150D01*
X650156Y71238D01*
X650258Y71325D01*
X650263Y71332D01*
X650269Y71337D01*
X650341Y71450D01*
X650416Y71561D01*
X650418Y71569D01*
X650423Y71576D01*
X650461Y71705D01*
X650501Y71832D01*
X650502Y71841D01*
X650504Y71849D01*
X650505Y71983D01*
X650509Y72116D01*
X650506Y72125D01*
X650507Y72133D01*
X650491Y72184D01*
X650437Y72391D01*
X650417Y72424D01*
X650408Y72454D01*
X648408Y76454D01*
X648351Y76536D01*
X648302Y76623D01*
X648271Y76653D01*
X648247Y76688D01*
X648169Y76751D01*
X648098Y76821D01*
X648060Y76841D01*
X648027Y76868D01*
X647935Y76907D01*
X647847Y76954D01*
X647805Y76963D01*
X647765Y76980D01*
X647666Y76992D01*
X647569Y77013D01*
X647526Y77010D01*
X647483Y77015D01*
X647385Y77000D01*
X647285Y76992D01*
X647245Y76977D01*
X647202Y76971D01*
X647112Y76928D01*
X647019Y76894D01*
X646984Y76868D01*
X646945Y76850D01*
X646870Y76784D01*
X646790Y76725D01*
X646767Y76694D01*
X646731Y76663D01*
X646634Y76511D01*
X646592Y76454D01*
X644592Y72454D01*
X644589Y72446D01*
X644585Y72439D01*
X644544Y72311D01*
X644502Y72184D01*
X644501Y72176D01*
X644499Y72168D01*
X644495Y72033D01*
X644490Y71900D01*
X644492Y71892D01*
X644491Y71884D01*
X644525Y71754D01*
X644557Y71624D01*
X644561Y71617D01*
X644563Y71609D01*
X644631Y71494D01*
X644698Y71377D01*
X644704Y71372D01*
X644709Y71364D01*
X644806Y71272D01*
X644902Y71180D01*
X644910Y71176D01*
X644916Y71170D01*
X645035Y71109D01*
X645153Y71046D01*
X645161Y71044D01*
X645169Y71040D01*
X645221Y71032D01*
X645431Y70987D01*
X645469Y70990D01*
X645500Y70985D01*
X649500Y70985D01*
X649508Y70986D01*
G37*
G36*
X399508Y70986D02*
X399508Y70986D01*
X399517Y70985D01*
X399649Y71006D01*
X399782Y71025D01*
X399789Y71028D01*
X399798Y71029D01*
X399919Y71086D01*
X400041Y71141D01*
X400047Y71146D01*
X400055Y71150D01*
X400156Y71238D01*
X400258Y71325D01*
X400263Y71332D01*
X400269Y71337D01*
X400341Y71450D01*
X400416Y71561D01*
X400418Y71569D01*
X400423Y71576D01*
X400461Y71705D01*
X400501Y71832D01*
X400502Y71841D01*
X400504Y71849D01*
X400505Y71983D01*
X400509Y72116D01*
X400506Y72125D01*
X400507Y72133D01*
X400491Y72184D01*
X400437Y72391D01*
X400417Y72424D01*
X400408Y72454D01*
X398408Y76454D01*
X398351Y76536D01*
X398302Y76623D01*
X398271Y76653D01*
X398247Y76688D01*
X398169Y76751D01*
X398098Y76821D01*
X398060Y76841D01*
X398027Y76868D01*
X397935Y76907D01*
X397847Y76954D01*
X397805Y76963D01*
X397765Y76980D01*
X397666Y76992D01*
X397569Y77013D01*
X397526Y77010D01*
X397483Y77015D01*
X397385Y77000D01*
X397285Y76992D01*
X397245Y76977D01*
X397202Y76971D01*
X397112Y76928D01*
X397019Y76894D01*
X396984Y76868D01*
X396945Y76850D01*
X396870Y76784D01*
X396790Y76725D01*
X396767Y76694D01*
X396731Y76663D01*
X396634Y76511D01*
X396592Y76454D01*
X394592Y72454D01*
X394589Y72446D01*
X394585Y72439D01*
X394544Y72311D01*
X394502Y72184D01*
X394501Y72176D01*
X394499Y72168D01*
X394495Y72033D01*
X394490Y71900D01*
X394492Y71892D01*
X394491Y71884D01*
X394525Y71754D01*
X394557Y71624D01*
X394561Y71617D01*
X394563Y71609D01*
X394631Y71494D01*
X394698Y71377D01*
X394704Y71372D01*
X394709Y71364D01*
X394806Y71272D01*
X394902Y71180D01*
X394910Y71176D01*
X394916Y71170D01*
X395035Y71109D01*
X395153Y71046D01*
X395161Y71044D01*
X395169Y71040D01*
X395221Y71032D01*
X395431Y70987D01*
X395469Y70990D01*
X395500Y70985D01*
X399500Y70985D01*
X399508Y70986D01*
G37*
G36*
X149508Y70986D02*
X149508Y70986D01*
X149517Y70985D01*
X149649Y71006D01*
X149782Y71025D01*
X149789Y71028D01*
X149798Y71029D01*
X149919Y71086D01*
X150041Y71141D01*
X150047Y71146D01*
X150055Y71150D01*
X150156Y71238D01*
X150258Y71325D01*
X150263Y71332D01*
X150269Y71337D01*
X150341Y71450D01*
X150416Y71561D01*
X150418Y71569D01*
X150423Y71576D01*
X150461Y71705D01*
X150501Y71832D01*
X150502Y71841D01*
X150504Y71849D01*
X150505Y71983D01*
X150509Y72116D01*
X150506Y72125D01*
X150507Y72133D01*
X150491Y72184D01*
X150437Y72391D01*
X150417Y72424D01*
X150408Y72454D01*
X148408Y76454D01*
X148351Y76536D01*
X148302Y76623D01*
X148271Y76653D01*
X148247Y76688D01*
X148169Y76751D01*
X148098Y76821D01*
X148060Y76841D01*
X148027Y76868D01*
X147935Y76907D01*
X147847Y76954D01*
X147805Y76963D01*
X147765Y76980D01*
X147666Y76992D01*
X147569Y77013D01*
X147526Y77010D01*
X147483Y77015D01*
X147385Y77000D01*
X147285Y76992D01*
X147245Y76977D01*
X147202Y76971D01*
X147112Y76928D01*
X147019Y76894D01*
X146984Y76868D01*
X146945Y76850D01*
X146870Y76784D01*
X146790Y76725D01*
X146767Y76694D01*
X146731Y76663D01*
X146634Y76511D01*
X146592Y76454D01*
X144592Y72454D01*
X144589Y72446D01*
X144585Y72439D01*
X144544Y72311D01*
X144502Y72184D01*
X144501Y72176D01*
X144499Y72168D01*
X144495Y72033D01*
X144490Y71900D01*
X144492Y71892D01*
X144491Y71884D01*
X144525Y71754D01*
X144557Y71624D01*
X144561Y71617D01*
X144563Y71609D01*
X144631Y71494D01*
X144698Y71377D01*
X144704Y71372D01*
X144709Y71364D01*
X144806Y71272D01*
X144902Y71180D01*
X144910Y71176D01*
X144916Y71170D01*
X145035Y71109D01*
X145153Y71046D01*
X145161Y71044D01*
X145169Y71040D01*
X145221Y71032D01*
X145431Y70987D01*
X145469Y70990D01*
X145500Y70985D01*
X149500Y70985D01*
X149508Y70986D01*
G37*
D10*
X1214598Y159381D02*
X1214598Y161794D01*
X1214600Y161873D01*
X1214606Y161952D01*
X1214615Y162030D01*
X1214629Y162108D01*
X1214646Y162185D01*
X1214667Y162261D01*
X1214692Y162336D01*
X1214720Y162409D01*
X1214752Y162482D01*
X1214788Y162552D01*
X1214827Y162621D01*
X1214869Y162687D01*
X1214914Y162752D01*
X1214963Y162814D01*
X1215015Y162874D01*
X1215069Y162931D01*
X1215126Y162985D01*
X1215186Y163037D01*
X1215248Y163086D01*
X1215313Y163131D01*
X1215379Y163173D01*
X1215448Y163212D01*
X1215518Y163248D01*
X1215591Y163280D01*
X1215664Y163308D01*
X1215739Y163333D01*
X1215815Y163354D01*
X1215892Y163371D01*
X1215970Y163385D01*
X1216048Y163394D01*
X1216127Y163400D01*
X1216206Y163402D01*
X1216608Y163402D01*
X1216608Y163403D02*
X1216697Y163401D01*
X1216786Y163395D01*
X1216874Y163385D01*
X1216962Y163372D01*
X1217049Y163354D01*
X1217136Y163333D01*
X1217221Y163307D01*
X1217305Y163278D01*
X1217388Y163246D01*
X1217469Y163209D01*
X1217549Y163169D01*
X1217626Y163126D01*
X1217702Y163079D01*
X1217776Y163029D01*
X1217847Y162976D01*
X1217916Y162920D01*
X1217982Y162860D01*
X1218046Y162798D01*
X1218106Y162733D01*
X1218164Y162666D01*
X1218219Y162596D01*
X1218271Y162523D01*
X1218319Y162448D01*
X1218364Y162372D01*
X1218406Y162293D01*
X1218444Y162213D01*
X1218478Y162131D01*
X1218509Y162047D01*
X1218536Y161962D01*
X1218560Y161877D01*
X1218579Y161790D01*
X1218595Y161702D01*
X1218607Y161614D01*
X1218615Y161525D01*
X1218619Y161436D01*
X1218619Y161348D01*
X1218615Y161259D01*
X1218607Y161170D01*
X1218595Y161082D01*
X1218579Y160994D01*
X1218560Y160907D01*
X1218536Y160822D01*
X1218509Y160737D01*
X1218478Y160653D01*
X1218444Y160571D01*
X1218406Y160491D01*
X1218364Y160412D01*
X1218319Y160336D01*
X1218271Y160261D01*
X1218219Y160188D01*
X1218164Y160118D01*
X1218106Y160051D01*
X1218046Y159986D01*
X1217982Y159924D01*
X1217916Y159864D01*
X1217847Y159808D01*
X1217776Y159755D01*
X1217702Y159705D01*
X1217626Y159658D01*
X1217549Y159615D01*
X1217469Y159575D01*
X1217388Y159538D01*
X1217305Y159506D01*
X1217221Y159477D01*
X1217136Y159451D01*
X1217049Y159430D01*
X1216962Y159412D01*
X1216874Y159399D01*
X1216786Y159389D01*
X1216697Y159383D01*
X1216608Y159381D01*
X1214598Y159381D01*
X1214486Y159383D01*
X1214374Y159389D01*
X1214262Y159399D01*
X1214150Y159412D01*
X1214039Y159430D01*
X1213929Y159451D01*
X1213820Y159477D01*
X1213711Y159506D01*
X1213604Y159538D01*
X1213498Y159575D01*
X1213393Y159615D01*
X1213290Y159659D01*
X1213188Y159707D01*
X1213088Y159758D01*
X1212990Y159812D01*
X1212893Y159870D01*
X1212799Y159931D01*
X1212707Y159995D01*
X1212617Y160063D01*
X1212530Y160134D01*
X1212445Y160207D01*
X1212363Y160284D01*
X1212284Y160363D01*
X1212207Y160445D01*
X1212134Y160530D01*
X1212063Y160617D01*
X1211995Y160707D01*
X1211931Y160799D01*
X1211870Y160893D01*
X1211812Y160989D01*
X1211758Y161088D01*
X1211707Y161188D01*
X1211659Y161289D01*
X1211615Y161393D01*
X1211575Y161498D01*
X1211538Y161604D01*
X1211506Y161711D01*
X1211477Y161820D01*
X1211451Y161929D01*
X1211430Y162039D01*
X1211412Y162150D01*
X1211399Y162262D01*
X1211389Y162374D01*
X1211383Y162486D01*
X1211381Y162598D01*
X1218217Y166230D02*
X1218619Y166230D01*
X1218217Y166230D02*
X1218217Y166633D01*
X1218619Y166633D01*
X1218619Y166230D01*
X1216608Y169460D02*
X1216519Y169462D01*
X1216430Y169468D01*
X1216342Y169478D01*
X1216254Y169491D01*
X1216167Y169509D01*
X1216080Y169530D01*
X1215995Y169556D01*
X1215911Y169585D01*
X1215828Y169617D01*
X1215747Y169654D01*
X1215667Y169694D01*
X1215590Y169737D01*
X1215514Y169784D01*
X1215440Y169834D01*
X1215369Y169887D01*
X1215300Y169943D01*
X1215234Y170003D01*
X1215170Y170065D01*
X1215110Y170130D01*
X1215052Y170197D01*
X1214997Y170267D01*
X1214945Y170340D01*
X1214897Y170415D01*
X1214852Y170491D01*
X1214810Y170570D01*
X1214772Y170650D01*
X1214738Y170732D01*
X1214707Y170816D01*
X1214680Y170901D01*
X1214656Y170986D01*
X1214637Y171073D01*
X1214621Y171161D01*
X1214609Y171249D01*
X1214601Y171338D01*
X1214597Y171427D01*
X1214597Y171515D01*
X1214601Y171604D01*
X1214609Y171693D01*
X1214621Y171781D01*
X1214637Y171869D01*
X1214656Y171956D01*
X1214680Y172041D01*
X1214707Y172126D01*
X1214738Y172210D01*
X1214772Y172292D01*
X1214810Y172372D01*
X1214852Y172451D01*
X1214897Y172527D01*
X1214945Y172602D01*
X1214997Y172675D01*
X1215052Y172745D01*
X1215110Y172812D01*
X1215170Y172877D01*
X1215234Y172939D01*
X1215300Y172999D01*
X1215369Y173055D01*
X1215440Y173108D01*
X1215514Y173158D01*
X1215590Y173205D01*
X1215667Y173248D01*
X1215747Y173288D01*
X1215828Y173325D01*
X1215911Y173357D01*
X1215995Y173386D01*
X1216080Y173412D01*
X1216167Y173433D01*
X1216254Y173451D01*
X1216342Y173464D01*
X1216430Y173474D01*
X1216519Y173480D01*
X1216608Y173482D01*
X1216697Y173480D01*
X1216786Y173474D01*
X1216874Y173464D01*
X1216962Y173451D01*
X1217049Y173433D01*
X1217136Y173412D01*
X1217221Y173386D01*
X1217305Y173357D01*
X1217388Y173325D01*
X1217469Y173288D01*
X1217549Y173248D01*
X1217626Y173205D01*
X1217702Y173158D01*
X1217776Y173108D01*
X1217847Y173055D01*
X1217916Y172999D01*
X1217982Y172939D01*
X1218046Y172877D01*
X1218106Y172812D01*
X1218164Y172745D01*
X1218219Y172675D01*
X1218271Y172602D01*
X1218319Y172527D01*
X1218364Y172451D01*
X1218406Y172372D01*
X1218444Y172292D01*
X1218478Y172210D01*
X1218509Y172126D01*
X1218536Y172041D01*
X1218560Y171956D01*
X1218579Y171869D01*
X1218595Y171781D01*
X1218607Y171693D01*
X1218615Y171604D01*
X1218619Y171515D01*
X1218619Y171427D01*
X1218615Y171338D01*
X1218607Y171249D01*
X1218595Y171161D01*
X1218579Y171073D01*
X1218560Y170986D01*
X1218536Y170901D01*
X1218509Y170816D01*
X1218478Y170732D01*
X1218444Y170650D01*
X1218406Y170570D01*
X1218364Y170491D01*
X1218319Y170415D01*
X1218271Y170340D01*
X1218219Y170267D01*
X1218164Y170197D01*
X1218106Y170130D01*
X1218046Y170065D01*
X1217982Y170003D01*
X1217916Y169943D01*
X1217847Y169887D01*
X1217776Y169834D01*
X1217702Y169784D01*
X1217626Y169737D01*
X1217549Y169694D01*
X1217469Y169654D01*
X1217388Y169617D01*
X1217305Y169585D01*
X1217221Y169556D01*
X1217136Y169530D01*
X1217049Y169509D01*
X1216962Y169491D01*
X1216874Y169478D01*
X1216786Y169468D01*
X1216697Y169462D01*
X1216608Y169460D01*
X1212989Y169863D02*
X1212910Y169865D01*
X1212831Y169871D01*
X1212753Y169880D01*
X1212675Y169894D01*
X1212598Y169911D01*
X1212522Y169932D01*
X1212447Y169957D01*
X1212374Y169985D01*
X1212301Y170017D01*
X1212231Y170053D01*
X1212162Y170092D01*
X1212096Y170134D01*
X1212031Y170179D01*
X1211969Y170228D01*
X1211909Y170280D01*
X1211852Y170334D01*
X1211798Y170391D01*
X1211746Y170451D01*
X1211697Y170513D01*
X1211652Y170578D01*
X1211610Y170644D01*
X1211571Y170713D01*
X1211535Y170783D01*
X1211503Y170856D01*
X1211475Y170929D01*
X1211450Y171004D01*
X1211429Y171080D01*
X1211412Y171157D01*
X1211398Y171235D01*
X1211389Y171313D01*
X1211383Y171392D01*
X1211381Y171471D01*
X1211383Y171550D01*
X1211389Y171629D01*
X1211398Y171707D01*
X1211412Y171785D01*
X1211429Y171862D01*
X1211450Y171938D01*
X1211475Y172013D01*
X1211503Y172086D01*
X1211535Y172159D01*
X1211571Y172229D01*
X1211610Y172298D01*
X1211652Y172364D01*
X1211697Y172429D01*
X1211746Y172491D01*
X1211798Y172551D01*
X1211852Y172608D01*
X1211909Y172662D01*
X1211969Y172714D01*
X1212031Y172763D01*
X1212096Y172808D01*
X1212162Y172850D01*
X1212231Y172889D01*
X1212301Y172925D01*
X1212374Y172957D01*
X1212447Y172985D01*
X1212522Y173010D01*
X1212598Y173031D01*
X1212675Y173048D01*
X1212753Y173062D01*
X1212831Y173071D01*
X1212910Y173077D01*
X1212989Y173079D01*
X1213068Y173077D01*
X1213147Y173071D01*
X1213225Y173062D01*
X1213303Y173048D01*
X1213380Y173031D01*
X1213456Y173010D01*
X1213531Y172985D01*
X1213604Y172957D01*
X1213677Y172925D01*
X1213747Y172889D01*
X1213816Y172850D01*
X1213882Y172808D01*
X1213947Y172763D01*
X1214009Y172714D01*
X1214069Y172662D01*
X1214126Y172608D01*
X1214180Y172551D01*
X1214232Y172491D01*
X1214281Y172429D01*
X1214326Y172364D01*
X1214368Y172298D01*
X1214407Y172229D01*
X1214443Y172159D01*
X1214475Y172086D01*
X1214503Y172013D01*
X1214528Y171938D01*
X1214549Y171862D01*
X1214566Y171785D01*
X1214580Y171707D01*
X1214589Y171629D01*
X1214595Y171550D01*
X1214597Y171471D01*
X1214595Y171392D01*
X1214589Y171313D01*
X1214580Y171235D01*
X1214566Y171157D01*
X1214549Y171080D01*
X1214528Y171004D01*
X1214503Y170929D01*
X1214475Y170856D01*
X1214443Y170783D01*
X1214407Y170713D01*
X1214368Y170644D01*
X1214326Y170578D01*
X1214281Y170513D01*
X1214232Y170451D01*
X1214180Y170391D01*
X1214126Y170334D01*
X1214069Y170280D01*
X1214009Y170228D01*
X1213947Y170179D01*
X1213882Y170134D01*
X1213816Y170092D01*
X1213747Y170053D01*
X1213677Y170017D01*
X1213604Y169985D01*
X1213531Y169957D01*
X1213456Y169932D01*
X1213380Y169911D01*
X1213303Y169894D01*
X1213225Y169880D01*
X1213147Y169871D01*
X1213068Y169865D01*
X1212989Y169863D01*
X1211381Y176917D02*
X1218619Y176917D01*
X1216206Y176917D02*
X1213794Y180133D01*
X1215201Y178324D02*
X1218619Y180133D01*
X1225619Y241381D02*
X1225619Y243392D01*
X1225617Y243481D01*
X1225611Y243570D01*
X1225601Y243658D01*
X1225588Y243746D01*
X1225570Y243833D01*
X1225549Y243920D01*
X1225523Y244005D01*
X1225494Y244089D01*
X1225462Y244172D01*
X1225425Y244253D01*
X1225385Y244333D01*
X1225342Y244410D01*
X1225295Y244486D01*
X1225245Y244560D01*
X1225192Y244631D01*
X1225136Y244700D01*
X1225076Y244766D01*
X1225014Y244830D01*
X1224949Y244890D01*
X1224882Y244948D01*
X1224812Y245003D01*
X1224739Y245055D01*
X1224664Y245103D01*
X1224588Y245148D01*
X1224509Y245190D01*
X1224429Y245228D01*
X1224347Y245262D01*
X1224263Y245293D01*
X1224178Y245320D01*
X1224093Y245344D01*
X1224006Y245363D01*
X1223918Y245379D01*
X1223830Y245391D01*
X1223741Y245399D01*
X1223652Y245403D01*
X1223564Y245403D01*
X1223475Y245399D01*
X1223386Y245391D01*
X1223298Y245379D01*
X1223210Y245363D01*
X1223123Y245344D01*
X1223038Y245320D01*
X1222953Y245293D01*
X1222869Y245262D01*
X1222787Y245228D01*
X1222707Y245190D01*
X1222628Y245148D01*
X1222552Y245103D01*
X1222477Y245055D01*
X1222404Y245003D01*
X1222334Y244948D01*
X1222267Y244890D01*
X1222202Y244830D01*
X1222140Y244766D01*
X1222080Y244700D01*
X1222024Y244631D01*
X1221971Y244560D01*
X1221921Y244486D01*
X1221874Y244410D01*
X1221831Y244333D01*
X1221791Y244253D01*
X1221754Y244172D01*
X1221722Y244089D01*
X1221693Y244005D01*
X1221667Y243920D01*
X1221646Y243833D01*
X1221628Y243746D01*
X1221615Y243658D01*
X1221605Y243570D01*
X1221599Y243481D01*
X1221597Y243392D01*
X1218381Y243794D02*
X1218381Y241381D01*
X1218381Y243794D02*
X1218383Y243873D01*
X1218389Y243952D01*
X1218398Y244030D01*
X1218412Y244108D01*
X1218429Y244185D01*
X1218450Y244261D01*
X1218475Y244336D01*
X1218503Y244409D01*
X1218535Y244482D01*
X1218571Y244552D01*
X1218610Y244621D01*
X1218652Y244687D01*
X1218697Y244752D01*
X1218746Y244814D01*
X1218798Y244874D01*
X1218852Y244931D01*
X1218909Y244985D01*
X1218969Y245037D01*
X1219031Y245086D01*
X1219096Y245131D01*
X1219162Y245173D01*
X1219231Y245212D01*
X1219301Y245248D01*
X1219374Y245280D01*
X1219447Y245308D01*
X1219522Y245333D01*
X1219598Y245354D01*
X1219675Y245371D01*
X1219753Y245385D01*
X1219831Y245394D01*
X1219910Y245400D01*
X1219989Y245402D01*
X1220068Y245400D01*
X1220147Y245394D01*
X1220225Y245385D01*
X1220303Y245371D01*
X1220380Y245354D01*
X1220456Y245333D01*
X1220531Y245308D01*
X1220604Y245280D01*
X1220677Y245248D01*
X1220747Y245212D01*
X1220816Y245173D01*
X1220882Y245131D01*
X1220947Y245086D01*
X1221009Y245037D01*
X1221069Y244985D01*
X1221126Y244931D01*
X1221180Y244874D01*
X1221232Y244814D01*
X1221281Y244752D01*
X1221326Y244687D01*
X1221368Y244621D01*
X1221407Y244552D01*
X1221443Y244482D01*
X1221475Y244409D01*
X1221503Y244336D01*
X1221528Y244261D01*
X1221549Y244185D01*
X1221566Y244108D01*
X1221580Y244030D01*
X1221589Y243952D01*
X1221595Y243873D01*
X1221597Y243794D01*
X1221598Y243794D02*
X1221598Y242185D01*
X1225217Y248230D02*
X1225619Y248230D01*
X1225217Y248230D02*
X1225217Y248633D01*
X1225619Y248633D01*
X1225619Y248230D01*
X1225619Y251461D02*
X1225619Y253471D01*
X1225617Y253560D01*
X1225611Y253649D01*
X1225601Y253737D01*
X1225588Y253825D01*
X1225570Y253912D01*
X1225549Y253999D01*
X1225523Y254084D01*
X1225494Y254168D01*
X1225462Y254251D01*
X1225425Y254332D01*
X1225385Y254412D01*
X1225342Y254489D01*
X1225295Y254565D01*
X1225245Y254639D01*
X1225192Y254710D01*
X1225136Y254779D01*
X1225076Y254845D01*
X1225014Y254909D01*
X1224949Y254969D01*
X1224882Y255027D01*
X1224812Y255082D01*
X1224739Y255134D01*
X1224664Y255182D01*
X1224588Y255227D01*
X1224509Y255269D01*
X1224429Y255307D01*
X1224347Y255341D01*
X1224263Y255372D01*
X1224178Y255399D01*
X1224093Y255423D01*
X1224006Y255442D01*
X1223918Y255458D01*
X1223830Y255470D01*
X1223741Y255478D01*
X1223652Y255482D01*
X1223564Y255482D01*
X1223475Y255478D01*
X1223386Y255470D01*
X1223298Y255458D01*
X1223210Y255442D01*
X1223123Y255423D01*
X1223038Y255399D01*
X1222953Y255372D01*
X1222869Y255341D01*
X1222787Y255307D01*
X1222707Y255269D01*
X1222628Y255227D01*
X1222552Y255182D01*
X1222477Y255134D01*
X1222404Y255082D01*
X1222334Y255027D01*
X1222267Y254969D01*
X1222202Y254909D01*
X1222140Y254845D01*
X1222080Y254779D01*
X1222024Y254710D01*
X1221971Y254639D01*
X1221921Y254565D01*
X1221874Y254489D01*
X1221831Y254412D01*
X1221791Y254332D01*
X1221754Y254251D01*
X1221722Y254168D01*
X1221693Y254084D01*
X1221667Y253999D01*
X1221646Y253912D01*
X1221628Y253825D01*
X1221615Y253737D01*
X1221605Y253649D01*
X1221599Y253560D01*
X1221597Y253471D01*
X1218381Y253874D02*
X1218381Y251461D01*
X1218381Y253874D02*
X1218383Y253953D01*
X1218389Y254032D01*
X1218398Y254110D01*
X1218412Y254188D01*
X1218429Y254265D01*
X1218450Y254341D01*
X1218475Y254416D01*
X1218503Y254489D01*
X1218535Y254562D01*
X1218571Y254632D01*
X1218610Y254701D01*
X1218652Y254767D01*
X1218697Y254832D01*
X1218746Y254894D01*
X1218798Y254954D01*
X1218852Y255011D01*
X1218909Y255065D01*
X1218969Y255117D01*
X1219031Y255166D01*
X1219096Y255211D01*
X1219162Y255253D01*
X1219231Y255292D01*
X1219301Y255328D01*
X1219374Y255360D01*
X1219447Y255388D01*
X1219522Y255413D01*
X1219598Y255434D01*
X1219675Y255451D01*
X1219753Y255465D01*
X1219831Y255474D01*
X1219910Y255480D01*
X1219989Y255482D01*
X1220068Y255480D01*
X1220147Y255474D01*
X1220225Y255465D01*
X1220303Y255451D01*
X1220380Y255434D01*
X1220456Y255413D01*
X1220531Y255388D01*
X1220604Y255360D01*
X1220677Y255328D01*
X1220747Y255292D01*
X1220816Y255253D01*
X1220882Y255211D01*
X1220947Y255166D01*
X1221009Y255117D01*
X1221069Y255065D01*
X1221126Y255011D01*
X1221180Y254954D01*
X1221232Y254894D01*
X1221281Y254832D01*
X1221326Y254767D01*
X1221368Y254701D01*
X1221407Y254632D01*
X1221443Y254562D01*
X1221475Y254489D01*
X1221503Y254416D01*
X1221528Y254341D01*
X1221549Y254265D01*
X1221566Y254188D01*
X1221580Y254110D01*
X1221589Y254032D01*
X1221595Y253953D01*
X1221597Y253874D01*
X1221598Y253874D02*
X1221598Y252265D01*
X1218381Y258917D02*
X1225619Y258917D01*
X1223206Y258917D02*
X1220794Y262133D01*
X1222201Y260324D02*
X1225619Y262133D01*
X1340381Y225392D02*
X1341989Y223381D01*
X1340381Y225392D02*
X1347619Y225392D01*
X1347619Y227402D02*
X1347619Y223381D01*
X1344000Y230581D02*
X1343850Y230583D01*
X1343700Y230589D01*
X1343549Y230598D01*
X1343400Y230611D01*
X1343250Y230628D01*
X1343102Y230649D01*
X1342953Y230674D01*
X1342806Y230702D01*
X1342659Y230734D01*
X1342513Y230769D01*
X1342368Y230809D01*
X1342224Y230852D01*
X1342081Y230898D01*
X1341939Y230948D01*
X1341799Y231002D01*
X1341660Y231059D01*
X1341522Y231120D01*
X1341386Y231184D01*
X1341317Y231210D01*
X1341249Y231239D01*
X1341183Y231272D01*
X1341118Y231307D01*
X1341056Y231346D01*
X1340995Y231388D01*
X1340936Y231433D01*
X1340880Y231480D01*
X1340826Y231531D01*
X1340774Y231584D01*
X1340726Y231639D01*
X1340680Y231697D01*
X1340637Y231757D01*
X1340597Y231820D01*
X1340560Y231884D01*
X1340527Y231949D01*
X1340497Y232017D01*
X1340470Y232085D01*
X1340446Y232156D01*
X1340427Y232227D01*
X1340410Y232299D01*
X1340397Y232371D01*
X1340388Y232445D01*
X1340383Y232518D01*
X1340381Y232592D01*
X1340383Y232666D01*
X1340388Y232739D01*
X1340397Y232813D01*
X1340410Y232885D01*
X1340427Y232957D01*
X1340446Y233028D01*
X1340470Y233099D01*
X1340497Y233167D01*
X1340527Y233235D01*
X1340560Y233300D01*
X1340597Y233364D01*
X1340637Y233427D01*
X1340680Y233487D01*
X1340726Y233545D01*
X1340774Y233600D01*
X1340826Y233653D01*
X1340880Y233704D01*
X1340936Y233751D01*
X1340995Y233796D01*
X1341056Y233838D01*
X1341118Y233877D01*
X1341183Y233912D01*
X1341249Y233945D01*
X1341317Y233974D01*
X1341386Y234000D01*
X1341386Y233999D02*
X1341522Y234063D01*
X1341660Y234124D01*
X1341799Y234181D01*
X1341939Y234235D01*
X1342081Y234285D01*
X1342224Y234331D01*
X1342368Y234374D01*
X1342513Y234414D01*
X1342659Y234449D01*
X1342806Y234481D01*
X1342953Y234509D01*
X1343102Y234534D01*
X1343250Y234555D01*
X1343400Y234572D01*
X1343549Y234585D01*
X1343700Y234594D01*
X1343850Y234600D01*
X1344000Y234602D01*
X1344000Y230581D02*
X1344150Y230583D01*
X1344300Y230589D01*
X1344451Y230598D01*
X1344600Y230611D01*
X1344750Y230628D01*
X1344898Y230649D01*
X1345047Y230674D01*
X1345194Y230702D01*
X1345341Y230734D01*
X1345487Y230769D01*
X1345632Y230809D01*
X1345776Y230852D01*
X1345919Y230898D01*
X1346061Y230948D01*
X1346201Y231002D01*
X1346340Y231059D01*
X1346478Y231120D01*
X1346614Y231184D01*
X1346683Y231210D01*
X1346751Y231239D01*
X1346817Y231272D01*
X1346882Y231307D01*
X1346944Y231346D01*
X1347005Y231388D01*
X1347064Y231433D01*
X1347120Y231480D01*
X1347174Y231531D01*
X1347226Y231584D01*
X1347274Y231639D01*
X1347320Y231697D01*
X1347363Y231757D01*
X1347403Y231820D01*
X1347440Y231884D01*
X1347473Y231949D01*
X1347503Y232017D01*
X1347530Y232085D01*
X1347554Y232156D01*
X1347573Y232227D01*
X1347590Y232299D01*
X1347603Y232371D01*
X1347612Y232445D01*
X1347617Y232518D01*
X1347619Y232592D01*
X1346614Y233999D02*
X1346478Y234063D01*
X1346340Y234124D01*
X1346201Y234181D01*
X1346061Y234235D01*
X1345919Y234285D01*
X1345776Y234331D01*
X1345632Y234374D01*
X1345487Y234414D01*
X1345341Y234449D01*
X1345194Y234481D01*
X1345047Y234509D01*
X1344898Y234534D01*
X1344750Y234555D01*
X1344600Y234572D01*
X1344451Y234585D01*
X1344300Y234594D01*
X1344150Y234600D01*
X1344000Y234602D01*
X1346614Y234000D02*
X1346683Y233974D01*
X1346751Y233945D01*
X1346817Y233912D01*
X1346882Y233877D01*
X1346944Y233838D01*
X1347005Y233796D01*
X1347064Y233751D01*
X1347120Y233704D01*
X1347174Y233653D01*
X1347226Y233600D01*
X1347274Y233545D01*
X1347320Y233487D01*
X1347363Y233427D01*
X1347403Y233364D01*
X1347440Y233300D01*
X1347473Y233235D01*
X1347503Y233167D01*
X1347530Y233099D01*
X1347554Y233028D01*
X1347573Y232957D01*
X1347590Y232885D01*
X1347603Y232813D01*
X1347612Y232739D01*
X1347617Y232666D01*
X1347619Y232592D01*
X1346011Y230983D02*
X1341989Y234200D01*
X1340381Y238037D02*
X1347619Y238037D01*
X1345206Y238037D02*
X1342794Y241253D01*
X1344201Y239444D02*
X1347619Y241253D01*
X1312989Y243381D02*
X1311381Y245392D01*
X1318619Y245392D01*
X1318619Y247402D02*
X1318619Y243381D01*
X1315000Y250581D02*
X1314850Y250583D01*
X1314700Y250589D01*
X1314549Y250598D01*
X1314400Y250611D01*
X1314250Y250628D01*
X1314102Y250649D01*
X1313953Y250674D01*
X1313806Y250702D01*
X1313659Y250734D01*
X1313513Y250769D01*
X1313368Y250809D01*
X1313224Y250852D01*
X1313081Y250898D01*
X1312939Y250948D01*
X1312799Y251002D01*
X1312660Y251059D01*
X1312522Y251120D01*
X1312386Y251184D01*
X1312317Y251210D01*
X1312249Y251239D01*
X1312183Y251272D01*
X1312118Y251307D01*
X1312056Y251346D01*
X1311995Y251388D01*
X1311936Y251433D01*
X1311880Y251480D01*
X1311826Y251531D01*
X1311774Y251584D01*
X1311726Y251639D01*
X1311680Y251697D01*
X1311637Y251757D01*
X1311597Y251820D01*
X1311560Y251884D01*
X1311527Y251949D01*
X1311497Y252017D01*
X1311470Y252085D01*
X1311446Y252156D01*
X1311427Y252227D01*
X1311410Y252299D01*
X1311397Y252371D01*
X1311388Y252445D01*
X1311383Y252518D01*
X1311381Y252592D01*
X1311383Y252666D01*
X1311388Y252739D01*
X1311397Y252813D01*
X1311410Y252885D01*
X1311427Y252957D01*
X1311446Y253028D01*
X1311470Y253099D01*
X1311497Y253167D01*
X1311527Y253235D01*
X1311560Y253300D01*
X1311597Y253364D01*
X1311637Y253427D01*
X1311680Y253487D01*
X1311726Y253545D01*
X1311774Y253600D01*
X1311826Y253653D01*
X1311880Y253704D01*
X1311936Y253751D01*
X1311995Y253796D01*
X1312056Y253838D01*
X1312118Y253877D01*
X1312183Y253912D01*
X1312249Y253945D01*
X1312317Y253974D01*
X1312386Y254000D01*
X1312386Y253999D02*
X1312522Y254063D01*
X1312660Y254124D01*
X1312799Y254181D01*
X1312939Y254235D01*
X1313081Y254285D01*
X1313224Y254331D01*
X1313368Y254374D01*
X1313513Y254414D01*
X1313659Y254449D01*
X1313806Y254481D01*
X1313953Y254509D01*
X1314102Y254534D01*
X1314250Y254555D01*
X1314400Y254572D01*
X1314549Y254585D01*
X1314700Y254594D01*
X1314850Y254600D01*
X1315000Y254602D01*
X1315000Y250581D02*
X1315150Y250583D01*
X1315300Y250589D01*
X1315451Y250598D01*
X1315600Y250611D01*
X1315750Y250628D01*
X1315898Y250649D01*
X1316047Y250674D01*
X1316194Y250702D01*
X1316341Y250734D01*
X1316487Y250769D01*
X1316632Y250809D01*
X1316776Y250852D01*
X1316919Y250898D01*
X1317061Y250948D01*
X1317201Y251002D01*
X1317340Y251059D01*
X1317478Y251120D01*
X1317614Y251184D01*
X1317683Y251210D01*
X1317751Y251239D01*
X1317817Y251272D01*
X1317882Y251307D01*
X1317944Y251346D01*
X1318005Y251388D01*
X1318064Y251433D01*
X1318120Y251480D01*
X1318174Y251531D01*
X1318226Y251584D01*
X1318274Y251639D01*
X1318320Y251697D01*
X1318363Y251757D01*
X1318403Y251820D01*
X1318440Y251884D01*
X1318473Y251949D01*
X1318503Y252017D01*
X1318530Y252085D01*
X1318554Y252156D01*
X1318573Y252227D01*
X1318590Y252299D01*
X1318603Y252371D01*
X1318612Y252445D01*
X1318617Y252518D01*
X1318619Y252592D01*
X1317614Y253999D02*
X1317478Y254063D01*
X1317340Y254124D01*
X1317201Y254181D01*
X1317061Y254235D01*
X1316919Y254285D01*
X1316776Y254331D01*
X1316632Y254374D01*
X1316487Y254414D01*
X1316341Y254449D01*
X1316194Y254481D01*
X1316047Y254509D01*
X1315898Y254534D01*
X1315750Y254555D01*
X1315600Y254572D01*
X1315451Y254585D01*
X1315300Y254594D01*
X1315150Y254600D01*
X1315000Y254602D01*
X1317614Y254000D02*
X1317683Y253974D01*
X1317751Y253945D01*
X1317817Y253912D01*
X1317882Y253877D01*
X1317944Y253838D01*
X1318005Y253796D01*
X1318064Y253751D01*
X1318120Y253704D01*
X1318174Y253653D01*
X1318226Y253600D01*
X1318274Y253545D01*
X1318320Y253487D01*
X1318363Y253427D01*
X1318403Y253364D01*
X1318440Y253300D01*
X1318473Y253235D01*
X1318503Y253167D01*
X1318530Y253099D01*
X1318554Y253028D01*
X1318573Y252957D01*
X1318590Y252885D01*
X1318603Y252813D01*
X1318612Y252739D01*
X1318617Y252666D01*
X1318619Y252592D01*
X1317011Y250983D02*
X1312989Y254200D01*
X1313794Y257943D02*
X1317413Y257943D01*
X1317481Y257945D01*
X1317548Y257951D01*
X1317615Y257960D01*
X1317681Y257973D01*
X1317747Y257990D01*
X1317811Y258011D01*
X1317875Y258035D01*
X1317936Y258062D01*
X1317996Y258093D01*
X1318055Y258128D01*
X1318111Y258165D01*
X1318165Y258206D01*
X1318217Y258250D01*
X1318266Y258296D01*
X1318312Y258345D01*
X1318356Y258397D01*
X1318397Y258451D01*
X1318434Y258507D01*
X1318469Y258566D01*
X1318500Y258626D01*
X1318527Y258687D01*
X1318551Y258751D01*
X1318572Y258815D01*
X1318589Y258881D01*
X1318602Y258947D01*
X1318611Y259014D01*
X1318617Y259081D01*
X1318619Y259149D01*
X1318619Y261160D01*
X1313794Y261160D01*
X1311381Y264757D02*
X1318619Y264757D01*
X1311381Y264757D02*
X1311381Y267973D01*
X1314598Y267973D02*
X1314598Y264757D01*
X1251989Y248381D02*
X1250381Y250392D01*
X1257619Y250392D01*
X1257619Y252402D02*
X1257619Y248381D01*
X1254000Y255581D02*
X1253850Y255583D01*
X1253700Y255589D01*
X1253549Y255598D01*
X1253400Y255611D01*
X1253250Y255628D01*
X1253102Y255649D01*
X1252953Y255674D01*
X1252806Y255702D01*
X1252659Y255734D01*
X1252513Y255769D01*
X1252368Y255809D01*
X1252224Y255852D01*
X1252081Y255898D01*
X1251939Y255948D01*
X1251799Y256002D01*
X1251660Y256059D01*
X1251522Y256120D01*
X1251386Y256184D01*
X1251317Y256210D01*
X1251249Y256239D01*
X1251183Y256272D01*
X1251118Y256307D01*
X1251056Y256346D01*
X1250995Y256388D01*
X1250936Y256433D01*
X1250880Y256480D01*
X1250826Y256531D01*
X1250774Y256584D01*
X1250726Y256639D01*
X1250680Y256697D01*
X1250637Y256757D01*
X1250597Y256820D01*
X1250560Y256884D01*
X1250527Y256949D01*
X1250497Y257017D01*
X1250470Y257085D01*
X1250446Y257156D01*
X1250427Y257227D01*
X1250410Y257299D01*
X1250397Y257371D01*
X1250388Y257445D01*
X1250383Y257518D01*
X1250381Y257592D01*
X1250383Y257666D01*
X1250388Y257739D01*
X1250397Y257813D01*
X1250410Y257885D01*
X1250427Y257957D01*
X1250446Y258028D01*
X1250470Y258099D01*
X1250497Y258167D01*
X1250527Y258235D01*
X1250560Y258300D01*
X1250597Y258364D01*
X1250637Y258427D01*
X1250680Y258487D01*
X1250726Y258545D01*
X1250774Y258600D01*
X1250826Y258653D01*
X1250880Y258704D01*
X1250936Y258751D01*
X1250995Y258796D01*
X1251056Y258838D01*
X1251118Y258877D01*
X1251183Y258912D01*
X1251249Y258945D01*
X1251317Y258974D01*
X1251386Y259000D01*
X1251386Y258999D02*
X1251522Y259063D01*
X1251660Y259124D01*
X1251799Y259181D01*
X1251939Y259235D01*
X1252081Y259285D01*
X1252224Y259331D01*
X1252368Y259374D01*
X1252513Y259414D01*
X1252659Y259449D01*
X1252806Y259481D01*
X1252953Y259509D01*
X1253102Y259534D01*
X1253250Y259555D01*
X1253400Y259572D01*
X1253549Y259585D01*
X1253700Y259594D01*
X1253850Y259600D01*
X1254000Y259602D01*
X1254000Y255581D02*
X1254150Y255583D01*
X1254300Y255589D01*
X1254451Y255598D01*
X1254600Y255611D01*
X1254750Y255628D01*
X1254898Y255649D01*
X1255047Y255674D01*
X1255194Y255702D01*
X1255341Y255734D01*
X1255487Y255769D01*
X1255632Y255809D01*
X1255776Y255852D01*
X1255919Y255898D01*
X1256061Y255948D01*
X1256201Y256002D01*
X1256340Y256059D01*
X1256478Y256120D01*
X1256614Y256184D01*
X1256683Y256210D01*
X1256751Y256239D01*
X1256817Y256272D01*
X1256882Y256307D01*
X1256944Y256346D01*
X1257005Y256388D01*
X1257064Y256433D01*
X1257120Y256480D01*
X1257174Y256531D01*
X1257226Y256584D01*
X1257274Y256639D01*
X1257320Y256697D01*
X1257363Y256757D01*
X1257403Y256820D01*
X1257440Y256884D01*
X1257473Y256949D01*
X1257503Y257017D01*
X1257530Y257085D01*
X1257554Y257156D01*
X1257573Y257227D01*
X1257590Y257299D01*
X1257603Y257371D01*
X1257612Y257445D01*
X1257617Y257518D01*
X1257619Y257592D01*
X1256614Y258999D02*
X1256478Y259063D01*
X1256340Y259124D01*
X1256201Y259181D01*
X1256061Y259235D01*
X1255919Y259285D01*
X1255776Y259331D01*
X1255632Y259374D01*
X1255487Y259414D01*
X1255341Y259449D01*
X1255194Y259481D01*
X1255047Y259509D01*
X1254898Y259534D01*
X1254750Y259555D01*
X1254600Y259572D01*
X1254451Y259585D01*
X1254300Y259594D01*
X1254150Y259600D01*
X1254000Y259602D01*
X1256614Y259000D02*
X1256683Y258974D01*
X1256751Y258945D01*
X1256817Y258912D01*
X1256882Y258877D01*
X1256944Y258838D01*
X1257005Y258796D01*
X1257064Y258751D01*
X1257120Y258704D01*
X1257174Y258653D01*
X1257226Y258600D01*
X1257274Y258545D01*
X1257320Y258487D01*
X1257363Y258427D01*
X1257403Y258364D01*
X1257440Y258300D01*
X1257473Y258235D01*
X1257503Y258167D01*
X1257530Y258099D01*
X1257554Y258028D01*
X1257573Y257957D01*
X1257590Y257885D01*
X1257603Y257813D01*
X1257612Y257739D01*
X1257617Y257666D01*
X1257619Y257592D01*
X1256011Y255983D02*
X1251989Y259200D01*
X1252794Y262943D02*
X1256413Y262943D01*
X1256481Y262945D01*
X1256548Y262951D01*
X1256615Y262960D01*
X1256681Y262973D01*
X1256747Y262990D01*
X1256811Y263011D01*
X1256875Y263035D01*
X1256936Y263062D01*
X1256996Y263093D01*
X1257055Y263128D01*
X1257111Y263165D01*
X1257165Y263206D01*
X1257217Y263250D01*
X1257266Y263296D01*
X1257312Y263345D01*
X1257356Y263397D01*
X1257397Y263451D01*
X1257434Y263507D01*
X1257469Y263566D01*
X1257500Y263626D01*
X1257527Y263687D01*
X1257551Y263751D01*
X1257572Y263815D01*
X1257589Y263881D01*
X1257602Y263947D01*
X1257611Y264014D01*
X1257617Y264081D01*
X1257619Y264149D01*
X1257619Y266160D01*
X1252794Y266160D01*
X1250381Y269757D02*
X1257619Y269757D01*
X1250381Y269757D02*
X1250381Y272973D01*
X1253598Y272973D02*
X1253598Y269757D01*
D11*
X164500Y69000D02*
X161500Y69000D01*
X161500Y72000D01*
X164500Y72000D01*
X164500Y79000D01*
X35500Y79000D02*
X35500Y72000D01*
X38500Y72000D01*
X38500Y69000D01*
X35500Y69000D01*
X38500Y69000D02*
X161500Y69000D01*
X164500Y79000D02*
X35500Y79000D01*
X164500Y35000D02*
X164500Y25000D01*
X152500Y25000D01*
X35500Y25000D02*
X35500Y35000D01*
X35500Y25000D02*
X47500Y25000D01*
X164500Y65000D02*
X164500Y69000D01*
X35500Y69000D02*
X35500Y65000D01*
D12*
X174911Y14492D02*
X174911Y2808D01*
X176209Y2808D02*
X173612Y2808D01*
X173612Y14492D02*
X176209Y14492D01*
X181190Y14492D02*
X181190Y2808D01*
X187681Y2808D02*
X181190Y14492D01*
X187681Y14492D02*
X187681Y2808D01*
X193001Y11896D02*
X196246Y14492D01*
X196246Y2808D01*
X193001Y2808D02*
X199492Y2808D01*
D11*
X411500Y69000D02*
X414500Y69000D01*
X411500Y69000D02*
X411500Y72000D01*
X414500Y72000D01*
X414500Y79000D01*
X285500Y79000D02*
X285500Y72000D01*
X288500Y72000D01*
X288500Y69000D01*
X285500Y69000D01*
X288500Y69000D02*
X411500Y69000D01*
X414500Y79000D02*
X285500Y79000D01*
X414500Y35000D02*
X414500Y25000D01*
X402500Y25000D01*
X285500Y25000D02*
X285500Y35000D01*
X285500Y25000D02*
X297500Y25000D01*
X414500Y65000D02*
X414500Y69000D01*
X285500Y69000D02*
X285500Y65000D01*
D12*
X424911Y14492D02*
X424911Y2808D01*
X426209Y2808D02*
X423612Y2808D01*
X423612Y14492D02*
X426209Y14492D01*
X431190Y14492D02*
X431190Y2808D01*
X437681Y2808D02*
X431190Y14492D01*
X437681Y14492D02*
X437681Y2808D01*
X446571Y14492D02*
X446678Y14490D01*
X446784Y14484D01*
X446890Y14474D01*
X446996Y14461D01*
X447102Y14443D01*
X447206Y14422D01*
X447310Y14397D01*
X447413Y14368D01*
X447514Y14336D01*
X447614Y14299D01*
X447713Y14259D01*
X447811Y14216D01*
X447907Y14169D01*
X448001Y14118D01*
X448093Y14064D01*
X448183Y14007D01*
X448271Y13947D01*
X448356Y13883D01*
X448439Y13816D01*
X448520Y13746D01*
X448598Y13674D01*
X448674Y13598D01*
X448746Y13520D01*
X448816Y13439D01*
X448883Y13356D01*
X448947Y13271D01*
X449007Y13183D01*
X449064Y13093D01*
X449118Y13001D01*
X449169Y12907D01*
X449216Y12811D01*
X449259Y12713D01*
X449299Y12614D01*
X449336Y12514D01*
X449368Y12413D01*
X449397Y12310D01*
X449422Y12206D01*
X449443Y12102D01*
X449461Y11996D01*
X449474Y11890D01*
X449484Y11784D01*
X449490Y11678D01*
X449492Y11571D01*
X446571Y14492D02*
X446450Y14490D01*
X446329Y14484D01*
X446209Y14474D01*
X446088Y14461D01*
X445969Y14443D01*
X445849Y14422D01*
X445731Y14397D01*
X445614Y14368D01*
X445497Y14335D01*
X445382Y14299D01*
X445268Y14258D01*
X445155Y14215D01*
X445043Y14167D01*
X444934Y14116D01*
X444826Y14061D01*
X444719Y14003D01*
X444615Y13942D01*
X444513Y13877D01*
X444413Y13809D01*
X444315Y13738D01*
X444219Y13664D01*
X444126Y13587D01*
X444036Y13506D01*
X443948Y13423D01*
X443863Y13337D01*
X443780Y13248D01*
X443701Y13157D01*
X443624Y13063D01*
X443551Y12967D01*
X443481Y12869D01*
X443414Y12768D01*
X443350Y12665D01*
X443290Y12560D01*
X443233Y12453D01*
X443179Y12345D01*
X443129Y12235D01*
X443083Y12123D01*
X443040Y12010D01*
X443001Y11895D01*
X448519Y9299D02*
X448598Y9376D01*
X448674Y9457D01*
X448747Y9540D01*
X448817Y9625D01*
X448884Y9713D01*
X448948Y9803D01*
X449008Y9895D01*
X449065Y9990D01*
X449119Y10086D01*
X449170Y10184D01*
X449217Y10284D01*
X449261Y10386D01*
X449301Y10489D01*
X449337Y10593D01*
X449369Y10699D01*
X449398Y10805D01*
X449423Y10913D01*
X449445Y11021D01*
X449462Y11131D01*
X449476Y11240D01*
X449485Y11350D01*
X449491Y11461D01*
X449493Y11571D01*
X448518Y9299D02*
X443001Y2808D01*
X449492Y2808D01*
D11*
X661500Y69000D02*
X664500Y69000D01*
X661500Y69000D02*
X661500Y72000D01*
X664500Y72000D01*
X664500Y79000D01*
X535500Y79000D02*
X535500Y72000D01*
X538500Y72000D01*
X538500Y69000D01*
X535500Y69000D01*
X538500Y69000D02*
X661500Y69000D01*
X664500Y79000D02*
X535500Y79000D01*
X664500Y35000D02*
X664500Y25000D01*
X652500Y25000D01*
X535500Y25000D02*
X535500Y35000D01*
X535500Y25000D02*
X547500Y25000D01*
X664500Y65000D02*
X664500Y69000D01*
X535500Y69000D02*
X535500Y65000D01*
D12*
X674911Y14492D02*
X674911Y2808D01*
X676209Y2808D02*
X673612Y2808D01*
X673612Y14492D02*
X676209Y14492D01*
X681190Y14492D02*
X681190Y2808D01*
X687681Y2808D02*
X681190Y14492D01*
X687681Y14492D02*
X687681Y2808D01*
X693001Y2808D02*
X696246Y2808D01*
X696359Y2810D01*
X696472Y2816D01*
X696585Y2826D01*
X696698Y2840D01*
X696810Y2857D01*
X696921Y2879D01*
X697031Y2904D01*
X697141Y2934D01*
X697249Y2967D01*
X697356Y3004D01*
X697462Y3044D01*
X697566Y3089D01*
X697669Y3137D01*
X697770Y3188D01*
X697869Y3243D01*
X697966Y3301D01*
X698061Y3363D01*
X698154Y3428D01*
X698244Y3496D01*
X698332Y3567D01*
X698418Y3642D01*
X698501Y3719D01*
X698581Y3799D01*
X698658Y3882D01*
X698733Y3968D01*
X698804Y4056D01*
X698872Y4146D01*
X698937Y4239D01*
X698999Y4334D01*
X699057Y4431D01*
X699112Y4530D01*
X699163Y4631D01*
X699211Y4734D01*
X699256Y4838D01*
X699296Y4944D01*
X699333Y5051D01*
X699366Y5159D01*
X699396Y5269D01*
X699421Y5379D01*
X699443Y5490D01*
X699460Y5602D01*
X699474Y5715D01*
X699484Y5828D01*
X699490Y5941D01*
X699492Y6054D01*
X699490Y6167D01*
X699484Y6280D01*
X699474Y6393D01*
X699460Y6506D01*
X699443Y6618D01*
X699421Y6729D01*
X699396Y6839D01*
X699366Y6949D01*
X699333Y7057D01*
X699296Y7164D01*
X699256Y7270D01*
X699211Y7374D01*
X699163Y7477D01*
X699112Y7578D01*
X699057Y7677D01*
X698999Y7774D01*
X698937Y7869D01*
X698872Y7962D01*
X698804Y8052D01*
X698733Y8140D01*
X698658Y8226D01*
X698581Y8309D01*
X698501Y8389D01*
X698418Y8466D01*
X698332Y8541D01*
X698244Y8612D01*
X698154Y8680D01*
X698061Y8745D01*
X697966Y8807D01*
X697869Y8865D01*
X697770Y8920D01*
X697669Y8971D01*
X697566Y9019D01*
X697462Y9064D01*
X697356Y9104D01*
X697249Y9141D01*
X697141Y9174D01*
X697031Y9204D01*
X696921Y9229D01*
X696810Y9251D01*
X696698Y9268D01*
X696585Y9282D01*
X696472Y9292D01*
X696359Y9298D01*
X696246Y9300D01*
X696896Y14492D02*
X693001Y14492D01*
X696896Y14492D02*
X696997Y14490D01*
X697097Y14484D01*
X697197Y14474D01*
X697297Y14461D01*
X697396Y14443D01*
X697495Y14422D01*
X697592Y14397D01*
X697689Y14368D01*
X697784Y14335D01*
X697878Y14299D01*
X697970Y14259D01*
X698061Y14216D01*
X698150Y14169D01*
X698237Y14119D01*
X698323Y14065D01*
X698406Y14008D01*
X698486Y13948D01*
X698565Y13885D01*
X698641Y13818D01*
X698714Y13749D01*
X698784Y13677D01*
X698852Y13603D01*
X698917Y13526D01*
X698978Y13446D01*
X699037Y13364D01*
X699092Y13280D01*
X699144Y13194D01*
X699193Y13106D01*
X699238Y13016D01*
X699280Y12924D01*
X699318Y12831D01*
X699352Y12736D01*
X699383Y12641D01*
X699410Y12544D01*
X699433Y12446D01*
X699453Y12347D01*
X699468Y12247D01*
X699480Y12147D01*
X699488Y12047D01*
X699492Y11946D01*
X699492Y11846D01*
X699488Y11745D01*
X699480Y11645D01*
X699468Y11545D01*
X699453Y11445D01*
X699433Y11346D01*
X699410Y11248D01*
X699383Y11151D01*
X699352Y11056D01*
X699318Y10961D01*
X699280Y10868D01*
X699238Y10776D01*
X699193Y10686D01*
X699144Y10598D01*
X699092Y10512D01*
X699037Y10428D01*
X698978Y10346D01*
X698917Y10266D01*
X698852Y10189D01*
X698784Y10115D01*
X698714Y10043D01*
X698641Y9974D01*
X698565Y9907D01*
X698486Y9844D01*
X698406Y9784D01*
X698323Y9727D01*
X698237Y9673D01*
X698150Y9623D01*
X698061Y9576D01*
X697970Y9533D01*
X697878Y9493D01*
X697784Y9457D01*
X697689Y9424D01*
X697592Y9395D01*
X697495Y9370D01*
X697396Y9349D01*
X697297Y9331D01*
X697197Y9318D01*
X697097Y9308D01*
X696997Y9302D01*
X696896Y9300D01*
X696896Y9299D02*
X694299Y9299D01*
D11*
X911500Y69000D02*
X914500Y69000D01*
X911500Y69000D02*
X911500Y72000D01*
X914500Y72000D01*
X914500Y79000D01*
X785500Y79000D02*
X785500Y72000D01*
X788500Y72000D01*
X788500Y69000D01*
X785500Y69000D01*
X788500Y69000D02*
X911500Y69000D01*
X914500Y79000D02*
X785500Y79000D01*
X914500Y35000D02*
X914500Y25000D01*
X902500Y25000D01*
X785500Y25000D02*
X785500Y35000D01*
X785500Y25000D02*
X797500Y25000D01*
X914500Y65000D02*
X914500Y69000D01*
X785500Y69000D02*
X785500Y65000D01*
D12*
X924911Y14492D02*
X924911Y2808D01*
X926209Y2808D02*
X923612Y2808D01*
X923612Y14492D02*
X926209Y14492D01*
X931190Y14492D02*
X931190Y2808D01*
X937681Y2808D02*
X931190Y14492D01*
X937681Y14492D02*
X937681Y2808D01*
X943001Y5404D02*
X945597Y14492D01*
X943001Y5404D02*
X949492Y5404D01*
X947545Y8001D02*
X947545Y2808D01*
D11*
X1161500Y69000D02*
X1164500Y69000D01*
X1161500Y69000D02*
X1161500Y72000D01*
X1164500Y72000D01*
X1164500Y79000D01*
X1035500Y79000D02*
X1035500Y72000D01*
X1038500Y72000D01*
X1038500Y69000D01*
X1035500Y69000D01*
X1038500Y69000D02*
X1161500Y69000D01*
X1164500Y79000D02*
X1035500Y79000D01*
X1164500Y35000D02*
X1164500Y25000D01*
X1152500Y25000D01*
X1035500Y25000D02*
X1035500Y35000D01*
X1035500Y25000D02*
X1047500Y25000D01*
X1164500Y65000D02*
X1164500Y69000D01*
X1035500Y69000D02*
X1035500Y65000D01*
D12*
X1154911Y14492D02*
X1154911Y2808D01*
X1156209Y2808D02*
X1153612Y2808D01*
X1153612Y14492D02*
X1156209Y14492D01*
X1161190Y14492D02*
X1161190Y2808D01*
X1167681Y2808D02*
X1161190Y14492D01*
X1167681Y14492D02*
X1167681Y2808D01*
X1173001Y2808D02*
X1176896Y2808D01*
X1176995Y2810D01*
X1177095Y2816D01*
X1177194Y2825D01*
X1177292Y2838D01*
X1177390Y2855D01*
X1177488Y2876D01*
X1177584Y2901D01*
X1177679Y2929D01*
X1177773Y2961D01*
X1177866Y2996D01*
X1177958Y3035D01*
X1178048Y3078D01*
X1178136Y3123D01*
X1178223Y3173D01*
X1178307Y3225D01*
X1178390Y3281D01*
X1178470Y3339D01*
X1178548Y3401D01*
X1178623Y3466D01*
X1178696Y3534D01*
X1178766Y3604D01*
X1178834Y3677D01*
X1178899Y3752D01*
X1178961Y3830D01*
X1179019Y3910D01*
X1179075Y3993D01*
X1179127Y4077D01*
X1179177Y4164D01*
X1179222Y4252D01*
X1179265Y4342D01*
X1179304Y4434D01*
X1179339Y4527D01*
X1179371Y4621D01*
X1179399Y4716D01*
X1179424Y4812D01*
X1179445Y4910D01*
X1179462Y5008D01*
X1179475Y5106D01*
X1179484Y5205D01*
X1179490Y5305D01*
X1179492Y5404D01*
X1179492Y6703D01*
X1179490Y6802D01*
X1179484Y6902D01*
X1179475Y7001D01*
X1179462Y7099D01*
X1179445Y7197D01*
X1179424Y7295D01*
X1179399Y7391D01*
X1179371Y7486D01*
X1179339Y7580D01*
X1179304Y7673D01*
X1179265Y7765D01*
X1179222Y7855D01*
X1179177Y7943D01*
X1179127Y8030D01*
X1179075Y8114D01*
X1179019Y8197D01*
X1178961Y8277D01*
X1178899Y8355D01*
X1178834Y8430D01*
X1178766Y8503D01*
X1178696Y8573D01*
X1178623Y8641D01*
X1178548Y8706D01*
X1178470Y8768D01*
X1178390Y8826D01*
X1178307Y8882D01*
X1178223Y8934D01*
X1178136Y8984D01*
X1178048Y9029D01*
X1177958Y9072D01*
X1177866Y9111D01*
X1177773Y9146D01*
X1177679Y9178D01*
X1177584Y9206D01*
X1177488Y9231D01*
X1177390Y9252D01*
X1177292Y9269D01*
X1177194Y9282D01*
X1177095Y9291D01*
X1176995Y9297D01*
X1176896Y9299D01*
X1173001Y9299D01*
X1173001Y14492D01*
X1179492Y14492D01*
D13*
X1252700Y326350D02*
X1252700Y339050D01*
X1252700Y326350D02*
X1246350Y320000D01*
X1233650Y320000D01*
X1227300Y326350D01*
X1233650Y345400D02*
X1246350Y345400D01*
X1252700Y339050D01*
X1233650Y345400D02*
X1227300Y339050D01*
X1227300Y326350D01*
X1246350Y320000D02*
X1252700Y313650D01*
X1252700Y300950D01*
X1246350Y294600D01*
X1233650Y294600D01*
X1227300Y300950D01*
X1227300Y313650D01*
X1233650Y320000D01*
X1312700Y326350D02*
X1312700Y339050D01*
X1312700Y326350D02*
X1306350Y320000D01*
X1293650Y320000D01*
X1287300Y326350D01*
X1293650Y345400D02*
X1306350Y345400D01*
X1312700Y339050D01*
X1293650Y345400D02*
X1287300Y339050D01*
X1287300Y326350D01*
X1306350Y320000D02*
X1312700Y313650D01*
X1312700Y300950D01*
X1306350Y294600D01*
X1293650Y294600D01*
X1287300Y300950D01*
X1287300Y313650D01*
X1293650Y320000D01*
D14*
X1320800Y137350D02*
X1219200Y137350D01*
X1219200Y56050D01*
X1320800Y56050D02*
X1320800Y137350D01*
D15*
X1303000Y196250D02*
X1303002Y196313D01*
X1303008Y196375D01*
X1303018Y196437D01*
X1303031Y196499D01*
X1303049Y196559D01*
X1303070Y196618D01*
X1303095Y196676D01*
X1303124Y196732D01*
X1303156Y196786D01*
X1303191Y196838D01*
X1303229Y196887D01*
X1303271Y196935D01*
X1303315Y196979D01*
X1303363Y197021D01*
X1303412Y197059D01*
X1303464Y197094D01*
X1303518Y197126D01*
X1303574Y197155D01*
X1303632Y197180D01*
X1303691Y197201D01*
X1303751Y197219D01*
X1303813Y197232D01*
X1303875Y197242D01*
X1303937Y197248D01*
X1304000Y197250D01*
X1304063Y197248D01*
X1304125Y197242D01*
X1304187Y197232D01*
X1304249Y197219D01*
X1304309Y197201D01*
X1304368Y197180D01*
X1304426Y197155D01*
X1304482Y197126D01*
X1304536Y197094D01*
X1304588Y197059D01*
X1304637Y197021D01*
X1304685Y196979D01*
X1304729Y196935D01*
X1304771Y196887D01*
X1304809Y196838D01*
X1304844Y196786D01*
X1304876Y196732D01*
X1304905Y196676D01*
X1304930Y196618D01*
X1304951Y196559D01*
X1304969Y196499D01*
X1304982Y196437D01*
X1304992Y196375D01*
X1304998Y196313D01*
X1305000Y196250D01*
X1304998Y196187D01*
X1304992Y196125D01*
X1304982Y196063D01*
X1304969Y196001D01*
X1304951Y195941D01*
X1304930Y195882D01*
X1304905Y195824D01*
X1304876Y195768D01*
X1304844Y195714D01*
X1304809Y195662D01*
X1304771Y195613D01*
X1304729Y195565D01*
X1304685Y195521D01*
X1304637Y195479D01*
X1304588Y195441D01*
X1304536Y195406D01*
X1304482Y195374D01*
X1304426Y195345D01*
X1304368Y195320D01*
X1304309Y195299D01*
X1304249Y195281D01*
X1304187Y195268D01*
X1304125Y195258D01*
X1304063Y195252D01*
X1304000Y195250D01*
X1303937Y195252D01*
X1303875Y195258D01*
X1303813Y195268D01*
X1303751Y195281D01*
X1303691Y195299D01*
X1303632Y195320D01*
X1303574Y195345D01*
X1303518Y195374D01*
X1303464Y195406D01*
X1303412Y195441D01*
X1303363Y195479D01*
X1303315Y195521D01*
X1303271Y195565D01*
X1303229Y195613D01*
X1303191Y195662D01*
X1303156Y195714D01*
X1303124Y195768D01*
X1303095Y195824D01*
X1303070Y195882D01*
X1303049Y195941D01*
X1303031Y196001D01*
X1303018Y196063D01*
X1303008Y196125D01*
X1303002Y196187D01*
X1303000Y196250D01*
D16*
X222040Y92414D03*
D17*
X217000Y94314D02*
X203000Y94314D01*
X203000Y104414D01*
X203000Y125686D02*
X217000Y125686D01*
X203000Y125686D02*
X203000Y115586D01*
D16*
X162040Y252414D03*
D17*
X157000Y254314D02*
X143000Y254314D01*
X143000Y264414D01*
X143000Y285686D02*
X157000Y285686D01*
X143000Y285686D02*
X143000Y275586D01*
D16*
X1002040Y252414D03*
D17*
X997000Y254314D02*
X983000Y254314D01*
X983000Y264414D01*
X983000Y285686D02*
X997000Y285686D01*
X983000Y285686D02*
X983000Y275586D01*
D16*
X102040Y92414D03*
D17*
X97000Y94314D02*
X83000Y94314D01*
X83000Y104414D01*
X83000Y125686D02*
X97000Y125686D01*
X83000Y125686D02*
X83000Y115586D01*
D16*
X102040Y132414D03*
D17*
X97000Y134314D02*
X83000Y134314D01*
X83000Y144414D01*
X83000Y165686D02*
X97000Y165686D01*
X83000Y165686D02*
X83000Y155586D01*
D16*
X102040Y172414D03*
D17*
X97000Y174314D02*
X83000Y174314D01*
X83000Y184414D01*
X83000Y205686D02*
X97000Y205686D01*
X83000Y205686D02*
X83000Y195586D01*
D16*
X102040Y212414D03*
D17*
X97000Y214314D02*
X83000Y214314D01*
X83000Y224414D01*
X83000Y245686D02*
X97000Y245686D01*
X83000Y245686D02*
X83000Y235586D01*
D16*
X102040Y252414D03*
D17*
X97000Y254314D02*
X83000Y254314D01*
X83000Y264414D01*
X83000Y285686D02*
X97000Y285686D01*
X83000Y285686D02*
X83000Y275586D01*
D16*
X42040Y92414D03*
D17*
X37000Y94314D02*
X23000Y94314D01*
X23000Y104414D01*
X23000Y125686D02*
X37000Y125686D01*
X23000Y125686D02*
X23000Y115586D01*
D16*
X42040Y132414D03*
D17*
X37000Y134314D02*
X23000Y134314D01*
X23000Y144414D01*
X23000Y165686D02*
X37000Y165686D01*
X23000Y165686D02*
X23000Y155586D01*
D16*
X42040Y172414D03*
D17*
X37000Y174314D02*
X23000Y174314D01*
X23000Y184414D01*
X23000Y205686D02*
X37000Y205686D01*
X23000Y205686D02*
X23000Y195586D01*
D16*
X42040Y212414D03*
D17*
X37000Y214314D02*
X23000Y214314D01*
X23000Y224414D01*
X23000Y245686D02*
X37000Y245686D01*
X23000Y245686D02*
X23000Y235586D01*
D16*
X222040Y132414D03*
D17*
X217000Y134314D02*
X203000Y134314D01*
X203000Y144414D01*
X203000Y165686D02*
X217000Y165686D01*
X203000Y165686D02*
X203000Y155586D01*
D16*
X42040Y252414D03*
D17*
X37000Y254314D02*
X23000Y254314D01*
X23000Y264414D01*
X23000Y285686D02*
X37000Y285686D01*
X23000Y285686D02*
X23000Y275586D01*
D16*
X462040Y92414D03*
D17*
X457000Y94314D02*
X443000Y94314D01*
X443000Y104414D01*
X443000Y125686D02*
X457000Y125686D01*
X443000Y125686D02*
X443000Y115586D01*
D16*
X462040Y132414D03*
D17*
X457000Y134314D02*
X443000Y134314D01*
X443000Y144414D01*
X443000Y165686D02*
X457000Y165686D01*
X443000Y165686D02*
X443000Y155586D01*
D16*
X462040Y172414D03*
D17*
X457000Y174314D02*
X443000Y174314D01*
X443000Y184414D01*
X443000Y205686D02*
X457000Y205686D01*
X443000Y205686D02*
X443000Y195586D01*
D16*
X462040Y212414D03*
D17*
X457000Y214314D02*
X443000Y214314D01*
X443000Y224414D01*
X443000Y245686D02*
X457000Y245686D01*
X443000Y245686D02*
X443000Y235586D01*
D16*
X462040Y252414D03*
D17*
X457000Y254314D02*
X443000Y254314D01*
X443000Y264414D01*
X443000Y285686D02*
X457000Y285686D01*
X443000Y285686D02*
X443000Y275586D01*
D16*
X402040Y92414D03*
D17*
X397000Y94314D02*
X383000Y94314D01*
X383000Y104414D01*
X383000Y125686D02*
X397000Y125686D01*
X383000Y125686D02*
X383000Y115586D01*
D16*
X402040Y132414D03*
D17*
X397000Y134314D02*
X383000Y134314D01*
X383000Y144414D01*
X383000Y165686D02*
X397000Y165686D01*
X383000Y165686D02*
X383000Y155586D01*
D16*
X402040Y172414D03*
D17*
X397000Y174314D02*
X383000Y174314D01*
X383000Y184414D01*
X383000Y205686D02*
X397000Y205686D01*
X383000Y205686D02*
X383000Y195586D01*
D16*
X402040Y212414D03*
D17*
X397000Y214314D02*
X383000Y214314D01*
X383000Y224414D01*
X383000Y245686D02*
X397000Y245686D01*
X383000Y245686D02*
X383000Y235586D01*
D16*
X222040Y172414D03*
D17*
X217000Y174314D02*
X203000Y174314D01*
X203000Y184414D01*
X203000Y205686D02*
X217000Y205686D01*
X203000Y205686D02*
X203000Y195586D01*
D16*
X402040Y252414D03*
D17*
X397000Y254314D02*
X383000Y254314D01*
X383000Y264414D01*
X383000Y285686D02*
X397000Y285686D01*
X383000Y285686D02*
X383000Y275586D01*
D16*
X342040Y92414D03*
D17*
X337000Y94314D02*
X323000Y94314D01*
X323000Y104414D01*
X323000Y125686D02*
X337000Y125686D01*
X323000Y125686D02*
X323000Y115586D01*
D16*
X342040Y132414D03*
D17*
X337000Y134314D02*
X323000Y134314D01*
X323000Y144414D01*
X323000Y165686D02*
X337000Y165686D01*
X323000Y165686D02*
X323000Y155586D01*
D16*
X342040Y172414D03*
D17*
X337000Y174314D02*
X323000Y174314D01*
X323000Y184414D01*
X323000Y205686D02*
X337000Y205686D01*
X323000Y205686D02*
X323000Y195586D01*
D16*
X342040Y212414D03*
D17*
X337000Y214314D02*
X323000Y214314D01*
X323000Y224414D01*
X323000Y245686D02*
X337000Y245686D01*
X323000Y245686D02*
X323000Y235586D01*
D16*
X342040Y252414D03*
D17*
X337000Y254314D02*
X323000Y254314D01*
X323000Y264414D01*
X323000Y285686D02*
X337000Y285686D01*
X323000Y285686D02*
X323000Y275586D01*
D16*
X282040Y92414D03*
D17*
X277000Y94314D02*
X263000Y94314D01*
X263000Y104414D01*
X263000Y125686D02*
X277000Y125686D01*
X263000Y125686D02*
X263000Y115586D01*
D16*
X282040Y132414D03*
D17*
X277000Y134314D02*
X263000Y134314D01*
X263000Y144414D01*
X263000Y165686D02*
X277000Y165686D01*
X263000Y165686D02*
X263000Y155586D01*
D16*
X282040Y172414D03*
D17*
X277000Y174314D02*
X263000Y174314D01*
X263000Y184414D01*
X263000Y205686D02*
X277000Y205686D01*
X263000Y205686D02*
X263000Y195586D01*
D16*
X282040Y212414D03*
D17*
X277000Y214314D02*
X263000Y214314D01*
X263000Y224414D01*
X263000Y245686D02*
X277000Y245686D01*
X263000Y245686D02*
X263000Y235586D01*
D16*
X222040Y212414D03*
D17*
X217000Y214314D02*
X203000Y214314D01*
X203000Y224414D01*
X203000Y245686D02*
X217000Y245686D01*
X203000Y245686D02*
X203000Y235586D01*
D16*
X282040Y252414D03*
D17*
X277000Y254314D02*
X263000Y254314D01*
X263000Y264414D01*
X263000Y285686D02*
X277000Y285686D01*
X263000Y285686D02*
X263000Y275586D01*
D16*
X702040Y92414D03*
D17*
X697000Y94314D02*
X683000Y94314D01*
X683000Y104414D01*
X683000Y125686D02*
X697000Y125686D01*
X683000Y125686D02*
X683000Y115586D01*
D16*
X702040Y132414D03*
D17*
X697000Y134314D02*
X683000Y134314D01*
X683000Y144414D01*
X683000Y165686D02*
X697000Y165686D01*
X683000Y165686D02*
X683000Y155586D01*
D16*
X702040Y172414D03*
D17*
X697000Y174314D02*
X683000Y174314D01*
X683000Y184414D01*
X683000Y205686D02*
X697000Y205686D01*
X683000Y205686D02*
X683000Y195586D01*
D16*
X702040Y212414D03*
D17*
X697000Y214314D02*
X683000Y214314D01*
X683000Y224414D01*
X683000Y245686D02*
X697000Y245686D01*
X683000Y245686D02*
X683000Y235586D01*
D16*
X702040Y252414D03*
D17*
X697000Y254314D02*
X683000Y254314D01*
X683000Y264414D01*
X683000Y285686D02*
X697000Y285686D01*
X683000Y285686D02*
X683000Y275586D01*
D16*
X642040Y92414D03*
D17*
X637000Y94314D02*
X623000Y94314D01*
X623000Y104414D01*
X623000Y125686D02*
X637000Y125686D01*
X623000Y125686D02*
X623000Y115586D01*
D16*
X642040Y132414D03*
D17*
X637000Y134314D02*
X623000Y134314D01*
X623000Y144414D01*
X623000Y165686D02*
X637000Y165686D01*
X623000Y165686D02*
X623000Y155586D01*
D16*
X642040Y172414D03*
D17*
X637000Y174314D02*
X623000Y174314D01*
X623000Y184414D01*
X623000Y205686D02*
X637000Y205686D01*
X623000Y205686D02*
X623000Y195586D01*
D16*
X642040Y212414D03*
D17*
X637000Y214314D02*
X623000Y214314D01*
X623000Y224414D01*
X623000Y245686D02*
X637000Y245686D01*
X623000Y245686D02*
X623000Y235586D01*
D16*
X222040Y252414D03*
D17*
X217000Y254314D02*
X203000Y254314D01*
X203000Y264414D01*
X203000Y285686D02*
X217000Y285686D01*
X203000Y285686D02*
X203000Y275586D01*
D16*
X642040Y252414D03*
D17*
X637000Y254314D02*
X623000Y254314D01*
X623000Y264414D01*
X623000Y285686D02*
X637000Y285686D01*
X623000Y285686D02*
X623000Y275586D01*
D16*
X582040Y92414D03*
D17*
X577000Y94314D02*
X563000Y94314D01*
X563000Y104414D01*
X563000Y125686D02*
X577000Y125686D01*
X563000Y125686D02*
X563000Y115586D01*
D16*
X582040Y132414D03*
D17*
X577000Y134314D02*
X563000Y134314D01*
X563000Y144414D01*
X563000Y165686D02*
X577000Y165686D01*
X563000Y165686D02*
X563000Y155586D01*
D16*
X582040Y172414D03*
D17*
X577000Y174314D02*
X563000Y174314D01*
X563000Y184414D01*
X563000Y205686D02*
X577000Y205686D01*
X563000Y205686D02*
X563000Y195586D01*
D16*
X582040Y212414D03*
D17*
X577000Y214314D02*
X563000Y214314D01*
X563000Y224414D01*
X563000Y245686D02*
X577000Y245686D01*
X563000Y245686D02*
X563000Y235586D01*
D16*
X582040Y252414D03*
D17*
X577000Y254314D02*
X563000Y254314D01*
X563000Y264414D01*
X563000Y285686D02*
X577000Y285686D01*
X563000Y285686D02*
X563000Y275586D01*
D16*
X522040Y92414D03*
D17*
X517000Y94314D02*
X503000Y94314D01*
X503000Y104414D01*
X503000Y125686D02*
X517000Y125686D01*
X503000Y125686D02*
X503000Y115586D01*
D16*
X522040Y132414D03*
D17*
X517000Y134314D02*
X503000Y134314D01*
X503000Y144414D01*
X503000Y165686D02*
X517000Y165686D01*
X503000Y165686D02*
X503000Y155586D01*
D16*
X522040Y172414D03*
D17*
X517000Y174314D02*
X503000Y174314D01*
X503000Y184414D01*
X503000Y205686D02*
X517000Y205686D01*
X503000Y205686D02*
X503000Y195586D01*
D16*
X522040Y212414D03*
D17*
X517000Y214314D02*
X503000Y214314D01*
X503000Y224414D01*
X503000Y245686D02*
X517000Y245686D01*
X503000Y245686D02*
X503000Y235586D01*
D16*
X162040Y92414D03*
D17*
X157000Y94314D02*
X143000Y94314D01*
X143000Y104414D01*
X143000Y125686D02*
X157000Y125686D01*
X143000Y125686D02*
X143000Y115586D01*
D16*
X522040Y252414D03*
D17*
X517000Y254314D02*
X503000Y254314D01*
X503000Y264414D01*
X503000Y285686D02*
X517000Y285686D01*
X503000Y285686D02*
X503000Y275586D01*
D16*
X942040Y92414D03*
D17*
X937000Y94314D02*
X923000Y94314D01*
X923000Y104414D01*
X923000Y125686D02*
X937000Y125686D01*
X923000Y125686D02*
X923000Y115586D01*
D16*
X942040Y132414D03*
D17*
X937000Y134314D02*
X923000Y134314D01*
X923000Y144414D01*
X923000Y165686D02*
X937000Y165686D01*
X923000Y165686D02*
X923000Y155586D01*
D16*
X942040Y172414D03*
D17*
X937000Y174314D02*
X923000Y174314D01*
X923000Y184414D01*
X923000Y205686D02*
X937000Y205686D01*
X923000Y205686D02*
X923000Y195586D01*
D16*
X942040Y212414D03*
D17*
X937000Y214314D02*
X923000Y214314D01*
X923000Y224414D01*
X923000Y245686D02*
X937000Y245686D01*
X923000Y245686D02*
X923000Y235586D01*
D16*
X942040Y252414D03*
D17*
X937000Y254314D02*
X923000Y254314D01*
X923000Y264414D01*
X923000Y285686D02*
X937000Y285686D01*
X923000Y285686D02*
X923000Y275586D01*
D16*
X882040Y92414D03*
D17*
X877000Y94314D02*
X863000Y94314D01*
X863000Y104414D01*
X863000Y125686D02*
X877000Y125686D01*
X863000Y125686D02*
X863000Y115586D01*
D16*
X882040Y132414D03*
D17*
X877000Y134314D02*
X863000Y134314D01*
X863000Y144414D01*
X863000Y165686D02*
X877000Y165686D01*
X863000Y165686D02*
X863000Y155586D01*
D16*
X882040Y172414D03*
D17*
X877000Y174314D02*
X863000Y174314D01*
X863000Y184414D01*
X863000Y205686D02*
X877000Y205686D01*
X863000Y205686D02*
X863000Y195586D01*
D16*
X882040Y212414D03*
D17*
X877000Y214314D02*
X863000Y214314D01*
X863000Y224414D01*
X863000Y245686D02*
X877000Y245686D01*
X863000Y245686D02*
X863000Y235586D01*
D16*
X162040Y132414D03*
D17*
X157000Y134314D02*
X143000Y134314D01*
X143000Y144414D01*
X143000Y165686D02*
X157000Y165686D01*
X143000Y165686D02*
X143000Y155586D01*
D16*
X882040Y252414D03*
D17*
X877000Y254314D02*
X863000Y254314D01*
X863000Y264414D01*
X863000Y285686D02*
X877000Y285686D01*
X863000Y285686D02*
X863000Y275586D01*
D16*
X822040Y92414D03*
D17*
X817000Y94314D02*
X803000Y94314D01*
X803000Y104414D01*
X803000Y125686D02*
X817000Y125686D01*
X803000Y125686D02*
X803000Y115586D01*
D16*
X822040Y132414D03*
D17*
X817000Y134314D02*
X803000Y134314D01*
X803000Y144414D01*
X803000Y165686D02*
X817000Y165686D01*
X803000Y165686D02*
X803000Y155586D01*
D16*
X822040Y172414D03*
D17*
X817000Y174314D02*
X803000Y174314D01*
X803000Y184414D01*
X803000Y205686D02*
X817000Y205686D01*
X803000Y205686D02*
X803000Y195586D01*
D16*
X822040Y212414D03*
D17*
X817000Y214314D02*
X803000Y214314D01*
X803000Y224414D01*
X803000Y245686D02*
X817000Y245686D01*
X803000Y245686D02*
X803000Y235586D01*
D16*
X822040Y252414D03*
D17*
X817000Y254314D02*
X803000Y254314D01*
X803000Y264414D01*
X803000Y285686D02*
X817000Y285686D01*
X803000Y285686D02*
X803000Y275586D01*
D16*
X762040Y92414D03*
D17*
X757000Y94314D02*
X743000Y94314D01*
X743000Y104414D01*
X743000Y125686D02*
X757000Y125686D01*
X743000Y125686D02*
X743000Y115586D01*
D16*
X762040Y132414D03*
D17*
X757000Y134314D02*
X743000Y134314D01*
X743000Y144414D01*
X743000Y165686D02*
X757000Y165686D01*
X743000Y165686D02*
X743000Y155586D01*
D16*
X762040Y172414D03*
D17*
X757000Y174314D02*
X743000Y174314D01*
X743000Y184414D01*
X743000Y205686D02*
X757000Y205686D01*
X743000Y205686D02*
X743000Y195586D01*
D16*
X762040Y212414D03*
D17*
X757000Y214314D02*
X743000Y214314D01*
X743000Y224414D01*
X743000Y245686D02*
X757000Y245686D01*
X743000Y245686D02*
X743000Y235586D01*
D16*
X162040Y172414D03*
D17*
X157000Y174314D02*
X143000Y174314D01*
X143000Y184414D01*
X143000Y205686D02*
X157000Y205686D01*
X143000Y205686D02*
X143000Y195586D01*
D16*
X762040Y252414D03*
D17*
X757000Y254314D02*
X743000Y254314D01*
X743000Y264414D01*
X743000Y285686D02*
X757000Y285686D01*
X743000Y285686D02*
X743000Y275586D01*
D16*
X1182040Y92414D03*
D17*
X1177000Y94314D02*
X1163000Y94314D01*
X1163000Y104414D01*
X1163000Y125686D02*
X1177000Y125686D01*
X1163000Y125686D02*
X1163000Y115586D01*
D16*
X1182040Y132414D03*
D17*
X1177000Y134314D02*
X1163000Y134314D01*
X1163000Y144414D01*
X1163000Y165686D02*
X1177000Y165686D01*
X1163000Y165686D02*
X1163000Y155586D01*
D16*
X1182040Y172414D03*
D17*
X1177000Y174314D02*
X1163000Y174314D01*
X1163000Y184414D01*
X1163000Y205686D02*
X1177000Y205686D01*
X1163000Y205686D02*
X1163000Y195586D01*
D16*
X1182040Y212414D03*
D17*
X1177000Y214314D02*
X1163000Y214314D01*
X1163000Y224414D01*
X1163000Y245686D02*
X1177000Y245686D01*
X1163000Y245686D02*
X1163000Y235586D01*
D16*
X1182040Y252414D03*
D17*
X1177000Y254314D02*
X1163000Y254314D01*
X1163000Y264414D01*
X1163000Y285686D02*
X1177000Y285686D01*
X1163000Y285686D02*
X1163000Y275586D01*
D16*
X1122040Y92414D03*
D17*
X1117000Y94314D02*
X1103000Y94314D01*
X1103000Y104414D01*
X1103000Y125686D02*
X1117000Y125686D01*
X1103000Y125686D02*
X1103000Y115586D01*
D16*
X1122040Y132414D03*
D17*
X1117000Y134314D02*
X1103000Y134314D01*
X1103000Y144414D01*
X1103000Y165686D02*
X1117000Y165686D01*
X1103000Y165686D02*
X1103000Y155586D01*
D16*
X1122040Y172414D03*
D17*
X1117000Y174314D02*
X1103000Y174314D01*
X1103000Y184414D01*
X1103000Y205686D02*
X1117000Y205686D01*
X1103000Y205686D02*
X1103000Y195586D01*
D16*
X1122040Y212414D03*
D17*
X1117000Y214314D02*
X1103000Y214314D01*
X1103000Y224414D01*
X1103000Y245686D02*
X1117000Y245686D01*
X1103000Y245686D02*
X1103000Y235586D01*
D16*
X162040Y212414D03*
D17*
X157000Y214314D02*
X143000Y214314D01*
X143000Y224414D01*
X143000Y245686D02*
X157000Y245686D01*
X143000Y245686D02*
X143000Y235586D01*
D16*
X1122040Y252414D03*
D17*
X1117000Y254314D02*
X1103000Y254314D01*
X1103000Y264414D01*
X1103000Y285686D02*
X1117000Y285686D01*
X1103000Y285686D02*
X1103000Y275586D01*
D16*
X1062040Y92414D03*
D17*
X1057000Y94314D02*
X1043000Y94314D01*
X1043000Y104414D01*
X1043000Y125686D02*
X1057000Y125686D01*
X1043000Y125686D02*
X1043000Y115586D01*
D16*
X1062040Y132414D03*
D17*
X1057000Y134314D02*
X1043000Y134314D01*
X1043000Y144414D01*
X1043000Y165686D02*
X1057000Y165686D01*
X1043000Y165686D02*
X1043000Y155586D01*
D16*
X1062040Y172414D03*
D17*
X1057000Y174314D02*
X1043000Y174314D01*
X1043000Y184414D01*
X1043000Y205686D02*
X1057000Y205686D01*
X1043000Y205686D02*
X1043000Y195586D01*
D16*
X1062040Y212414D03*
D17*
X1057000Y214314D02*
X1043000Y214314D01*
X1043000Y224414D01*
X1043000Y245686D02*
X1057000Y245686D01*
X1043000Y245686D02*
X1043000Y235586D01*
D16*
X1062040Y252414D03*
D17*
X1057000Y254314D02*
X1043000Y254314D01*
X1043000Y264414D01*
X1043000Y285686D02*
X1057000Y285686D01*
X1043000Y285686D02*
X1043000Y275586D01*
D16*
X1002040Y92414D03*
D17*
X997000Y94314D02*
X983000Y94314D01*
X983000Y104414D01*
X983000Y125686D02*
X997000Y125686D01*
X983000Y125686D02*
X983000Y115586D01*
D16*
X1002040Y132414D03*
D17*
X997000Y134314D02*
X983000Y134314D01*
X983000Y144414D01*
X983000Y165686D02*
X997000Y165686D01*
X983000Y165686D02*
X983000Y155586D01*
D16*
X1002040Y172414D03*
D17*
X997000Y174314D02*
X983000Y174314D01*
X983000Y184414D01*
X983000Y205686D02*
X997000Y205686D01*
X983000Y205686D02*
X983000Y195586D01*
D16*
X1002040Y212414D03*
D17*
X997000Y214314D02*
X983000Y214314D01*
X983000Y224414D01*
X983000Y245686D02*
X997000Y245686D01*
X983000Y245686D02*
X983000Y235586D01*
M02*
