G04 EAGLE Gerber RS-274X export*
G75*
%MOMM*%
%FSLAX34Y34*%
%LPD*%
%INSolderpaste Top*%
%IPPOS*%
%AMOC8*
5,1,8,0,0,1.08239X$1,22.5*%
G01*
%ADD10R,0.250000X1.250000*%
%ADD11R,1.650000X2.050000*%
%ADD12R,1.510000X1.400000*%
%ADD13R,1.220000X0.850000*%
%ADD14R,1.070000X2.160000*%
%ADD15R,1.500000X1.300000*%
%ADD16R,1.180100X0.609200*%


D10*
X147500Y17500D03*
X142500Y17500D03*
X137500Y17500D03*
X132500Y17500D03*
X127500Y17500D03*
X122500Y17500D03*
X117500Y17500D03*
X112500Y17500D03*
X107500Y17500D03*
X102500Y17500D03*
X97500Y17500D03*
X92500Y17500D03*
X87500Y17500D03*
X82500Y17500D03*
X77500Y17500D03*
X72500Y17500D03*
X67500Y17500D03*
X62500Y17500D03*
X57500Y17500D03*
X52500Y17500D03*
D11*
X33500Y50000D03*
X166500Y50000D03*
D10*
X397500Y17500D03*
X392500Y17500D03*
X387500Y17500D03*
X382500Y17500D03*
X377500Y17500D03*
X372500Y17500D03*
X367500Y17500D03*
X362500Y17500D03*
X357500Y17500D03*
X352500Y17500D03*
X347500Y17500D03*
X342500Y17500D03*
X337500Y17500D03*
X332500Y17500D03*
X327500Y17500D03*
X322500Y17500D03*
X317500Y17500D03*
X312500Y17500D03*
X307500Y17500D03*
X302500Y17500D03*
D11*
X283500Y50000D03*
X416500Y50000D03*
D10*
X647500Y17500D03*
X642500Y17500D03*
X637500Y17500D03*
X632500Y17500D03*
X627500Y17500D03*
X622500Y17500D03*
X617500Y17500D03*
X612500Y17500D03*
X607500Y17500D03*
X602500Y17500D03*
X597500Y17500D03*
X592500Y17500D03*
X587500Y17500D03*
X582500Y17500D03*
X577500Y17500D03*
X572500Y17500D03*
X567500Y17500D03*
X562500Y17500D03*
X557500Y17500D03*
X552500Y17500D03*
D11*
X533500Y50000D03*
X666500Y50000D03*
D10*
X897500Y17500D03*
X892500Y17500D03*
X887500Y17500D03*
X882500Y17500D03*
X877500Y17500D03*
X872500Y17500D03*
X867500Y17500D03*
X862500Y17500D03*
X857500Y17500D03*
X852500Y17500D03*
X847500Y17500D03*
X842500Y17500D03*
X837500Y17500D03*
X832500Y17500D03*
X827500Y17500D03*
X822500Y17500D03*
X817500Y17500D03*
X812500Y17500D03*
X807500Y17500D03*
X802500Y17500D03*
D11*
X783500Y50000D03*
X916500Y50000D03*
D10*
X1147500Y17500D03*
X1142500Y17500D03*
X1137500Y17500D03*
X1132500Y17500D03*
X1127500Y17500D03*
X1122500Y17500D03*
X1117500Y17500D03*
X1112500Y17500D03*
X1107500Y17500D03*
X1102500Y17500D03*
X1097500Y17500D03*
X1092500Y17500D03*
X1087500Y17500D03*
X1082500Y17500D03*
X1077500Y17500D03*
X1072500Y17500D03*
X1067500Y17500D03*
X1062500Y17500D03*
X1057500Y17500D03*
X1052500Y17500D03*
D11*
X1033500Y50000D03*
X1166500Y50000D03*
D12*
X1280400Y90950D03*
X1301200Y90950D03*
X1280400Y65550D03*
X1301200Y65550D03*
X1259600Y90950D03*
X1238800Y90950D03*
X1259600Y65550D03*
X1238800Y65550D03*
D13*
X1276750Y43300D03*
X1263250Y43300D03*
X1290250Y43300D03*
X1303750Y43300D03*
X1317250Y43300D03*
X1249750Y43300D03*
X1236250Y43300D03*
X1222750Y43300D03*
D14*
X1304000Y175450D03*
X1287000Y175450D03*
X1270000Y175450D03*
X1253000Y175450D03*
X1236000Y175450D03*
D15*
X1300000Y250500D03*
X1300000Y269500D03*
X1240000Y250500D03*
X1240000Y269500D03*
X1210000Y220500D03*
X1210000Y239500D03*
X1200000Y170500D03*
X1200000Y189500D03*
X1330000Y239500D03*
X1330000Y220500D03*
D16*
X220245Y100500D03*
X220245Y119500D03*
X199755Y110000D03*
X160245Y260500D03*
X160245Y279500D03*
X139755Y270000D03*
X1000245Y260500D03*
X1000245Y279500D03*
X979755Y270000D03*
X100245Y100500D03*
X100245Y119500D03*
X79755Y110000D03*
X100245Y140500D03*
X100245Y159500D03*
X79755Y150000D03*
X100245Y180500D03*
X100245Y199500D03*
X79755Y190000D03*
X100245Y220500D03*
X100245Y239500D03*
X79755Y230000D03*
X100245Y260500D03*
X100245Y279500D03*
X79755Y270000D03*
X40245Y100500D03*
X40245Y119500D03*
X19755Y110000D03*
X40245Y140500D03*
X40245Y159500D03*
X19755Y150000D03*
X40245Y180500D03*
X40245Y199500D03*
X19755Y190000D03*
X40245Y220500D03*
X40245Y239500D03*
X19755Y230000D03*
X220245Y140500D03*
X220245Y159500D03*
X199755Y150000D03*
X40245Y260500D03*
X40245Y279500D03*
X19755Y270000D03*
X460245Y100500D03*
X460245Y119500D03*
X439755Y110000D03*
X460245Y140500D03*
X460245Y159500D03*
X439755Y150000D03*
X460245Y180500D03*
X460245Y199500D03*
X439755Y190000D03*
X460245Y220500D03*
X460245Y239500D03*
X439755Y230000D03*
X460245Y260500D03*
X460245Y279500D03*
X439755Y270000D03*
X400245Y100500D03*
X400245Y119500D03*
X379755Y110000D03*
X400245Y140500D03*
X400245Y159500D03*
X379755Y150000D03*
X400245Y180500D03*
X400245Y199500D03*
X379755Y190000D03*
X400245Y220500D03*
X400245Y239500D03*
X379755Y230000D03*
X220245Y180500D03*
X220245Y199500D03*
X199755Y190000D03*
X400245Y260500D03*
X400245Y279500D03*
X379755Y270000D03*
X340245Y100500D03*
X340245Y119500D03*
X319755Y110000D03*
X340245Y140500D03*
X340245Y159500D03*
X319755Y150000D03*
X340245Y180500D03*
X340245Y199500D03*
X319755Y190000D03*
X340245Y220500D03*
X340245Y239500D03*
X319755Y230000D03*
X340245Y260500D03*
X340245Y279500D03*
X319755Y270000D03*
X280245Y100500D03*
X280245Y119500D03*
X259755Y110000D03*
X280245Y140500D03*
X280245Y159500D03*
X259755Y150000D03*
X280245Y180500D03*
X280245Y199500D03*
X259755Y190000D03*
X280245Y220500D03*
X280245Y239500D03*
X259755Y230000D03*
X220245Y220500D03*
X220245Y239500D03*
X199755Y230000D03*
X280245Y260500D03*
X280245Y279500D03*
X259755Y270000D03*
X700245Y100500D03*
X700245Y119500D03*
X679755Y110000D03*
X700245Y140500D03*
X700245Y159500D03*
X679755Y150000D03*
X700245Y180500D03*
X700245Y199500D03*
X679755Y190000D03*
X700245Y220500D03*
X700245Y239500D03*
X679755Y230000D03*
X700245Y260500D03*
X700245Y279500D03*
X679755Y270000D03*
X640245Y100500D03*
X640245Y119500D03*
X619755Y110000D03*
X640245Y140500D03*
X640245Y159500D03*
X619755Y150000D03*
X640245Y180500D03*
X640245Y199500D03*
X619755Y190000D03*
X640245Y220500D03*
X640245Y239500D03*
X619755Y230000D03*
X220245Y260500D03*
X220245Y279500D03*
X199755Y270000D03*
X640245Y260500D03*
X640245Y279500D03*
X619755Y270000D03*
X580245Y100500D03*
X580245Y119500D03*
X559755Y110000D03*
X580245Y140500D03*
X580245Y159500D03*
X559755Y150000D03*
X580245Y180500D03*
X580245Y199500D03*
X559755Y190000D03*
X580245Y220500D03*
X580245Y239500D03*
X559755Y230000D03*
X580245Y260500D03*
X580245Y279500D03*
X559755Y270000D03*
X520245Y100500D03*
X520245Y119500D03*
X499755Y110000D03*
X520245Y140500D03*
X520245Y159500D03*
X499755Y150000D03*
X520245Y180500D03*
X520245Y199500D03*
X499755Y190000D03*
X520245Y220500D03*
X520245Y239500D03*
X499755Y230000D03*
X160245Y100500D03*
X160245Y119500D03*
X139755Y110000D03*
X520245Y260500D03*
X520245Y279500D03*
X499755Y270000D03*
X940245Y100500D03*
X940245Y119500D03*
X919755Y110000D03*
X940245Y140500D03*
X940245Y159500D03*
X919755Y150000D03*
X940245Y180500D03*
X940245Y199500D03*
X919755Y190000D03*
X940245Y220500D03*
X940245Y239500D03*
X919755Y230000D03*
X940245Y260500D03*
X940245Y279500D03*
X919755Y270000D03*
X880245Y100500D03*
X880245Y119500D03*
X859755Y110000D03*
X880245Y140500D03*
X880245Y159500D03*
X859755Y150000D03*
X880245Y180500D03*
X880245Y199500D03*
X859755Y190000D03*
X880245Y220500D03*
X880245Y239500D03*
X859755Y230000D03*
X160245Y140500D03*
X160245Y159500D03*
X139755Y150000D03*
X880245Y260500D03*
X880245Y279500D03*
X859755Y270000D03*
X820245Y100500D03*
X820245Y119500D03*
X799755Y110000D03*
X820245Y140500D03*
X820245Y159500D03*
X799755Y150000D03*
X820245Y180500D03*
X820245Y199500D03*
X799755Y190000D03*
X820245Y220500D03*
X820245Y239500D03*
X799755Y230000D03*
X820245Y260500D03*
X820245Y279500D03*
X799755Y270000D03*
X760245Y100500D03*
X760245Y119500D03*
X739755Y110000D03*
X760245Y140500D03*
X760245Y159500D03*
X739755Y150000D03*
X760245Y180500D03*
X760245Y199500D03*
X739755Y190000D03*
X760245Y220500D03*
X760245Y239500D03*
X739755Y230000D03*
X160245Y180500D03*
X160245Y199500D03*
X139755Y190000D03*
X760245Y260500D03*
X760245Y279500D03*
X739755Y270000D03*
X1180245Y100500D03*
X1180245Y119500D03*
X1159755Y110000D03*
X1180245Y140500D03*
X1180245Y159500D03*
X1159755Y150000D03*
X1180245Y180500D03*
X1180245Y199500D03*
X1159755Y190000D03*
X1180245Y220500D03*
X1180245Y239500D03*
X1159755Y230000D03*
X1180245Y260500D03*
X1180245Y279500D03*
X1159755Y270000D03*
X1120245Y100500D03*
X1120245Y119500D03*
X1099755Y110000D03*
X1120245Y140500D03*
X1120245Y159500D03*
X1099755Y150000D03*
X1120245Y180500D03*
X1120245Y199500D03*
X1099755Y190000D03*
X1120245Y220500D03*
X1120245Y239500D03*
X1099755Y230000D03*
X160245Y220500D03*
X160245Y239500D03*
X139755Y230000D03*
X1120245Y260500D03*
X1120245Y279500D03*
X1099755Y270000D03*
X1060245Y100500D03*
X1060245Y119500D03*
X1039755Y110000D03*
X1060245Y140500D03*
X1060245Y159500D03*
X1039755Y150000D03*
X1060245Y180500D03*
X1060245Y199500D03*
X1039755Y190000D03*
X1060245Y220500D03*
X1060245Y239500D03*
X1039755Y230000D03*
X1060245Y260500D03*
X1060245Y279500D03*
X1039755Y270000D03*
X1000245Y100500D03*
X1000245Y119500D03*
X979755Y110000D03*
X1000245Y140500D03*
X1000245Y159500D03*
X979755Y150000D03*
X1000245Y180500D03*
X1000245Y199500D03*
X979755Y190000D03*
X1000245Y220500D03*
X1000245Y239500D03*
X979755Y230000D03*
D15*
X180000Y100500D03*
X180000Y119500D03*
X120000Y260500D03*
X120000Y279500D03*
X960000Y260500D03*
X960000Y279500D03*
X60000Y100500D03*
X60000Y119500D03*
X60000Y140500D03*
X60000Y159500D03*
X60000Y180500D03*
X60000Y199500D03*
X60000Y220500D03*
X60000Y239500D03*
X60000Y260500D03*
X60000Y279500D03*
X0Y100500D03*
X0Y119500D03*
X0Y140500D03*
X0Y159500D03*
X0Y180500D03*
X0Y199500D03*
X0Y220500D03*
X0Y239500D03*
X180000Y140500D03*
X180000Y159500D03*
X0Y260500D03*
X0Y279500D03*
X420000Y100500D03*
X420000Y119500D03*
X420000Y140500D03*
X420000Y159500D03*
X420000Y180500D03*
X420000Y199500D03*
X420000Y220500D03*
X420000Y239500D03*
X420000Y260500D03*
X420000Y279500D03*
X360000Y100500D03*
X360000Y119500D03*
X360000Y140500D03*
X360000Y159500D03*
X360000Y180500D03*
X360000Y199500D03*
X360000Y220500D03*
X360000Y239500D03*
X180000Y180500D03*
X180000Y199500D03*
X360000Y260500D03*
X360000Y279500D03*
X300000Y100500D03*
X300000Y119500D03*
X300000Y140500D03*
X300000Y159500D03*
X300000Y180500D03*
X300000Y199500D03*
X300000Y220500D03*
X300000Y239500D03*
X300000Y260500D03*
X300000Y279500D03*
X240000Y100500D03*
X240000Y119500D03*
X240000Y140500D03*
X240000Y159500D03*
X240000Y180500D03*
X240000Y199500D03*
X240000Y220500D03*
X240000Y239500D03*
X180000Y220500D03*
X180000Y239500D03*
X240000Y260500D03*
X240000Y279500D03*
X660000Y100500D03*
X660000Y119500D03*
X660000Y140500D03*
X660000Y159500D03*
X660000Y180500D03*
X660000Y199500D03*
X660000Y220500D03*
X660000Y239500D03*
X660000Y260500D03*
X660000Y279500D03*
X600000Y100500D03*
X600000Y119500D03*
X600000Y140500D03*
X600000Y159500D03*
X600000Y180500D03*
X600000Y199500D03*
X600000Y220500D03*
X600000Y239500D03*
X180000Y260500D03*
X180000Y279500D03*
X600000Y260500D03*
X600000Y279500D03*
X540000Y100500D03*
X540000Y119500D03*
X540000Y140500D03*
X540000Y159500D03*
X540000Y180500D03*
X540000Y199500D03*
X540000Y220500D03*
X540000Y239500D03*
X540000Y260500D03*
X540000Y279500D03*
X480000Y100500D03*
X480000Y119500D03*
X480000Y140500D03*
X480000Y159500D03*
X480000Y180500D03*
X480000Y199500D03*
X480000Y220500D03*
X480000Y239500D03*
X120000Y100500D03*
X120000Y119500D03*
X480000Y260500D03*
X480000Y279500D03*
X900000Y100500D03*
X900000Y119500D03*
X900000Y140500D03*
X900000Y159500D03*
X900000Y180500D03*
X900000Y199500D03*
X900000Y220500D03*
X900000Y239500D03*
X900000Y260500D03*
X900000Y279500D03*
X840000Y100500D03*
X840000Y119500D03*
X840000Y140500D03*
X840000Y159500D03*
X840000Y180500D03*
X840000Y199500D03*
X840000Y220500D03*
X840000Y239500D03*
X120000Y140500D03*
X120000Y159500D03*
X840000Y260500D03*
X840000Y279500D03*
X780000Y100500D03*
X780000Y119500D03*
X780000Y140500D03*
X780000Y159500D03*
X780000Y180500D03*
X780000Y199500D03*
X780000Y220500D03*
X780000Y239500D03*
X780000Y260500D03*
X780000Y279500D03*
X720000Y100500D03*
X720000Y119500D03*
X720000Y140500D03*
X720000Y159500D03*
X720000Y180500D03*
X720000Y199500D03*
X720000Y220500D03*
X720000Y239500D03*
X120000Y180500D03*
X120000Y199500D03*
X720000Y260500D03*
X720000Y279500D03*
X1140000Y100500D03*
X1140000Y119500D03*
X1140000Y140500D03*
X1140000Y159500D03*
X1140000Y180500D03*
X1140000Y199500D03*
X1140000Y220500D03*
X1140000Y239500D03*
X1140000Y260500D03*
X1140000Y279500D03*
X1080000Y100500D03*
X1080000Y119500D03*
X1080000Y140500D03*
X1080000Y159500D03*
X1080000Y180500D03*
X1080000Y199500D03*
X1080000Y220500D03*
X1080000Y239500D03*
X120000Y220500D03*
X120000Y239500D03*
X1080000Y260500D03*
X1080000Y279500D03*
X1020000Y100500D03*
X1020000Y119500D03*
X1020000Y140500D03*
X1020000Y159500D03*
X1020000Y180500D03*
X1020000Y199500D03*
X1020000Y220500D03*
X1020000Y239500D03*
X1020000Y260500D03*
X1020000Y279500D03*
X960000Y100500D03*
X960000Y119500D03*
X960000Y140500D03*
X960000Y159500D03*
X960000Y180500D03*
X960000Y199500D03*
X960000Y220500D03*
X960000Y239500D03*
M02*
