G04 EAGLE Gerber RS-274X export*
G75*
%MOMM*%
%FSLAX34Y34*%
%LPD*%
%INSolderpaste Bottom*%
%IPPOS*%
%AMOC8*
5,1,8,0,0,1.08239X$1,22.5*%
G01*
%ADD10R,0.250000X1.250000*%
%ADD11R,1.650000X2.050000*%


D10*
X147500Y362500D03*
X142500Y362500D03*
X137500Y362500D03*
X132500Y362500D03*
X127500Y362500D03*
X122500Y362500D03*
X117500Y362500D03*
X112500Y362500D03*
X107500Y362500D03*
X102500Y362500D03*
X97500Y362500D03*
X92500Y362500D03*
X87500Y362500D03*
X82500Y362500D03*
X77500Y362500D03*
X72500Y362500D03*
X67500Y362500D03*
X62500Y362500D03*
X57500Y362500D03*
X52500Y362500D03*
D11*
X33500Y330000D03*
X166500Y330000D03*
D10*
X397500Y362500D03*
X392500Y362500D03*
X387500Y362500D03*
X382500Y362500D03*
X377500Y362500D03*
X372500Y362500D03*
X367500Y362500D03*
X362500Y362500D03*
X357500Y362500D03*
X352500Y362500D03*
X347500Y362500D03*
X342500Y362500D03*
X337500Y362500D03*
X332500Y362500D03*
X327500Y362500D03*
X322500Y362500D03*
X317500Y362500D03*
X312500Y362500D03*
X307500Y362500D03*
X302500Y362500D03*
D11*
X283500Y330000D03*
X416500Y330000D03*
D10*
X647500Y362500D03*
X642500Y362500D03*
X637500Y362500D03*
X632500Y362500D03*
X627500Y362500D03*
X622500Y362500D03*
X617500Y362500D03*
X612500Y362500D03*
X607500Y362500D03*
X602500Y362500D03*
X597500Y362500D03*
X592500Y362500D03*
X587500Y362500D03*
X582500Y362500D03*
X577500Y362500D03*
X572500Y362500D03*
X567500Y362500D03*
X562500Y362500D03*
X557500Y362500D03*
X552500Y362500D03*
D11*
X533500Y330000D03*
X666500Y330000D03*
D10*
X897500Y362500D03*
X892500Y362500D03*
X887500Y362500D03*
X882500Y362500D03*
X877500Y362500D03*
X872500Y362500D03*
X867500Y362500D03*
X862500Y362500D03*
X857500Y362500D03*
X852500Y362500D03*
X847500Y362500D03*
X842500Y362500D03*
X837500Y362500D03*
X832500Y362500D03*
X827500Y362500D03*
X822500Y362500D03*
X817500Y362500D03*
X812500Y362500D03*
X807500Y362500D03*
X802500Y362500D03*
D11*
X783500Y330000D03*
X916500Y330000D03*
D10*
X1147500Y362500D03*
X1142500Y362500D03*
X1137500Y362500D03*
X1132500Y362500D03*
X1127500Y362500D03*
X1122500Y362500D03*
X1117500Y362500D03*
X1112500Y362500D03*
X1107500Y362500D03*
X1102500Y362500D03*
X1097500Y362500D03*
X1092500Y362500D03*
X1087500Y362500D03*
X1082500Y362500D03*
X1077500Y362500D03*
X1072500Y362500D03*
X1067500Y362500D03*
X1062500Y362500D03*
X1057500Y362500D03*
X1052500Y362500D03*
D11*
X1033500Y330000D03*
X1166500Y330000D03*
M02*
