M48
;GenerationSoftware,Autodesk,EAGLE,9.6.2*%
;CreationDate,2023-10-14T06:59:10Z*%
FMAT,2
ICI,OFF
METRIC,TZ,000.000
T2C0.350
T1C1.016
%
G90
M71
T1
X130000Y30730
X124000Y33270
X124000Y30730
X130000Y33270
T2
X106518Y13131
X108318Y8600
X91900Y11900
X91800Y9800
X4307Y13200
X5134Y8700
X31400Y17300
X31500Y13700
X31600Y10165
X22125Y13000
X21500Y21125
X13375Y3125
X24125Y29875
X13375Y5625
X15750Y13125
X11625Y4000
X14250Y22000
X10875Y3000
X15500Y23000
X10375Y5250
X10000Y13125
X9250Y7625
X8125Y20000
X8000Y5500
X8875Y26000
X7375Y4750
X4125Y9125
X7250Y3750
X3750Y17125
X6000Y6500
X3125Y21125
X3375Y7375
X2875Y26000
X3750Y3250
X45750Y17125
X38625Y7750
X44875Y22000
X37875Y7000
X46500Y28875
X37750Y6000
X40375Y7750
X37375Y3000
X40000Y13125
X37125Y4500
X40750Y23000
X36000Y7750
X38875Y26000
X35375Y7000
X34000Y17125
X33750Y4000
X34750Y23000
X33375Y3000
X32750Y24750
X32750Y6875
X27750Y17125
X31125Y5500
X27125Y21125
X28375Y7375
X26875Y26000
X26500Y5125
X70375Y17125
X63750Y3375
X70625Y19000
X63375Y4375
X68875Y26000
X63500Y5375
X63750Y13125
X61875Y7375
X62625Y20625
X60875Y3000
X62250Y26000
X60250Y5750
X58000Y16875
X58750Y3000
X56875Y19875
X58750Y4375
X56875Y26000
X58375Y5375
X52375Y9125
X57125Y5875
X50875Y22000
X53750Y7000
X50875Y26000
X53750Y3250
X93750Y17125
X89375Y3375
X92875Y22000
X89375Y7250
X93125Y25125
X88500Y7875
X91125Y13000
X87500Y6625
X88125Y25125
X85625Y3375
X87750Y21125
X86250Y4125
X82375Y13000
X84000Y7000
X82000Y17125
X83625Y3750
X80875Y19875
X84125Y8750
X81750Y25125
X82625Y3000
X76375Y17125
X79875Y7250
X75375Y21125
X79000Y6750
X74125Y26000
X74125Y6875
X22125Y16875
X18125Y33000
X15500Y36625
X14000Y37500
X22125Y24875
X21750Y30250
X16375Y11000
X14750Y17375
X14500Y25500
X15125Y26875
X16125Y20875
X17250Y30125
X11750Y37500
X15750Y25125
X12375Y33250
X8750Y13250
X9750Y32625
X9750Y34625
X10125Y16875
X9750Y20875
X7875Y26125
X10375Y37500
X1850Y12775
X4750Y17000
X4125Y20875
X4125Y24875
X4375Y35625
X46125Y12875
X44875Y16000
X45750Y20875
X41000Y31000
X39250Y37500
X40250Y37375
X43125Y33875
X38750Y13250
X39125Y30250
X37750Y37750
X37250Y16875
X37125Y32750
X37125Y35000
X40125Y20875
X36000Y37500
X39750Y31000
X33375Y12875
X33375Y15000
X34125Y20875
X34375Y33125
X34375Y37500
X32875Y37500
X33750Y34750
X28125Y15000
X28750Y16875
X28125Y20875
X28125Y24875
X28375Y34750
X69750Y12875
X71375Y31625
X66750Y36250
X68750Y16250
X69750Y20875
X69125Y32000
X63625Y37500
X68250Y24000
X64625Y37500
X64375Y11000
X63750Y16875
X62875Y31625
X62500Y35000
X64125Y20875
X61375Y37500
X63750Y32125
X58000Y11000
X56875Y18125
X57750Y21125
X57375Y34250
X57375Y37500
X58375Y24875
X58000Y35000
X52125Y12875
X52125Y16875
X49250Y20875
X49875Y26125
X52125Y35000
X94375Y12875
X94750Y31250
X90750Y35250
X92875Y16000
X93750Y20875
X88875Y37500
X89500Y34000
X87500Y12875
X86875Y16000
X86875Y33375
X86875Y35000
X86000Y37500
X88500Y27000
X88000Y28875
X80500Y12000
X1445Y14055
X83875Y33750
X84875Y37500
X82375Y21125
X82875Y33625
X84250Y35000
X83250Y35000
X82250Y35000
X75875Y12875
X76375Y15000
X76375Y20875
X76125Y24875
X79500Y35500
X118000Y9125
X116250Y3250
X116875Y14000
X114125Y4750
X118000Y21125
X113125Y4000
X118375Y25125
X112750Y3000
X112375Y13125
X111750Y4125
X110750Y16750
X111125Y3000
X112000Y25125
X110125Y7250
X105750Y17125
X108500Y5750
X105375Y21000
X108375Y3625
X104875Y26000
X106000Y7375
X100625Y9125
X107250Y3000
X80875Y18125
X106250Y6250
X100375Y17125
X104750Y6875
X98875Y22000
X103500Y7250
X98875Y26000
X103750Y3250
X118375Y12875
X118875Y32000
X115500Y36375
X117750Y16875
X119625Y24625
X116500Y36375
X116250Y21875
X116625Y35125
X114125Y34250
X111375Y12875
X112125Y16875
X111750Y20875
X111375Y37500
X110875Y28000
X99375Y7250
X106000Y19000
X106375Y20875
X106125Y24875
X106625Y33000
X98875Y12000
X100000Y15000
X100125Y20875
X100125Y24875
X100125Y28875
X1500Y10100
X55300Y13100
X55400Y10000
X100125Y13125
M30